SplineFontDB: 3.0
FontName: MeeraTamil
FullName: Meera Tamil
FamilyName: Meera Tamil
Weight: Medium
Copyright: Copyright 2012 Meera Tamil project contributors.\n\nDesigned by Hussain KH (Typography), Santhosh Thottingal (Featuring), Anilan NG (Calligraphy) and AKM Kutty (Linguistics).\n\nDedicated to Wikipedia and Tamil People (Tamil Pesum Nallulakam).\n\nLicensed under the SIL Open Font License 1.1 (see file OFL.txt)
UComments: "2012-6-9: Created." 
Version: 0.01alpha2
ItalicAngle: 0
UnderlinePosition: -102
UnderlineWidth: 51
Ascent: 819
Descent: 205
LayerCount: 2
Layer: 0 0 "Back"  1
Layer: 1 0 "Fore"  0
XUID: [1021 393 960756424 6214922]
FSType: 0
OS2Version: 0
OS2_WeightWidthSlopeOnly: 0
OS2_UseTypoMetrics: 1
CreationTime: 1339233494
ModificationTime: 1344170503
OS2TypoAscent: 0
OS2TypoAOffset: 1
OS2TypoDescent: 0
OS2TypoDOffset: 1
OS2TypoLinegap: 92
OS2WinAscent: 0
OS2WinAOffset: 1
OS2WinDescent: 0
OS2WinDOffset: 1
HheadAscent: 0
HheadAOffset: 1
HheadDescent: 0
HheadDOffset: 1
OS2Vendor: 'PfEd'
Lookup: 4 0 0 "'akhn' Akhand in Tamil lookup 1"  {"'akhn' Akhand in Tamil lookup 1-1"  } ['akhn' ('DFLT' <'dflt' > 'taml' <'TAM ' 'dflt' > 'tml2' <'dflt' > ) ]
Lookup: 4 0 0 "'half' form Substitution lookup 5"  {"'half' form Substitution lookup 5-1"  } ['half' ('DFLT' <'dflt' > 'taml' <'TAM ' 'dflt' > 'tml2' <'dflt' > ) ]
Lookup: 4 0 0 "'blws' Below Base Substitutions in Tamil lookup 3"  {"'blws' Below Base Substitutions in Tamil lookup 3-1"  } ['blws' ('taml' <'dflt' > ) ]
Lookup: 4 2 0 "'abvs' Above Base Substitutions in Tamil lookup 0"  {"'abvs' Above Base Substitutions in Tamil lookup 0-1"  } ['abvs' ('DFLT' <'dflt' > 'taml' <'dflt' > 'tml2' <'dflt' > ) ]
Lookup: 4 0 0 "'psts' Post Base Substitutions lookup 6"  {"'psts' Post Base Substitutions lookup 6-1"  } ['psts' ('DFLT' <'dflt' > 'taml' <'TAM ' 'dflt' > 'tml2' <'dflt' > ) ]

StartChar: uni0B85
Encoding: 44 2949 0
Width: 1030
VWidth: 1048
Flags: W
HStem: -132 62<278.947 591.983> 73 67<162.862 769 866 953> 165 66<508.864 588.047> 325 47<526.246 582.796> 392 70<538.253 704.942>
VStem: 91 71<0.839352 72.373> 434 70<235.681 320.795> 593 70<235.647 314.337> 800 72<140.845 289.383> 953 74<-159 73 141 452>
LayerCount: 2
Fore
SplineSet
1027 -159 m 1
 953 -159 l 1
 953 73 l 1
 851 73 l 1
 828 15 781 -34 710 -72 c 1
 634 -112 542 -132 438 -132 c 0
 348 -132 272 -120 210 -95 c 0
 131 -63 91 -15 91 49 c 0
 91 72 99 93 116 112 c 0
 133 131 153 140 177 140 c 2
 792 140 l 1
 797 158 800 177 800 193 c 0
 800 248 783 294 749 333 c 0
 715 372 672 392 621 392 c 0
 578 392 546 381 526 359 c 1
 535 367 547 372 563 372 c 0
 590 372 613 363 633 345 c 0
 653 327 663 303 663 275 c 0
 663 241 652 215 631 195 c 0
 610 175 583 165 551 165 c 0
 518 165 489 177 467 201 c 0
 445 225 434 255 434 291 c 0
 434 350 455 395 496 424 c 0
 531 449 577 462 634 462 c 0
 701 462 757 437 803 386 c 0
 849 335 872 272 872 197 c 0
 872 178 870 158 866 140 c 1
 953 141 l 1
 953 452 l 1
 1027 452 l 1
 1027 -159 l 1
593 278 m 0
 593 292 589 302 580 311 c 0
 571 320 560 325 547 325 c 0
 518 325 504 310 504 279 c 0
 504 248 519 231 549 231 c 0
 578 231 593 247 593 278 c 0
769 73 m 1
 189 73 l 2
 171 73 162 63 162 43 c 0
 162 12 192 -16 253 -39 c 0
 308 -59 366 -70 425 -70 c 0
 499 -70 566 -59 625 -37 c 0
 692 -12 740 25 769 73 c 1
EndSplineSet
Validated: 1
EndChar

StartChar: uni0B86
Encoding: 45 2950 1
Width: 1312
VWidth: 1048
Flags: W
HStem: -297 60<769.968 1065.47> -151 61<718.049 867.88> -132 62<283.623 591.395> 29 77<1085.73 1215.57> 73 67<165.471 770 868 977> 165 66<515.371 590.262> 325 47<528.364 584.99> 392 70<541.006 707.364>
VStem: 93 71<-1.03342 72.373> 436 70<241.541 319.445> 595 70<235.414 314.409> 645 73<-200.752 -154.126> 802 71<140.798 290.725> 977 74<-158 -3.73428 52 73 140 452> 1239 74<-118.28 7.45996>
LayerCount: 2
Fore
SplineSet
1313 -46 m 0x97ee
 1313 -132 1267 -198 1174 -244 c 0
 1101 -279 1017 -297 923 -297 c 0
 857 -297 799 -288 748 -272 c 1
 680 -249 645 -214 645 -168 c 0
 645 -141 660 -120 691 -106 c 0
 715 -95 742 -90 773 -90 c 0
 850 -90 906 -111 939 -151 c 1
 895 -194 l 1
 867 -165 827 -151 775 -151 c 0
 737 -151 718 -157 718 -171 c 0
 718 -192 743 -209 794 -222 c 0
 833 -232 872 -237 912 -237 c 0
 987 -237 1056 -223 1117 -196 c 1
 1198 -161 1239 -110 1239 -43 c 0
 1239 -20 1230 -2 1214 10 c 0
 1198 22 1178 29 1154 29 c 0xd7de
 1126 29 1102 21 1082 5 c 1
 1061 -13 1051 -35 1051 -62 c 2
 1051 -158 l 1
 977 -158 l 1
 977 73 l 1
 853 73 l 1
 825 4 767 -49 679 -86 c 0
 606 -117 526 -132 439 -132 c 0
 356 -132 284 -121 223 -99 c 0
 136 -68 93 -19 93 49 c 0
 93 72 102 93 119 112 c 0
 136 131 155 140 178 140 c 2
 793 140 l 1
 799 156 802 175 802 193 c 0
 802 246 786 292 753 331 c 0
 718 372 675 392 622 392 c 0
 580 392 548 381 528 359 c 1
 536 367 548 372 564 372 c 0
 591 372 615 362 635 344 c 0
 655 326 665 302 665 275 c 0
 665 242 654 216 633 196 c 0
 612 176 586 165 553 165 c 0
 518 165 490 177 468 201 c 0
 446 225 436 256 436 291 c 0
 436 348 456 392 495 422 c 0
 530 449 577 462 636 462 c 0
 706 462 763 435 809 381 c 0
 852 330 873 269 873 197 c 0
 873 177 871 158 868 140 c 1
 977 140 l 1xafee
 977 452 l 1
 1051 452 l 1
 1051 52 l 1
 1081 88 1117 106 1159 106 c 0
 1203 106 1240 92 1269 63 c 0
 1298 34 1313 -2 1313 -46 c 0x97ee
595 278 m 0x87ee
 595 291 591 302 582 311 c 0
 573 320 562 325 549 325 c 256
 536 325 526 320 518 311 c 0
 510 302 506 292 506 279 c 0
 506 265 510 254 518 245 c 0
 526 236 537 231 551 231 c 0
 580 231 595 247 595 278 c 0x87ee
770 73 m 1xafce
 191 73 l 2
 173 73 164 63 164 43 c 0
 164 8 199 -21 271 -44 c 0
 326 -61 378 -70 426 -70 c 0
 496 -70 560 -60 617 -40 c 0
 689 -15 740 22 770 73 c 1xafce
EndSplineSet
Validated: 1
EndChar

StartChar: uni0B87
Encoding: 46 2951 2
Width: 867
VWidth: 1048
Flags: W
HStem: -245 71<184.308 349.475> -232 70<535.181 716.82> 68 67<356.483 596.689> 174 63<413.507 492.621> 321 51<430.664 491.029> 396 69<445.175 590.139> 647 77<426.444 652.968>
VStem: 92 80<-159.976 -58.9744> 161 79<175.535 455.137> 340 70<240.747 317.227> 496 69<240.54 314.855> 639 77<122.476 341.433> 740 73<-139.252 -17.2186> 793 75<62 493.131>
LayerCount: 2
Fore
SplineSet
868 62 m 1xbef4
 793 62 l 1
 793 362 l 2xbef4
 793 445 772 512 731 564 c 0
 687 619 625 647 546 647 c 0
 455 647 382 617 325 556 c 0
 268 495 240 419 240 330 c 0
 240 250 257 171 292 94 c 1
 356 121 428 135 509 135 c 0
 544 135 583 131 623 121 c 1
 634 167 639 203 639 231 c 0
 639 341 599 396 520 396 c 0
 481 396 451 384 430 360 c 1
 442 368 455 372 468 372 c 0
 495 372 518 363 537 345 c 0
 556 327 565 305 565 278 c 0
 565 247 555 222 534 203 c 0
 513 184 487 174 456 174 c 0
 422 174 394 185 372 209 c 0
 350 233 340 262 340 297 c 0
 340 345 357 385 392 417 c 0
 427 449 468 465 516 465 c 0
 576 465 624 445 661 404 c 0
 698 363 716 312 716 250 c 0
 716 190 707 138 691 94 c 1
 726 77 755 52 778 20 c 0
 801 -14 813 -50 813 -88 c 0
 813 -136 795 -173 758 -199 c 0
 727 -222 686 -232 635 -232 c 0x7ef8
 567 -232 506 -216 450 -185 c 1
 380 -225 311 -245 244 -245 c 0
 202 -245 167 -237 140 -221 c 0
 108 -202 92 -173 92 -133 c 0xbf78
 92 -98 106 -62 134 -24 c 0
 158 8 187 35 222 56 c 1
 181 150 161 240 161 325 c 0
 161 438 194 532 260 606 c 0
 330 685 423 724 536 724 c 0
 640 724 721 693 780 631 c 0
 839 569 868 485 868 379 c 2
 868 62 l 1xbef4
496 279 m 0
 496 291 492 300 483 308 c 0
 474 316 464 321 452 321 c 0
 424 321 410 307 410 279 c 256
 410 251 425 237 454 237 c 0
 482 237 496 251 496 279 c 0
740 -82 m 0x7e78
 740 -59 733 -37 718 -17 c 0
 703 3 686 19 665 30 c 1
 629 -36 582 -91 527 -136 c 1
 562 -153 599 -162 639 -162 c 0
 707 -162 740 -135 740 -82 c 0x7e78
598 56 m 1
 565 64 533 68 500 68 c 0
 436 68 378 57 325 34 c 1
 359 -22 403 -67 458 -102 c 1
 517 -61 564 -9 598 56 c 1
376 -140 m 1
 328 -103 286 -58 252 -5 c 1
 199 -42 172 -79 172 -117 c 0
 172 -155 200 -174 257 -174 c 0xbf70
 288 -174 328 -163 376 -140 c 1
EndSplineSet
Validated: 1
EndChar

StartChar: uni0B88
Encoding: 47 2952 3
Width: 617
VWidth: 1048
Flags: W
HStem: 0 21G<102 175 367 438> 153 113<231.471 308.529 492.471 569.529> 381 70<175 367 438 616>
VStem: 102 73<0 381> 216 108<169.518 248.483> 367 71<0 381> 477 108<169.518 248.483>
LayerCount: 2
Fore
SplineSet
585 210 m 0
 585 194 580 180 570 169 c 0
 560 158 547 153 531 153 c 256
 515 153 502 158 492 169 c 0
 482 180 477 194 477 210 c 0
 477 225 482 238 492 249 c 0
 502 260 515 266 531 266 c 256
 547 266 560 261 570 250 c 0
 580 239 585 226 585 210 c 0
616 381 m 1
 438 381 l 1
 438 0 l 1
 367 0 l 1
 367 381 l 1
 175 381 l 1
 175 0 l 1
 102 0 l 1
 102 451 l 1
 616 451 l 1
 616 381 l 1
324 210 m 0
 324 194 319 180 309 169 c 0
 299 158 286 153 270 153 c 256
 254 153 241 158 231 169 c 0
 221 180 216 194 216 210 c 0
 216 225 221 238 231 249 c 0
 241 260 254 266 270 266 c 256
 286 266 299 261 309 250 c 0
 319 239 324 226 324 210 c 0
EndSplineSet
Validated: 1
EndChar

StartChar: uni0B89
Encoding: 48 2953 4
Width: 862
VWidth: 1048
Flags: W
HStem: -1 63<182.514 859> 104 62<182.186 412.912> 189 61<176.992 254.447> 329 48<195.495 252.778> 396 66<201.486 384.692>
VStem: 103 79<62.2785 103.747> 109 65<253.54 326.503> 257 67<252.822 323.657> 450 70<202.893 338.35>
LayerCount: 2
Fore
SplineSet
859 -1 m 1xfd80
 191 -1 l 2
 168 -1 148 8 130 24 c 0
 112 40 103 60 103 83 c 256xfd80
 103 106 113 126 130 142 c 0
 147 158 167 166 191 166 c 2
 347 166 l 2
 377 166 402 176 421 195 c 0
 440 214 450 239 450 269 c 0
 450 311 432 344 397 367 c 0
 366 387 330 396 286 396 c 0
 242 396 211 387 195 367 c 1
 207 374 218 377 230 377 c 0
 255 377 278 368 296 351 c 0
 314 334 324 313 324 288 c 0
 324 259 313 235 293 217 c 0
 273 199 248 189 218 189 c 0
 185 189 159 201 139 223 c 0
 119 245 109 273 109 306 c 0xfb80
 109 356 129 395 169 424 c 0
 205 449 249 462 301 462 c 0
 361 462 412 446 454 414 c 0
 498 379 520 331 520 272 c 0
 520 223 504 183 471 152 c 0
 438 121 396 104 346 104 c 2
 209 104 l 2
 191 104 182 98 182 85 c 0
 182 70 191 62 209 62 c 2
 859 62 l 1
 859 -1 l 1xfd80
257 289 m 0
 257 301 253 309 244 317 c 0
 235 325 226 329 214 329 c 0
 187 329 174 316 174 290 c 0xfb80
 174 263 188 250 216 250 c 0
 243 250 257 263 257 289 c 0
EndSplineSet
Validated: 1
EndChar

StartChar: uni0B8A
Encoding: 49 2954 5
Width: 1197
VWidth: 1048
Flags: W
HStem: -1 58<182.514 1197> 79 59<697.706 767.592> 104 62<182.186 412.912> 189 61<176.992 254.447> 227 55<697.688 767.573> 329 48<195.495 252.778> 381 57<927 1029 1090 1184> 388 59<691.839 835.228> 396 66<201.486 384.692>
VStem: 103 79<57.3449 103.721> 109 65<253.54 326.503> 257 67<252.822 323.657> 450 70<202.893 338.35> 580 56<185.258 329.268> 652 42<168 223.674> 771 58<141.239 223.828> 868 59<89 356.791> 1029 61<89 381>
LayerCount: 2
Fore
SplineSet
1184 381 m 1x861fc0
 1090 381 l 1
 1090 89 l 1
 1029 89 l 1
 1029 381 l 1
 927 381 l 1x861fc0
 927 89 l 1
 868 89 l 1
 868 300 l 2
 868 327 858 349 835 366 c 0
 815 381 790 388 762 388 c 0
 725 388 695 375 671 347 c 0
 647 319 636 287 636 249 c 0
 636 226 641 204 653 184 c 1
 652 188 652 192 652 194 c 0
 652 219 660 240 675 257 c 0
 690 274 711 282 736 282 c 0
 764 282 787 272 804 252 c 0
 821 232 829 208 829 180 c 0
 829 150 820 126 801 107 c 0
 782 88 758 79 729 79 c 0
 683 79 645 97 617 134 c 0
 592 167 580 208 580 256 c 0
 580 311 596 356 628 393 c 0
 660 430 703 447 756 447 c 0xcd1fc0
 807 447 844 429 868 394 c 1
 868 438 l 1
 1184 438 l 1
 1184 381 l 1x861fc0
1197 -1 m 1
 191 -1 l 2
 168 -1 148 8 130 24 c 0
 112 40 103 60 103 83 c 256xb4dfc0
 103 106 113 126 130 142 c 0
 147 158 167 166 191 166 c 2
 347 166 l 2
 377 166 402 176 421 195 c 0
 440 214 450 239 450 269 c 0
 450 311 432 344 397 367 c 0
 366 387 330 396 286 396 c 0
 242 396 211 387 195 367 c 1
 207 374 218 377 230 377 c 0
 255 377 278 368 296 351 c 0
 314 334 324 313 324 288 c 0
 324 259 313 235 293 217 c 0
 273 199 248 189 218 189 c 0
 185 189 159 201 139 223 c 0
 119 245 109 273 109 306 c 0xb4bfc0
 109 356 129 395 169 424 c 0
 205 449 249 462 301 462 c 0
 361 462 412 446 454 414 c 0
 498 379 520 331 520 272 c 0
 520 223 504 183 471 152 c 0
 438 121 396 104 346 104 c 2
 209 104 l 2
 191 104 182 96 182 80 c 0xb4dfc0
 182 65 191 57 209 57 c 2
 1197 57 l 1
 1197 -1 l 1
771 183 m 0
 771 212 758 227 732 227 c 0
 707 227 694 212 694 183 c 0
 694 153 707 138 732 138 c 0xcc1fc0
 758 138 771 153 771 183 c 0
257 289 m 0
 257 301 253 309 244 317 c 0
 235 325 226 329 214 329 c 0
 187 329 174 316 174 290 c 0
 174 263 188 250 216 250 c 0x943fc0
 243 250 257 263 257 289 c 0
EndSplineSet
Validated: 1
EndChar

StartChar: uni0B8E
Encoding: 50 2958 6
Width: 762
VWidth: 1048
Flags: W
HStem: -11 69<260.35 342.627> 1 21G<531 603> 180 65<260.541 342.756> 380 70<255.407 531 603 765>
VStem: 104 69<122.644 297.631> 200 48<110.285 166.447> 355 70<69.238 166.139> 531 72<1 380>
LayerCount: 2
Fore
SplineSet
765 380 m 1xbf
 603 380 l 1
 603 1 l 1
 531 1 l 1x7f
 531 380 l 1
 344 380 l 2
 294 380 253 364 221 332 c 0
 189 300 173 260 173 211 c 0
 173 172 183 139 203 110 c 1
 201 122 200 129 200 134 c 0
 200 166 209 193 229 214 c 0
 249 235 275 245 306 245 c 0
 342 245 371 232 393 207 c 0
 415 182 425 152 425 116 c 0
 425 78 413 48 389 24 c 0
 365 0 335 -11 297 -11 c 0
 239 -11 192 12 155 59 c 0
 122 102 104 154 104 213 c 0
 104 286 129 344 177 387 c 0
 223 429 284 450 358 450 c 2
 765 450 l 1
 765 380 l 1xbf
355 120 m 256
 355 137 351 151 341 163 c 0
 331 175 318 180 302 180 c 0
 285 180 272 175 262 163 c 0
 252 151 248 137 248 120 c 256
 248 103 252 89 262 78 c 1
 272 65 285 58 302 58 c 0xbf
 318 58 331 65 341 78 c 1
 351 89 355 103 355 120 c 256
EndSplineSet
Validated: 1
EndChar

StartChar: uni0B8F
Encoding: 51 2959 7
Width: 762
VWidth: 1048
Flags: W
HStem: -11 69<261.494 342.627> 180 65<260.541 342.756> 379 71<256 542 613 765>
VStem: 104 70<123.334 298.486> 200 48<110.498 165.294> 355 70<69.238 166.139> 542 71<33.7124 379>
LayerCount: 2
Fore
SplineSet
765 379 m 1
 613 379 l 1
 613 -1 l 1
 567 -15 527 -39 495 -70 c 0
 463 -101 439 -138 423 -181 c 1
 361 -139 l 1
 379 -95 405 -57 437 -26 c 0
 468 3 503 27 542 44 c 1
 542 379 l 1
 344 379 l 2
 293 379 252 363 221 331 c 0
 190 299 174 259 174 209 c 0
 174 172 184 139 204 110 c 1
 201 123 200 131 200 134 c 0
 200 166 209 193 229 214 c 0
 249 235 275 245 306 245 c 0
 342 245 371 232 393 207 c 0
 415 182 425 152 425 116 c 0
 425 78 413 48 389 24 c 0
 365 0 335 -11 297 -11 c 0
 239 -11 192 12 156 58 c 0
 122 101 104 153 104 212 c 0
 104 284 128 342 175 385 c 0
 222 428 283 450 358 450 c 2
 765 450 l 1
 765 379 l 1
355 120 m 256
 355 137 351 151 341 163 c 0
 331 175 318 180 302 180 c 0
 285 180 272 174 262 162 c 0
 252 150 248 136 248 120 c 256
 248 104 252 89 262 77 c 0
 272 65 285 58 302 58 c 0
 318 58 331 65 341 78 c 1
 351 89 355 103 355 120 c 256
EndSplineSet
Validated: 1
EndChar

StartChar: uni0B90
Encoding: 52 2960 8
Width: 764
VWidth: 1048
Flags: W
HStem: -247 70<225.914 364.847 526.668 662.643> 62 71<227.853 632.517> 157 65<187.466 258.45> 309 53<200.411 261.499> 387 72<214.979 384.125 515.589 652.672>
VStem: 103 71<-126.343 8.89393 232.072 299.017> 268 74<231.174 302.547> 413 76<-130.567 33 170 358.345> 694 71<-147.476 -35.108 192.102 344.424>
LayerCount: 2
Fore
SplineSet
765 -96 m 0
 765 -140 747 -176 713 -204 c 0
 679 -232 639 -247 595 -247 c 0
 526 -247 479 -224 453 -178 c 1
 413 -224 359 -247 290 -247 c 0
 238 -247 194 -228 158 -190 c 0
 122 -152 103 -107 103 -54 c 0
 103 -1 123 43 163 79 c 0
 203 115 249 133 303 133 c 2
 555 133 l 2
 595 133 628 146 654 171 c 0
 680 196 693 228 693 268 c 0
 693 301 685 329 667 351 c 0
 647 375 621 387 588 387 c 0
 522 387 489 357 489 296 c 2
 489 170 l 1
 413 170 l 1
 413 296 l 2
 413 358 374 389 296 389 c 0
 254 389 223 376 200 351 c 1
 213 359 226 362 240 362 c 0
 268 362 292 353 312 334 c 0
 332 315 342 292 342 264 c 0
 342 232 331 206 309 186 c 0
 287 166 259 157 226 157 c 0
 191 157 162 169 139 194 c 0
 116 219 105 249 105 285 c 0
 105 336 125 378 163 411 c 0
 199 442 243 458 296 458 c 0
 364 458 414 439 446 403 c 1
 475 440 522 459 583 459 c 0
 635 459 678 440 713 403 c 0
 748 366 765 322 765 270 c 0
 765 211 748 163 715 124 c 0
 680 83 632 62 574 62 c 2
 302 62 l 2
 267 62 237 51 212 27 c 0
 187 3 174 -25 174 -59 c 0
 174 -92 186 -120 211 -143 c 0
 236 -166 265 -177 298 -177 c 0
 329 -177 356 -166 379 -144 c 0
 402 -122 413 -94 413 -63 c 2
 413 33 l 1
 489 33 l 1
 489 -74 l 2
 489 -104 499 -129 519 -148 c 0
 539 -167 564 -177 593 -177 c 0
 619 -177 642 -170 663 -155 c 0
 684 -140 694 -119 694 -94 c 0
 694 -50 673 -24 630 -15 c 1
 663 47 l 1
 731 23 765 -24 765 -96 c 0
268 265 m 0
 268 277 263 287 254 296 c 0
 245 305 234 309 222 309 c 0
 209 309 198 305 190 297 c 0
 182 289 178 278 178 265 c 0
 178 253 182 242 191 234 c 0
 200 226 211 222 224 222 c 0
 236 222 246 226 255 234 c 0
 264 242 268 252 268 265 c 0
EndSplineSet
Validated: 1
EndChar

StartChar: uni0B92
Encoding: 53 2962 9
Width: 784
VWidth: 1048
Flags: W
HStem: -251 70<308.086 451.812> -78 78<307.972 375.602 557.047 714> 1 69<230.737 304.349> 43 69<619.6 701.652> 181 70<230.41 304.046> 383 75<318.334 578.143>
VStem: 102 71<156.628 264.137> 178 42<156 170.421> 222 72<-164.845 -89.8585> 316 78<83.0516 167.843> 443 69<36.5826 153.702> 537 68<127.517 157> 716 67<130.592 271.091>
LayerCount: 2
Fore
SplineSet
783 188 m 0xeff8
 783 147 774 114 754 87 c 0
 731 58 700 43 660 43 c 0
 627 43 599 53 574 75 c 0
 549 97 538 124 537 157 c 1
 521 140 512 120 512 100 c 0
 512 73 521 50 539 30 c 0
 557 10 579 0 605 0 c 2
 714 0 l 1
 714 -78 l 1
 591 -78 l 2
 570 -78 554 -96 542 -133 c 0
 528 -176 510 -206 490 -223 c 0
 467 -241 432 -251 385 -251 c 0
 340 -251 303 -242 274 -225 c 0
 239 -204 222 -172 222 -130 c 0
 222 -96 235 -67 260 -43 c 0
 285 -19 314 -7 348 -7 c 0
 357 -7 366 -8 376 -10 c 1
 376 -80 l 1
 369 -77 362 -76 354 -76 c 0
 338 -76 324 -81 312 -91 c 0
 300 -101 294 -114 294 -129 c 0
 294 -147 305 -161 328 -171 c 0
 345 -178 364 -181 386 -181 c 0
 420 -181 444 -172 458 -152 c 0
 460 -150 469 -126 487 -81 c 0
 495 -62 504 -46 516 -34 c 1
 468 -14 443 29 443 95 c 0
 443 137 457 173 486 204 c 0
 515 235 550 251 592 251 c 0
 609 251 626 248 642 243 c 1
 617 229 605 204 605 166 c 0
 605 151 611 138 622 127 c 0
 633 116 646 112 660 112 c 0xdff8
 678 112 693 120 703 136 c 0
 711 150 716 166 716 185 c 0
 716 250 686 301 627 337 c 0
 577 368 518 383 449 383 c 0
 377 383 315 367 263 334 c 0
 203 296 173 243 173 175 c 0
 173 169 175 163 178 156 c 1
 178 185 187 208 205 225 c 0
 223 242 246 251 273 251 c 0
 308 251 337 239 360 214 c 0
 383 189 394 158 394 123 c 0
 394 86 382 56 357 34 c 0
 332 12 301 1 264 1 c 0
 215 1 175 19 144 56 c 0
 116 90 102 132 102 182 c 0
 102 270 139 339 212 390 c 0
 277 435 355 458 446 458 c 0
 536 458 614 436 677 392 c 1
 748 342 783 274 783 188 c 0xeff8
316 125 m 0
 316 139 312 152 303 164 c 0
 294 176 282 181 268 181 c 256
 254 181 243 176 234 164 c 0
 225 152 220 139 220 125 c 0
 220 111 225 99 234 87 c 0
 243 75 254 70 268 70 c 256xeff8
 282 70 294 75 303 87 c 0
 312 99 316 111 316 125 c 0
EndSplineSet
Validated: 1
EndChar

StartChar: uni0B93
Encoding: 54 2963 10
Width: 784
VWidth: 1048
Flags: W
HStem: -252 58<375 437.914> -84 67<287.349 359.343> -78 78<560.938 714> 1 73<229.255 306.564> 43 69<616.515 702.044> 178 73<229.17 306.986> 383 75<316.772 577.82>
VStem: 102 71<156.841 265.681> 178 42<156 167.462> 215 64<-163.6 -92.7545> 316 78<82.5047 169.445> 364 50<-163.609 -89.1537> 443 69<36.0746 153.702> 537 68<123.7 157> 716 67<130.746 271.091>
LayerCount: 2
Fore
SplineSet
783 188 m 0x97ae
 783 148 773 114 753 87 c 0
 730 58 699 43 660 43 c 0
 627 43 599 53 574 75 c 0
 549 97 538 124 537 157 c 1
 521 140 512 120 512 100 c 0
 512 73 521 50 539 30 c 0
 557 10 579 0 605 0 c 2
 714 0 l 1
 714 -78 l 1
 596 -78 l 2xafae
 578 -78 564 -89 555 -111 c 1
 549 -129 543 -147 537 -165 c 1
 511 -223 457 -252 376 -252 c 0
 332 -252 295 -241 265 -220 c 0
 232 -196 215 -164 215 -122 c 0
 215 -92 224 -67 242 -47 c 0
 260 -27 283 -17 313 -17 c 0
 342 -17 366 -27 385 -46 c 0
 404 -65 414 -88 414 -117 c 0
 414 -150 401 -176 375 -194 c 1
 418 -194 449 -174 468 -135 c 1
 474 -117 480 -98 487 -80 c 0
 495 -58 506 -43 521 -34 c 1
 469 -12 443 31 443 95 c 0
 443 137 458 173 487 204 c 0
 516 235 551 251 592 251 c 0
 609 251 626 248 642 243 c 1
 617 229 605 203 605 166 c 0
 605 152 611 139 622 128 c 0
 633 117 646 112 660 112 c 0xcf5e
 678 112 693 120 703 136 c 0
 711 150 716 166 716 185 c 0
 716 250 686 301 627 337 c 0
 576 368 517 383 449 383 c 0
 377 383 315 367 263 334 c 0
 203 296 173 243 173 175 c 0
 173 169 175 163 178 156 c 1
 178 184 187 206 205 224 c 0
 223 242 246 251 273 251 c 0
 308 251 337 239 360 214 c 0
 383 189 394 158 394 123 c 0
 394 87 382 58 357 35 c 0
 332 12 301 1 264 1 c 0
 216 1 176 19 145 56 c 0
 116 91 102 133 102 182 c 0
 102 269 139 339 213 390 c 0
 278 435 355 458 446 458 c 0
 536 458 614 436 677 392 c 1
 748 342 783 274 783 188 c 0x97ae
316 126 m 0
 316 139 312 151 302 162 c 0
 292 173 281 178 268 178 c 256
 255 178 244 173 234 162 c 0
 224 151 220 139 220 126 c 0
 220 112 224 101 234 90 c 0
 244 79 255 74 268 74 c 256x97ae
 281 74 292 79 302 90 c 0
 312 101 316 112 316 126 c 0
364 -126 m 0xc75e
 364 -114 360 -104 351 -96 c 0
 342 -88 333 -84 321 -84 c 0
 310 -84 300 -88 291 -96 c 0
 282 -104 279 -114 279 -126 c 0
 279 -153 293 -167 321 -167 c 0
 350 -167 364 -153 364 -126 c 0xc75e
EndSplineSet
Validated: 1
EndChar

StartChar: uni0B94
Encoding: 55 2964 11
Width: 1552
VWidth: 1048
Flags: W
HStem: -252 58<375 437.914> -84 67<287.349 359.343> -78 78<560.938 714> 1 73<229.255 306.564> 43 69<616.515 702.044 985.111 1059.4> 178 73<229.17 306.986> 211 60<986.01 1057.92> 390 63<337.573 557.545 1248 1372 1440 1550> 398 66<979.296 1137.36>
VStem: 102 71<156.841 265.681> 178 42<156 167.462> 215 64<-163.6 -92.7545> 316 78<82.5047 169.445> 364 50<-163.609 -89.1537> 443 69<36.0746 153.702> 537 68<123.7 157> 716 67<130.746 271.091> 845 62<157.523 321.574> 929 47<152.118 200.281> 1068 67<116.974 199.807> 1183 65<50 355.875> 1372 68<50 390>
LayerCount: 2
Fore
SplineSet
1550 390 m 1x8143fc
 1440 390 l 1
 1440 50 l 1
 1372 50 l 1
 1372 390 l 1
 1248 390 l 1x8143fc
 1248 50 l 1
 1183 50 l 1
 1183 294 l 2
 1183 326 1170 352 1143 372 c 0
 1118 390 1090 398 1057 398 c 0
 1013 398 977 382 949 350 c 0
 921 318 907 278 907 234 c 0
 907 203 916 176 933 152 c 1
 931 157 l 1
 930 163 929 168 929 171 c 0
 929 200 938 224 956 243 c 0
 974 262 997 271 1026 271 c 0
 1059 271 1085 261 1105 238 c 0
 1125 215 1135 188 1135 155 c 0
 1135 121 1124 93 1102 71 c 0
 1080 49 1052 39 1018 39 c 0
 964 39 921 60 889 102 c 0
 860 140 845 188 845 243 c 0
 845 306 863 358 900 400 c 0
 937 442 987 464 1049 464 c 0x82c3fc
 1112 464 1156 442 1183 399 c 1
 1183 453 l 1
 1550 453 l 1
 1550 390 l 1x8143fc
783 188 m 0
 783 148 773 114 753 87 c 0
 730 58 699 43 660 43 c 0
 627 43 599 53 574 75 c 0
 549 97 538 124 537 157 c 1
 521 140 512 120 512 100 c 0
 512 73 521 50 539 30 c 0
 557 10 579 0 605 0 c 2
 714 0 l 1
 714 -78 l 1
 596 -78 l 2xa96bfc
 578 -78 564 -89 555 -111 c 1
 549 -129 543 -147 537 -165 c 1
 511 -223 457 -252 376 -252 c 0
 332 -252 295 -241 265 -220 c 0
 232 -196 215 -164 215 -122 c 0
 215 -92 224 -67 242 -47 c 0
 260 -27 283 -17 313 -17 c 0
 342 -17 366 -27 385 -46 c 0
 404 -65 414 -88 414 -117 c 0
 414 -150 401 -176 375 -194 c 1
 418 -194 449 -174 468 -135 c 1
 474 -117 480 -98 487 -80 c 0
 495 -58 506 -43 521 -34 c 1
 469 -12 443 31 443 95 c 0
 443 137 458 173 487 204 c 0
 516 235 551 251 592 251 c 0
 609 251 626 248 642 243 c 1
 617 229 605 203 605 166 c 0
 605 152 611 139 622 128 c 0
 633 117 646 112 660 112 c 0xcc57fc
 678 112 693 120 703 136 c 0
 711 150 716 166 716 185 c 0
 716 250 686 301 627 337 c 0
 576 368 517 383 449 383 c 0
 377 383 315 367 263 334 c 0
 203 296 173 243 173 175 c 0
 173 169 175 163 178 156 c 1
 178 184 187 206 205 224 c 0
 223 242 246 251 273 251 c 0
 308 251 337 239 360 214 c 0
 383 189 394 158 394 123 c 0
 394 87 382 58 357 35 c 0
 332 12 301 1 264 1 c 0x946bfc
 216 1 176 19 145 56 c 0
 116 91 102 133 102 182 c 0
 102 269 139 339 213 390 c 0
 278 435 355 458 446 458 c 0
 536 458 614 436 677 392 c 1
 748 342 783 274 783 188 c 0
1068 158 m 0
 1068 173 1064 186 1056 196 c 0
 1048 206 1036 211 1022 211 c 256x8243fc
 1008 211 996 206 988 196 c 0
 980 186 976 173 976 158 c 0
 976 144 980 131 988 121 c 0
 996 111 1008 105 1022 105 c 256
 1036 105 1048 111 1056 121 c 0
 1064 131 1068 144 1068 158 c 0
316 126 m 0x946bfc
 316 139 312 151 302 162 c 0
 292 173 281 178 268 178 c 256
 255 178 244 173 234 162 c 0
 224 151 220 139 220 126 c 0
 220 112 224 101 234 90 c 0
 244 79 255 74 268 74 c 256
 281 74 292 79 302 90 c 0
 312 101 316 112 316 126 c 0x946bfc
364 -126 m 0xc057fc
 364 -114 360 -104 351 -96 c 0
 342 -88 333 -84 321 -84 c 0
 310 -84 300 -88 291 -96 c 0
 282 -104 279 -114 279 -126 c 0
 279 -153 293 -167 321 -167 c 0
 350 -167 364 -153 364 -126 c 0xc057fc
EndSplineSet
Validated: 1
EndChar

StartChar: uni0B95
Encoding: 56 2965 12
Width: 641
VWidth: 1048
Flags: W
HStem: -12 63<227.575 364.162 479.664 560.191> 190 73<183.18 219 290 391 460 559.887> 378 71<290 391 460 591>
VStem: 105 71<96.1747 182.152> 219 71<263 378> 391 69<77.4912 190 263 378> 570 70<58.8182 180.307>
LayerCount: 2
Fore
SplineSet
640 125 m 0
 640 34 601 -12 524 -12 c 0
 500 -12 479 -8 460 1 c 1
 486 61 l 1
 498 54 509 51 521 51 c 0
 554 51 570 75 570 122 c 0
 570 168 552 190 514 190 c 2
 460 190 l 1
 460 136 l 2
 460 88 445 51 414 24 c 1
 385 0 346 -12 297 -12 c 0
 250 -12 207 3 168 33 c 0
 126 65 105 103 105 148 c 0
 105 225 143 264 219 263 c 1
 219 449 l 1
 591 449 l 1
 591 378 l 1
 460 378 l 1
 460 263 l 1
 519 263 l 2
 559 263 589 250 611 223 c 1
 630 198 640 166 640 125 c 0
391 263 m 1
 391 378 l 1
 290 378 l 1
 290 263 l 1
 391 263 l 1
391 133 m 1
 391 134 l 1
 391 190 l 1
 239 190 l 2
 197 190 176 176 176 147 c 0
 176 121 190 99 217 80 c 0
 242 63 269 54 297 54 c 0
 356 54 388 80 391 133 c 1
EndSplineSet
Validated: 33
EndChar

StartChar: uni0B99
Encoding: 57 2969 13
Width: 713
VWidth: 1048
Flags: W
HStem: 0 66<285 459.295 523 641> 211 71<368.39 465.164> 375 74<175 285 355 517>
VStem: 103 72<0 375> 285 70<106 196.992 248 375> 483 77<90.0645 192.471> 641 73<66 447>
LayerCount: 2
Fore
SplineSet
714 0 m 1
 285 0 l 1
 285 66 l 1
 407 66 l 2
 427 66 445 73 460 89 c 0
 475 105 483 123 483 143 c 0
 483 162 477 178 465 191 c 0
 453 204 437 211 418 211 c 0
 403 211 388 206 375 195 c 0
 362 184 355 171 355 157 c 2
 355 106 l 1
 285 106 l 1
 285 375 l 1
 175 375 l 1
 175 0 l 1
 103 0 l 1
 103 449 l 1
 517 449 l 1
 517 375 l 1
 355 375 l 1
 355 248 l 1
 374 271 400 282 431 282 c 0
 471 282 502 270 525 245 c 0
 548 220 560 190 560 152 c 0
 560 119 548 91 523 66 c 1
 641 66 l 1
 641 447 l 1
 714 447 l 1
 714 0 l 1
EndSplineSet
Validated: 1
EndChar

StartChar: uni0B9A
Encoding: 58 2970 14
Width: 588
VWidth: 1048
Flags: W
HStem: -12 66<220.811 362.249> 190 73<182.821 214 285 386 455 590> 378 71<285 386 455 581>
VStem: 105 71<94.1216 182.672> 214 71<263 378> 386 69<77.4912 190 263 378>
LayerCount: 2
Fore
SplineSet
590 190 m 1
 455 190 l 1
 455 136 l 2
 455 88 440 51 409 24 c 1
 380 0 341 -12 292 -12 c 0
 245 -12 203 3 165 33 c 0
 125 64 105 102 105 148 c 0
 105 225 142 264 214 263 c 1
 214 449 l 1
 581 449 l 1
 581 378 l 1
 455 378 l 1
 455 263 l 1
 590 263 l 1
 590 190 l 1
386 263 m 1
 386 378 l 1
 285 378 l 1
 285 263 l 1
 386 263 l 1
386 133 m 1
 386 134 l 1
 386 190 l 1
 233 190 l 2
 195 190 176 176 176 147 c 0
 176 120 189 98 215 80 c 0
 238 63 264 54 292 54 c 0
 351 54 383 80 386 133 c 1
EndSplineSet
Validated: 33
EndChar

StartChar: uni0B9C
Encoding: 59 2972 15
Width: 764
VWidth: 1048
Flags: W
HStem: -247 70<222.089 362.891 573.451 675.057> -16 68<549.249 670.886> 62 71<225.236 634.117> 157 65<187.466 258.45> 309 53<200.411 261.499> 387 72<214.979 384.125 515.589 652.672>
VStem: 103 71<-128.784 10.7591 232.072 299.017> 268 74<231.174 302.547> 413 76<170 358.345> 490 73<-164.329 -126> 695 70<-154.85 -39.7085 193.927 342.846>
LayerCount: 2
Fore
SplineSet
765 -94 m 0
 765 -135 753 -171 728 -200 c 1
 703 -231 671 -247 633 -247 c 256
 595 -247 562 -236 535 -214 c 0
 506 -190 490 -161 490 -126 c 1
 563 -126 l 1
 563 -141 569 -153 582 -163 c 0
 595 -173 610 -178 627 -178 c 0
 647 -178 663 -170 676 -154 c 0
 689 -138 695 -119 695 -97 c 0
 695 -77 688 -58 674 -41 c 0
 660 -24 645 -16 627 -16 c 0
 579 -16 539 -36 508 -76 c 1
 483 -113 457 -149 432 -187 c 1
 398 -227 352 -247 294 -247 c 0
 241 -247 196 -228 159 -190 c 0
 122 -152 103 -108 103 -55 c 0
 103 -3 122 41 159 78 c 0
 196 115 241 133 293 133 c 2
 555 133 l 2
 595 133 628 146 654 171 c 0
 680 196 693 228 693 268 c 0
 693 301 685 329 667 351 c 0
 647 375 621 387 588 387 c 0
 522 387 489 357 489 296 c 2
 489 170 l 1
 413 170 l 1
 413 296 l 2
 413 358 374 389 296 389 c 0
 254 389 223 376 200 351 c 1
 213 359 226 362 240 362 c 0
 268 362 292 353 312 334 c 0
 332 315 342 292 342 264 c 0
 342 232 331 206 309 186 c 0
 287 166 259 157 226 157 c 0
 191 157 162 169 139 194 c 0
 116 219 105 249 105 285 c 0
 105 336 125 378 163 411 c 0
 199 442 243 458 296 458 c 0
 364 458 414 439 446 403 c 1
 475 440 522 459 583 459 c 0
 635 459 678 440 713 403 c 0
 748 366 765 322 765 270 c 0
 765 211 748 163 714 124 c 0
 679 83 631 62 574 62 c 2
 296 62 l 2
 263 62 234 51 210 27 c 0
 186 3 174 -25 174 -58 c 256
 174 -91 185 -120 208 -143 c 0
 231 -166 260 -177 294 -177 c 0
 336 -177 370 -158 399 -118 c 0
 438 -63 438 -62 477 -7 c 1
 515 33 565 52 627 52 c 0
 665 52 697 38 724 9 c 0
 751 -20 765 -54 765 -94 c 0
268 265 m 0
 268 277 263 287 254 296 c 0
 245 305 234 309 222 309 c 0
 209 309 198 305 190 297 c 0
 182 289 178 278 178 265 c 0
 178 253 182 242 191 234 c 0
 200 226 211 222 224 222 c 0
 236 222 246 226 255 234 c 0
 264 242 268 252 268 265 c 0
EndSplineSet
Validated: 1
EndChar

StartChar: uni0B9E
Encoding: 60 2974 16
Width: 971
VWidth: 1048
Flags: W
HStem: -254 63<422.531 714.806> -11 69<405.997 484.489> 180 65<404.541 485.16> 208 72<749.365 860.327> 379 71<400.768 669 738 924>
VStem: 102 67<44.6942 318.282> 249 69<119.407 295.723> 343 48<110.383 165.794> 499 69<74.058 164.94> 669 69<6 197.453 242 379> 900 73<-21.1817 165.946>
LayerCount: 2
Fore
SplineSet
973 78 m 0xdfe0
 973 31 962 -14 941 -58 c 0
 909 -126 857 -177 786 -210 c 0
 724 -239 651 -254 568 -254 c 0
 436 -254 326 -215 239 -139 c 0
 148 -60 102 45 102 176 c 0
 102 306 136 401 203 460 c 1
 252 413 l 1
 197 362 169 283 169 179 c 0
 169 67 208 -23 286 -92 c 0
 361 -158 455 -191 568 -191 c 0
 716 -191 817 -140 871 -36 c 0
 890 2 900 40 900 79 c 0
 900 114 893 143 877 167 c 0
 859 194 832 208 799 208 c 0
 785 208 771 204 758 196 c 0
 745 188 738 176 738 162 c 2
 738 6 l 1
 669 6 l 1
 669 379 l 1
 485 379 l 2
 437 379 397 362 366 330 c 0
 335 298 318 257 318 208 c 0xdfe0
 318 173 327 141 345 110 c 1
 344 118 343 126 343 134 c 0
 343 166 353 193 373 214 c 0
 393 235 419 245 450 245 c 0xefe0
 485 245 514 232 536 207 c 0
 558 182 568 152 568 116 c 0
 568 78 556 48 532 24 c 0
 508 0 478 -11 440 -11 c 0
 381 -11 334 11 298 57 c 0
 265 99 249 151 249 211 c 0
 249 281 270 339 314 383 c 0
 358 427 415 450 486 450 c 2
 924 450 l 1
 924 379 l 1
 738 379 l 1
 738 242 l 1
 752 267 775 280 808 280 c 0
 860 280 901 258 932 216 c 0
 959 178 973 133 973 78 c 0xdfe0
499 120 m 256
 499 136 494 150 484 162 c 0
 474 174 461 180 445 180 c 0xefe0
 429 180 416 175 406 163 c 0
 396 151 391 137 391 120 c 0
 391 104 396 89 406 77 c 0
 416 65 429 58 445 58 c 0
 461 58 474 65 484 77 c 0
 494 89 499 104 499 120 c 256
EndSplineSet
Validated: 1
EndChar

StartChar: uni0B9F
Encoding: 61 2975 17
Width: 640
VWidth: 1048
Flags: W
HStem: -1 72<175 639>
VStem: 103 72<71 451>
LayerCount: 2
Fore
SplineSet
639 -1 m 1
 103 -1 l 1
 103 451 l 1
 175 451 l 1
 175 71 l 1
 639 71 l 1
 639 -1 l 1
EndSplineSet
Validated: 1
EndChar

StartChar: uni0BA3
Encoding: 62 2979 18
Width: 1324
VWidth: 1048
Flags: W
HStem: -11 74<250.134 335.607 541.274 619.874 863.593 937.625> -1 21G<1107 1182> 180 65<250.628 332.946> 381 70<959.268 1107 1182 1322> 393 68<297.515 499.85 648.857 835.739>
VStem: 106 71<113.556 288.421> 191 47<113.438 165.695> 345 70<69.9817 168.947> 452 71<79.3125 281.561> 638 76<79.2703 270.846> 774 72<78.4234 280.185> 955 77<77.6625 279.673> 1107 75<-1 381>
LayerCount: 2
Fore
SplineSet
1322 381 m 1x37f8
 1182 381 l 1
 1182 -1 l 1
 1107 -1 l 1
 1107 381 l 1
 1020 381 l 2x77f8
 994 381 973 374 958 361 c 1
 1007 308 1032 245 1032 169 c 0
 1032 49 991 -11 908 -11 c 0
 861 -11 826 10 802 53 c 0
 784 87 774 129 774 180 c 0
 774 255 798 317 845 365 c 1
 817 384 781 393 739 393 c 0
 693 393 659 382 636 361 c 1
 688 304 714 241 714 169 c 0
 714 120 705 79 688 48 c 1
 665 8 632 -11 586 -11 c 0
 539 -11 503 10 480 53 c 0
 461 87 452 129 452 180 c 0
 452 251 474 311 519 362 c 1
 483 381 443 391 399 391 c 0
 340 391 289 374 246 341 c 0
 200 306 177 259 177 201 c 0
 177 165 184 136 198 113 c 1
 194 125 191 135 191 144 c 0
 191 173 202 198 222 217 c 0
 242 236 267 245 296 245 c 0
 331 245 360 232 382 207 c 0
 404 182 415 152 415 116 c 0
 415 78 403 48 379 24 c 0
 355 0 325 -11 287 -11 c 0
 232 -11 188 9 154 51 c 0
 123 89 106 137 106 193 c 0
 106 276 134 341 191 390 c 1
 246 436 315 460 399 460 c 0
 462 460 519 443 570 410 c 1
 621 444 675 461 733 461 c 0xaff8
 794 461 850 445 899 412 c 1
 900 412 l 1
 934 438 974 451 1020 451 c 2
 1322 451 l 1
 1322 381 l 1x37f8
955 174 m 0
 955 237 937 288 902 325 c 1
 864 292 846 242 846 174 c 0
 846 100 864 63 902 63 c 0xa7f8
 937 63 955 100 955 174 c 0
638 174 m 0
 638 231 618 282 577 325 c 1
 542 294 523 243 523 174 c 0
 523 100 542 63 580 63 c 0
 619 63 638 100 638 174 c 0
345 120 m 256
 345 136 340 150 330 162 c 0
 320 174 308 180 292 180 c 0
 276 180 262 174 252 162 c 0
 242 150 238 136 238 120 c 256
 238 104 242 89 252 77 c 0
 262 65 276 58 292 58 c 0
 308 58 320 65 330 77 c 0
 340 89 345 104 345 120 c 256
EndSplineSet
Validated: 1
EndChar

StartChar: uni0BA4
Encoding: 63 2980 19
Width: 636
VWidth: 1048
Flags: W
HStem: -113 66<173.423 495.143> -12 66<215.811 357.324> 190 73<177.821 209 280 381 450 531.639> 378 71<280 381 450 581>
VStem: 88 72<-202.083 -121.311> 100 71<94.4875 182.672> 209 71<263 378> 381 69<77.6187 190 263 378> 563 74<17.6782 159.548>
LayerCount: 2
Fore
SplineSet
637 89 m 0xf780
 637 28 614 -21 570 -59 c 0
 528 -94 477 -113 415 -113 c 2
 204 -113 l 2
 192 -113 182 -116 173 -124 c 0
 164 -132 160 -143 160 -156 c 0
 160 -174 167 -185 183 -190 c 1
 136 -237 l 1
 104 -217 88 -188 88 -150 c 0
 88 -121 99 -97 120 -77 c 0
 141 -57 167 -47 196 -47 c 2
 417 -47 l 2
 457 -47 491 -34 520 -7 c 0
 549 20 563 53 563 93 c 0
 563 122 555 146 537 164 c 0
 519 182 495 190 465 190 c 1
 462 191 458 191 450 190 c 1
 450 136 l 2
 450 88 435 51 405 26 c 0
 375 1 336 -12 287 -12 c 0
 240 -12 198 3 160 33 c 0xfb80
 120 65 100 103 100 148 c 0
 100 225 137 264 209 263 c 1
 209 449 l 1
 581 449 l 1
 581 378 l 1
 450 378 l 1
 450 263 l 1
 483 263 l 2
 529 263 568 246 597 211 c 1
 624 178 637 137 637 89 c 0xf780
381 263 m 1
 381 378 l 1
 280 378 l 1
 280 263 l 1
 381 263 l 1
381 133 m 1
 381 134 l 1
 381 190 l 1
 228 190 l 2
 190 190 171 176 171 147 c 0xf780
 171 120 184 98 210 80 c 0
 233 63 259 54 287 54 c 0
 346 54 378 80 381 133 c 1
EndSplineSet
Validated: 33
EndChar

StartChar: uni0BA8
Encoding: 64 2984 20
Width: 588
VWidth: 1048
Flags: W
HStem: -113 66<163.423 444.596> 208 72<369.696 475.057> 378 74<177 284 354 530>
VStem: 78 72<-202.083 -121.311> 103 74<3 378> 284 70<3 195.622 244 378> 513 75<18.4326 166.962>
LayerCount: 2
Fore
SplineSet
588 86 m 0xee
 588 26 565 -22 520 -60 c 0
 478 -95 426 -113 364 -113 c 2
 194 -113 l 2
 182 -113 172 -116 163 -124 c 0
 154 -132 150 -143 150 -156 c 0
 150 -174 157 -185 173 -190 c 1
 126 -237 l 1
 94 -217 78 -188 78 -150 c 0xf6
 78 -121 89 -97 110 -77 c 0
 131 -57 156 -47 185 -47 c 2
 366 -47 l 2
 404 -47 438 -34 468 -7 c 0
 498 20 513 51 513 89 c 0
 513 121 504 148 488 171 c 0
 470 196 446 208 416 208 c 0
 400 208 386 204 373 196 c 0
 360 188 354 176 354 162 c 2
 354 3 l 1
 284 3 l 1
 284 378 l 1
 177 378 l 1
 177 3 l 1
 103 3 l 1
 103 452 l 1
 530 452 l 1
 530 378 l 1
 354 378 l 1
 354 244 l 1
 370 268 395 280 428 280 c 0
 474 280 513 261 543 222 c 0
 573 183 588 138 588 86 c 0xee
EndSplineSet
Validated: 1
EndChar

StartChar: uni0BA9
Encoding: 65 2985 21
Width: 961
VWidth: 1048
Flags: W
HStem: -11 69<251.237 332.565 544.694 616.424> 180 65<250.542 332.946> 381 69<641.659 785 859 964> 391 69<290.387 504.929>
VStem: 106 71<113.931 286.17> 345 70<69.9817 168.947> 452 71<79.3125 276.131> 638 76<79.2703 274.597> 785 74<3 381>
LayerCount: 2
Fore
SplineSet
964 381 m 1xef80
 859 381 l 1
 859 3 l 1
 785 3 l 1
 785 381 l 1
 697 381 l 2xef80
 673 381 655 374 641 361 c 1
 668 332 687 303 698 274 c 0
 709 245 714 210 714 169 c 0
 714 120 705 79 688 48 c 1
 665 8 632 -11 586 -11 c 0
 539 -11 503 10 480 53 c 0
 461 87 452 129 452 180 c 0
 452 251 474 311 519 362 c 1
 482 381 442 391 399 391 c 0
 336 391 283 373 241 337 c 0
 199 301 177 256 177 201 c 0
 177 166 184 136 198 113 c 1
 196 118 194 125 193 137 c 0
 191 167 199 193 219 214 c 0
 239 235 265 245 296 245 c 0
 331 245 360 232 382 207 c 0
 404 182 415 152 415 116 c 0
 415 78 403 48 379 24 c 0
 355 0 325 -11 287 -11 c 0
 232 -11 187 9 154 51 c 0
 123 90 106 138 106 193 c 0
 106 273 133 337 187 386 c 0
 241 435 311 460 399 460 c 0xdf80
 462 460 519 444 570 411 c 1
 605 436 645 449 689 450 c 1
 689 450 689 450 697 450 c 2
 964 450 l 1
 964 381 l 1xef80
638 174 m 0
 638 233 620 283 582 323 c 1
 543 290 523 240 523 174 c 0
 523 100 542 63 580 63 c 0
 619 63 638 100 638 174 c 0
345 120 m 256
 345 136 340 150 330 162 c 0
 320 174 308 180 292 180 c 0
 276 180 262 174 252 162 c 0
 242 150 238 136 238 120 c 256
 238 104 242 89 252 77 c 0
 262 65 276 58 292 58 c 0
 308 58 320 65 330 77 c 0
 340 89 345 104 345 120 c 256
EndSplineSet
Validated: 33
EndChar

StartChar: uni0BAA
Encoding: 66 2986 22
Width: 604
VWidth: 1048
Flags: W
HStem: -1 72<175 530>
VStem: 103 72<71 451> 530 72<71 451>
LayerCount: 2
Fore
SplineSet
602 -1 m 1
 103 -1 l 1
 103 451 l 1
 175 451 l 1
 175 71 l 1
 530 71 l 1
 530 451 l 1
 602 451 l 1
 602 -1 l 1
EndSplineSet
Validated: 1
EndChar

StartChar: uni0BAE
Encoding: 67 2990 23
Width: 724
VWidth: 1048
Flags: W
HStem: 0 74<178 358 437 618.284> 389 73<451.577 559.626>
VStem: 104 74<74 449> 358 79<74 374.132> 642 83<97.297 283.927>
LayerCount: 2
Fore
SplineSet
725 185 m 0
 725 129 709 85 678 51 c 0
 647 17 604 0 548 0 c 2
 104 0 l 1
 104 449 l 1
 178 449 l 1
 178 74 l 1
 358 74 l 1
 358 325 l 2
 358 363 371 394 397 421 c 0
 423 448 456 462 494 462 c 0
 561 462 617 432 662 372 c 1
 704 317 725 254 725 185 c 0
642 179 m 0
 642 225 630 269 605 313 c 0
 576 364 541 389 498 389 c 0
 481 389 467 383 455 371 c 0
 443 359 437 345 437 328 c 2
 437 74 l 1
 563 74 l 2
 616 74 642 109 642 179 c 0
EndSplineSet
Validated: 1
EndChar

StartChar: uni0BAF
Encoding: 68 2991 24
Width: 635
VWidth: 1048
Flags: W
HStem: -10 70<194.765 277.462 368 567>
VStem: 103 75<80.6116 450> 294 74<82.7039 450> 567 70<61 450>
LayerCount: 2
Fore
SplineSet
637 -3 m 1
 304 -3 l 1
 304 36 l 1
 288 5 266 -10 237 -10 c 0
 148 -10 103 32 103 116 c 2
 103 450 l 1
 178 450 l 1
 178 126 l 2
 178 109 183 93 194 80 c 0
 205 67 218 60 234 60 c 0
 252 60 267 67 278 82 c 0
 289 97 294 113 294 131 c 2
 294 450 l 1
 368 450 l 1
 368 61 l 1
 567 61 l 1
 567 450 l 1
 637 450 l 1
 637 -3 l 1
EndSplineSet
Validated: 1
EndChar

StartChar: uni0BB0
Encoding: 69 2992 25
Width: 546
VWidth: 1048
Flags: W
HStem: 1 21G<103 176> 381 71<176 312 384 546>
VStem: 103 73<1 381> 312 72<33.7124 381>
LayerCount: 2
Fore
SplineSet
546 381 m 1
 384 381 l 1
 384 -1 l 1
 338 -15 298 -39 266 -70 c 0
 234 -101 210 -138 194 -181 c 1
 132 -139 l 1
 150 -95 176 -57 208 -26 c 0
 239 3 273 27 312 44 c 1
 312 381 l 1
 176 381 l 1
 176 1 l 1
 103 1 l 1
 103 452 l 1
 546 452 l 1
 546 381 l 1
EndSplineSet
Validated: 1
EndChar

StartChar: uni0BB1
Encoding: 70 2993 26
Width: 617
VWidth: 1048
Flags: W
HStem: -113 67<161.423 455.507> -1 21G<102 179 293 370> 389 73<193.328 277.104 386.17 492.165>
VStem: 77 71<-202.181 -122.246> 102 77<-1 375.673> 293 77<-1 369.389> 548 70<68.4875 317.806>
LayerCount: 2
Fore
SplineSet
618 188 m 0xee
 618 106 599 38 561 -17 c 0
 517 -80 456 -113 378 -113 c 2
 193 -113 l 2
 181 -113 170 -117 161 -125 c 0
 152 -133 148 -144 148 -156 c 0
 148 -174 157 -185 173 -190 c 1
 125 -238 l 1
 93 -218 77 -189 77 -150 c 0xf6
 77 -121 87 -96 109 -76 c 0
 131 -56 155 -46 184 -46 c 2
 380 -46 l 2
 436 -46 479 -19 510 35 c 0
 535 80 548 133 548 194 c 0
 548 242 540 283 526 318 c 0
 506 365 476 389 434 389 c 0
 416 389 402 383 389 370 c 0
 376 357 370 343 370 325 c 2
 370 -1 l 1
 293 -1 l 1
 293 325 l 2
 293 342 287 357 276 370 c 0
 265 383 251 389 234 389 c 0
 218 389 206 382 195 369 c 0
 184 356 179 341 179 325 c 2
 179 -1 l 1
 102 -1 l 1
 102 330 l 2
 102 366 115 397 142 423 c 0
 169 449 201 462 237 462 c 0
 275 462 307 447 332 418 c 1
 357 447 391 462 435 462 c 0
 501 462 550 431 581 369 c 0
 606 321 618 260 618 188 c 0xee
EndSplineSet
Validated: 1
EndChar

StartChar: uni0BB2
Encoding: 71 2994 27
Width: 800
VWidth: 1048
Flags: W
HStem: -11 69<262.997 342.565 563.621 680.167> 180 65<261.631 342.946> 391 70<268.266 435.354>
VStem: 105 69<121.626 299.102> 200 48<109.566 165.294> 355 70<69.9817 168.947> 472 71<87.8474 355.17> 723 77<110.923 340.637>
LayerCount: 2
Fore
SplineSet
800 236 m 0
 800 168 787 112 762 69 c 0
 731 16 683 -11 620 -11 c 0
 576 -11 540 3 513 33 c 0
 486 63 472 99 472 143 c 2
 472 294 l 2
 472 325 460 350 437 368 c 0
 416 384 389 391 357 391 c 0
 305 391 262 373 227 339 c 0
 192 305 174 262 174 210 c 0
 174 170 184 136 204 109 c 1
 201 119 200 127 200 134 c 0
 200 166 209 193 229 214 c 0
 249 235 275 245 306 245 c 0
 341 245 370 232 392 207 c 0
 414 182 425 152 425 116 c 0
 425 78 413 48 389 24 c 0
 365 0 335 -11 297 -11 c 0
 238 -11 191 11 155 57 c 0
 122 99 105 151 105 211 c 0
 105 284 130 344 177 391 c 0
 224 438 284 461 357 461 c 0
 408 461 450 448 484 422 c 1
 523 394 543 355 543 307 c 2
 543 154 l 2
 543 128 548 105 559 87 c 0
 573 64 591 52 616 52 c 0
 655 52 684 73 702 113 c 0
 716 143 723 180 723 224 c 0
 723 318 692 384 629 424 c 1
 677 475 l 1
 759 422 800 342 800 236 c 0
355 120 m 256
 355 136 350 150 340 162 c 0
 330 174 318 180 302 180 c 0
 286 180 273 174 263 162 c 0
 253 150 248 136 248 120 c 256
 248 104 253 89 263 77 c 0
 273 65 286 58 302 58 c 0
 318 58 330 65 340 77 c 0
 350 89 355 104 355 120 c 256
EndSplineSet
Validated: 1
EndChar

StartChar: uni0BB3
Encoding: 72 2995 28
Width: 887
VWidth: 1048
Flags: W
HStem: -11 69<261.063 341.489> 1 21G<482 553 693 766> 180 65<261.631 342.369> 381 68<553 693 766 889> 390 71<256.677 423.737>
VStem: 105 67<121.405 297.779> 200 48<104.537 165.794> 355 70<73.3251 166.139> 482 71<1 337.555> 693 73<1 381>
LayerCount: 2
Fore
SplineSet
889 381 m 1x37c0
 766 381 l 1
 766 1 l 1
 693 1 l 1
 693 381 l 1
 553 381 l 1
 553 1 l 1
 482 1 l 1x77c0
 482 272 l 2
 482 308 467 337 437 359 c 0
 410 379 378 390 340 390 c 0
 291 390 250 372 219 335 c 0
 188 298 172 256 172 206 c 0
 172 166 183 132 206 104 c 1
 202 122 200 133 200 134 c 0
 200 166 209 193 229 214 c 0
 249 235 275 245 306 245 c 0
 341 245 370 232 392 207 c 0
 414 182 425 152 425 116 c 0
 425 78 413 48 389 24 c 0
 365 0 335 -11 297 -11 c 0
 237 -11 189 12 154 58 c 0
 122 101 105 154 105 215 c 0
 105 285 125 342 165 388 c 0
 207 436 263 461 332 461 c 0xafc0
 404 461 454 435 482 383 c 1
 482 449 l 1
 889 449 l 1
 889 381 l 1x37c0
355 120 m 0
 355 137 351 151 341 163 c 0
 331 175 318 180 302 180 c 256
 286 180 273 175 263 163 c 0
 253 151 248 137 248 120 c 256
 248 103 252 89 262 78 c 1
 272 65 286 58 302 58 c 256xa7c0
 318 58 331 65 341 77 c 0
 351 89 355 104 355 120 c 0
EndSplineSet
Validated: 1
EndChar

StartChar: uni0BB4
Encoding: 73 2996 29
Width: 724
VWidth: 1048
GlyphClass: 2
Flags: W
HStem: -295 69<189.88 335.658> -132 78<483.262 610> -115 71<169.688 300> 0 74<178 358 438 617.887> 389 73<451.577 559.626>
VStem: 92 74<-202.354 -119.241> 104 74<74 449> 358 79<-44.8465 0 74 374.132> 642 83<97.297 284.127>
LayerCount: 2
Fore
SplineSet
725 185 m 0xbb80
 725 129 709 85 678 51 c 0
 647 17 603 0 548 0 c 2
 438 0 l 1
 438 -11 l 2
 438 -40 460 -54 504 -54 c 2
 610 -54 l 1
 610 -132 l 1
 532 -132 l 2xdb80
 510 -132 487 -146 462 -174 c 0
 423 -218 398 -245 388 -253 c 0
 352 -281 309 -295 260 -295 c 0
 218 -295 181 -284 148 -261 c 0
 110 -236 92 -204 92 -164 c 0
 92 -129 103 -99 126 -77 c 0
 149 -55 179 -44 214 -44 c 2
 300 -44 l 1
 300 -115 l 1
 211 -115 l 2
 181 -115 166 -129 166 -157 c 0xbd80
 166 -180 177 -197 199 -210 c 0
 217 -221 238 -226 262 -226 c 0
 291 -226 316 -219 336 -204 c 0
 346 -196 362 -179 382 -153 c 0
 401 -129 419 -111 435 -100 c 1
 384 -94 359 -61 359 0 c 1
 104 0 l 1
 104 449 l 1
 178 449 l 1
 178 74 l 1
 358 74 l 1
 358 325 l 2
 358 363 371 394 397 421 c 0
 423 448 456 462 494 462 c 0
 561 462 617 432 662 372 c 1
 704 317 725 254 725 185 c 0xbb80
642 179 m 0
 642 225 630 270 605 313 c 0
 576 364 541 389 498 389 c 0
 481 389 467 383 455 371 c 0
 443 359 437 345 437 328 c 2
 437 74 l 1
 563 74 l 2
 616 74 642 109 642 179 c 0
EndSplineSet
Validated: 1
EndChar

StartChar: uni0BB5
Encoding: 74 2997 30
Width: 825
VWidth: 1048
Flags: W
HStem: -11 69<258.356 340.627> -1 70<566 756> 180 65<258.541 340.756> 391 69<265.832 445.591>
VStem: 102 70<121.027 297.27> 198 48<110.193 166.447> 353 70<69.238 166.139> 541 71<110.258 295.102> 756 70<69 449>
LayerCount: 2
Fore
SplineSet
826 -1 m 1x7f80
 474 -1 l 1x7f80
 470 47 l 1
 517 88 541 140 541 202 c 0
 541 257 523 301 488 337 c 0
 453 373 408 391 354 391 c 0
 303 391 260 373 225 338 c 0
 190 303 172 260 172 209 c 0
 172 174 182 141 200 110 c 1
 199 118 198 126 198 134 c 0
 198 166 207 193 227 214 c 0
 247 235 273 245 304 245 c 0
 340 245 369 232 391 207 c 0
 413 182 423 152 423 116 c 0
 423 78 411 48 387 24 c 0
 363 0 333 -11 295 -11 c 0
 237 -11 190 12 154 58 c 0xbf80
 120 101 102 153 102 212 c 0
 102 285 127 345 174 391 c 0
 221 437 281 460 355 460 c 256
 429 460 490 437 539 390 c 0
 588 343 612 283 612 209 c 0
 612 160 597 113 566 69 c 1
 756 69 l 1
 756 449 l 1
 826 449 l 1
 826 -1 l 1x7f80
353 120 m 256
 353 137 349 151 339 163 c 0
 329 175 316 180 300 180 c 0
 283 180 270 175 260 163 c 0
 250 151 246 137 246 120 c 256
 246 103 250 89 260 78 c 1
 270 65 283 58 300 58 c 0xbf80
 316 58 329 65 339 78 c 1
 349 89 353 103 353 120 c 256
EndSplineSet
Validated: 1
EndChar

StartChar: uni0BB6
Encoding: 75 2998 31
Width: 767
Flags: W
HStem: -7 67<190.785 284.161 597.113 682.295> 370 69<379 506 579 697>
VStem: 101 73<77.6406 439> 307 72<82.9688 370> 506 73<90.7832 370> 697 72<79.08 370>
LayerCount: 2
Fore
SplineSet
769 115 m 2
 769 79.6666666667 756.5 50.5 731.5 27.5 c 0
 706.5 4.5 676 -7 640 -7 c 0
 600.666666667 -7 568.5 6 543.5 32 c 0
 518.5 58 506 90.6666666667 506 130 c 2
 506 370 l 1
 379 370 l 1
 379 130 l 2
 379 90.6666666667 365.5 58 338.5 32 c 0
 311.5 6 278.333333333 -7 239 -7 c 0
 202.333333333 -7 170.666666667 4 144 26 c 0
 115.333333333 50 101 79.6666666667 101 115 c 2
 101 439 l 1
 174 439 l 1
 174 123 l 2
 174 105.666666667 180.833333333 90.8333333333 194.5 78.5 c 0
 208.166666667 66.1666666667 223.666666667 60 241 60 c 0
 261 60 277.333333333 70 290 90 c 0
 301.333333333 107.333333333 307 126.666666667 307 148 c 2
 307 439 l 1
 769 439 l 1
 769 115 l 2
697 123 m 2
 697 370 l 1
 579 370 l 1
 579 148 l 2
 579 126 583.333333333 106.666666667 592 90 c 1
 603.333333333 70 619 60 639 60 c 0
 656.333333333 60 670.333333333 66.1666666667 681 78.5 c 0
 691.666666667 90.8333333333 697 105.666666667 697 123 c 2
EndSplineSet
Validated: 1
EndChar

StartChar: uni0BB7
Encoding: 76 2999 32
Width: 1086
VWidth: 1048
Flags: W
HStem: -11 69<259.494 340.627> -1 72<556 840 913 1002> 133 71<753.256 840 913 963.879> 180 65<258.541 340.756> 390 70<269.128 450.823 721.58 823.175>
VStem: 102 70<121.027 297.616> 198 48<110.383 165.294> 353 70<69.238 166.139> 530 71<111.474 309.499> 628 71<252.362 367.135> 840 73<-227 -1 71 133 208 372.528> 1002 74<71 175> 1018 58<250.547 306>
LayerCount: 2
Fore
SplineSet
1076 -1 m 1x6fe8
 913 -1 l 1
 913 -227 l 1
 840 -227 l 1
 840 -1 l 1
 464 -1 l 1x6fe8
 459 49 l 1
 507 89 530 142 530 207 c 0
 530 263 516 307 486 340 c 0
 456 373 414 390 359 390 c 0
 307 390 264 372 227 338 c 0
 190 304 172 261 172 209 c 0
 172 174 182 141 200 110 c 1
 199 118 198 126 198 134 c 0
 198 166 207 193 227 214 c 0
 247 235 273 245 304 245 c 0
 340 245 369 232 391 207 c 0
 413 182 423 152 423 116 c 0
 423 78 411 48 387 24 c 0
 363 0 333 -11 295 -11 c 0
 237 -11 190 12 154 58 c 0x9fe8
 120 101 102 153 102 212 c 0
 102 285 127 345 177 391 c 0
 227 437 288 460 360 460 c 0
 430 460 489 437 534 391 c 0
 579 345 601 286 601 214 c 0
 601 163 586 116 556 71 c 1
 840 71 l 1
 840 133 l 1
 783 133 733 149 693 181 c 0
 649 215 628 260 628 316 c 0
 628 360 643 395 672 421 c 0
 701 447 738 460 783 460 c 0
 821 460 852 448 877 426 c 0
 902 404 913 375 913 337 c 2
 913 208 l 1
 941 213 965 224 984 240 c 0
 1007 258 1018 280 1018 306 c 1
 1076 306 l 1
 1076 -1 l 1x6fe8
1002 71 m 1x4ff0
 1002 175 l 1
 975 150 946 137 913 135 c 1
 913 71 l 1
 1002 71 l 1x4ff0
840 332 m 2
 840 349 833 363 821 373 c 0
 809 383 794 388 777 388 c 0
 754 388 735 381 721 368 c 0
 707 355 699 337 699 314 c 0
 699 280 714 252 744 231 c 0
 771 213 804 204 840 204 c 1x2fe0
 840 332 l 2
353 120 m 0
 353 137 349 151 339 163 c 0
 329 175 316 180 300 180 c 0
 283 180 270 174 260 162 c 0
 250 150 246 136 246 120 c 0
 246 104 250 89 260 77 c 0
 270 65 283 58 300 58 c 0x9fe0
 316 58 329 65 339 78 c 1
 349 89 353 103 353 120 c 0
EndSplineSet
Validated: 1
EndChar

StartChar: uni0BB8
Encoding: 77 3000 33
Width: 988
VWidth: 1048
Flags: W
HStem: -11 69<256.227 336.192 751.471 874.305> 0 21G<474 545> 180 65<255.654 336.16> 392 69<261.493 438.353 555.036 652.93>
VStem: 99 70<121.027 297.616> 194 49<110.383 165.947> 349 71<73.8016 166.139> 474 71<0 357.125> 665 71<71.022 380.261> 916 72<109.624 341.204>
LayerCount: 2
Fore
SplineSet
988 236 m 0xbfc0
 988 166 976 110 952 68 c 0
 922 15 875 -11 812 -11 c 0xbfc0
 769 -11 734 3 706 33 c 0
 678 63 665 99 665 143 c 2
 665 339 l 2
 665 353 659 365 648 376 c 0
 637 387 623 392 607 392 c 0
 565 393 545 372 545 329 c 2
 545 0 l 1
 474 0 l 1x7fc0
 474 289 l 2
 474 358 432 392 348 392 c 0
 298 392 256 374 221 338 c 0
 186 302 169 260 169 209 c 0
 169 174 179 141 197 110 c 1
 195 118 194 126 194 134 c 0
 194 166 203 193 223 214 c 0
 243 235 269 245 301 245 c 0
 336 245 365 232 387 207 c 0
 409 182 420 152 420 116 c 0
 420 78 408 48 384 24 c 0
 360 0 329 -11 291 -11 c 0
 234 -11 187 12 150 58 c 0
 117 101 99 153 99 212 c 0
 99 278 122 336 166 384 c 0
 213 435 271 460 339 461 c 0
 375 462 408 456 437 444 c 0
 466 432 486 416 496 395 c 1
 500 414 513 430 535 442 c 0
 557 454 580 461 605 461 c 0
 640 461 671 451 697 431 c 0
 723 411 736 385 736 354 c 2
 736 143 l 2
 736 82 761 52 809 52 c 0
 848 52 877 72 895 112 c 0
 909 142 916 179 916 224 c 0
 916 318 884 384 821 424 c 1
 870 475 l 1
 949 423 988 344 988 236 c 0xbfc0
349 120 m 256
 349 137 345 151 335 163 c 0
 325 175 312 180 296 180 c 0
 279 180 266 174 257 162 c 0
 248 150 243 136 243 120 c 256
 243 104 248 89 257 77 c 0
 266 65 279 58 296 58 c 0
 312 58 326 65 336 78 c 0
 345 89 349 103 349 120 c 256
EndSplineSet
Validated: 33
EndChar

StartChar: uni0BB9
Encoding: 78 3001 34
Width: 1209
VWidth: 1048
Flags: W
HStem: -113 67<177.423 1044.51> -11 69<259.494 340.627> -1 72<556 691> 180 65<258.541 340.756> 389 73<266.703 453.096 782.02 865.773 974.67 1081.05>
VStem: 92 72<-202.442 -122.246> 102 70<121.027 297.616> 198 48<110.383 165.294> 353 70<69.238 166.139> 530 71<111.474 309.499> 691 77<71 375.673> 882 76<-1 369.389> 1137 70<68.4875 317.806>
LayerCount: 2
Fore
SplineSet
1207 188 m 0xbbf8
 1207 106 1188 38 1150 -17 c 0
 1106 -80 1045 -113 967 -113 c 2
 208 -113 l 2
 196 -113 186 -117 177 -125 c 0
 168 -133 164 -144 164 -156 c 0
 164 -174 172 -185 188 -190 c 1
 140 -238 l 1
 108 -218 92 -189 92 -150 c 0
 92 -121 102 -96 124 -76 c 0
 146 -56 171 -46 200 -46 c 2
 969 -46 l 2
 1025 -46 1068 -19 1099 35 c 0
 1124 80 1137 133 1137 194 c 0
 1137 242 1129 283 1115 318 c 0
 1095 365 1065 389 1023 389 c 0
 1005 389 990 383 977 370 c 0
 964 357 958 343 958 325 c 2
 958 -1 l 1
 882 -1 l 1
 882 325 l 2
 882 342 876 357 865 370 c 0
 854 383 840 389 823 389 c 0
 807 389 795 382 784 369 c 0
 773 356 768 341 768 325 c 2
 768 -1 l 1
 464 -1 l 1xbdf8
 459 49 l 1
 507 89 530 142 530 207 c 0
 530 263 516 307 486 340 c 0
 456 373 414 390 359 390 c 0
 307 390 264 372 227 338 c 0
 190 304 172 261 172 209 c 0
 172 174 182 141 200 110 c 1
 199 118 198 126 198 134 c 0
 198 166 207 193 227 214 c 0
 247 235 273 245 304 245 c 0
 340 245 369 232 391 207 c 0
 413 182 423 152 423 116 c 0
 423 78 411 48 387 24 c 0
 363 0 333 -11 295 -11 c 0
 237 -11 190 12 154 58 c 0xdbf8
 120 101 102 153 102 212 c 0
 102 285 127 345 177 391 c 0
 227 437 288 460 360 460 c 0
 430 460 489 437 534 391 c 0
 579 345 601 286 601 214 c 0
 601 163 586 116 556 71 c 1
 597 72 642 72 691 71 c 1
 691 330 l 2
 691 366 704 397 731 423 c 0
 758 449 789 462 825 462 c 0
 863 462 896 447 921 418 c 1
 946 447 980 462 1024 462 c 0
 1090 462 1138 431 1169 369 c 0
 1194 321 1207 260 1207 188 c 0xbbf8
353 120 m 256
 353 137 349 151 339 163 c 0
 329 175 316 180 300 180 c 0
 283 180 270 174 260 162 c 0
 250 150 246 136 246 120 c 256
 246 104 250 89 260 77 c 0
 270 65 283 58 300 58 c 0xd9f8
 316 58 329 65 339 78 c 1
 349 89 353 103 353 120 c 256
EndSplineSet
Validated: 33
EndChar

StartChar: uni0BBE
Encoding: 79 3006 35
Width: 531
Flags: W
HStem: 1 19G<100 171 299 369> 372 69<171 299 369 507>
VStem: 100 71<1 372> 299 70<-1 372>
LayerCount: 2
Fore
SplineSet
507 372 m 1
 369 372 l 1
 369 -1 l 1
 299 -1 l 1
 299 372 l 1
 171 372 l 1
 171 1 l 1
 100 1 l 1
 100 441 l 1
 507 441 l 1
 507 372 l 1
55 243 m 1
55 195 m 1
337 -9 m 1
286 -9 m 1
EndSplineSet
Validated: 1
EndChar

StartChar: uni0BBF
Encoding: 80 3007 36
Width: 487
Flags: W
HStem: 439.3 2.7002<-64.892 -63.4941> 633 75<-83.8282 72.2669>
VStem: -192 70<474.167 597.415> 120 75<525 585.56>
LayerCount: 2
Fore
SplineSet
-153.5 413.299804688 m 29,0,-1
1 708 m 4,1,-1
 -107.120117188 708 -192 646.725585938 -192 542 c 4,4,-1
 -192 504.666992188 -179.666992188 472.666992188 -155 446 c 5,7,-1
 -193 441.333984375 -63.5 439.299804688 -63.5 439.299804688 c 29,10,-1
 -63.5 439.299804688 -55.3330078125 440 -62 442 c 4,13,-1
 -92.9140625 455.079101562 -122 495.767578125 -122 538 c 4,16,-1
 -122 603.397460938 -68.10546875 633 1 633 c 4,19,-1
 62.4541015625 633 120 586.420898438 120 525 c 6,22,-1
 120 0 l 5,23,-1
 195 0 l 5,24,-1
 195 530 l 6,25,-1
 195 580.666992188 175.666992188 623 137 657 c 4,28,-1
 98.3330078125 691 53 708 1 708 c 4,1,-1
55 353 m 5,31,-1
EndSplineSet
Validated: 41
EndChar

StartChar: uni0BC0
Encoding: 81 3008 37
Width: 584
Flags: W
HStem: 478 62<62.986 134.915> 651 76<25.0842 134.713>
VStem: -123 70<475.559 611.015> -5 58<548.208 639.584> 145 72<548.054 642.69>
LayerCount: 2
Fore
SplineSet
217 600 m 4
 217 565.333007812 207 536.333007812 187 513 c 4
 167 489.666992188 140 478 106 478 c 4
 74 478 47.5 488.666992188 26.5 510 c 4
 5.5 531.333007812 -5 558 -5 590 c 4
 -5 608 -2 624.666992188 4 640 c 5
 -34 618.666992188 -53 586.333007812 -53 543 c 4
 -53 525 -47.3330078125 505.666992188 -36 485 c 4
 -7.353515625 430.889648438 2 435.400390625 2 435.400390625 c 5
 2 435.400390625 -123 411.393554688 -123 547 c 4
 -123 601.666992188 -103.333007812 646 -64 680 c 4
 -27.3330078125 711.333007812 19 727 75 727 c 4
 115.666992188 727 149.5 715.666992188 176.5 693 c 4
 203.5 670.333007812 217 639.333007812 217 600 c 4
114 353 m 5
-227 357 m 5
337 -9 m 1
286 -9 m 1
145 596 m 4
 145 609.333007812 140.666992188 621.833007812 132 633.5 c 4
 123.333007812 645.166992188 112.333007812 651 99 651 c 260
 85.6669921875 651 74.6669921875 645.166992188 66 633.5 c 4
 57.3330078125 621.833007812 53 609.333007812 53 596 c 4
 53 582 57.3330078125 569.166992188 66 557.5 c 4
 74.6669921875 545.833007812 85.6669921875 540 99 540 c 260
 112.333007812 540 123.333007812 545.833007812 132 557.5 c 4
 140.666992188 569.166992188 145 582 145 596 c 4
EndSplineSet
Validated: 37
EndChar

StartChar: uni0BC1
Encoding: 82 3009 38
Width: 522
Flags: W
HStem: -232 266<-80.5 -1>
VStem: -82 81<-232 34>
LayerCount: 2
Fore
SplineSet
-1 -232 m 5
 -82 -232 l 5
 -82 75.98046875 -80.5 -102 -80.5 34 c 5
 -1 34 l 5
 -1 -232 l 5
EndSplineSet
Validated: 1
EndChar

StartChar: uni0BC2
Encoding: 83 3010 39
Width: 765
Flags: W
HStem: -298 69<-263.762 11.903> -104 69<-326.738 -184.26> 48 77<93.126 181.945>
VStem: -405 75<-181.223 -112.988> -3.5 4.5<136.004 149.4> 1 73<-84 37.6773 81 110 111.222 140> 196 72<-93.9521 33.8425>
LayerCount: 2
Fore
SplineSet
268 -3 m 4xf6
 268 -97 225.333007812 -171.666992188 140 -227 c 4
 66.6669921875 -274.333007812 -20 -298 -120 -298 c 4
 -192.666992188 -298 -253.666992188 -288 -303 -268 c 5
 -371 -239.333007812 -405 -194.333007812 -405 -133 c 4
 -405 -101.666992188 -388.333007812 -76.6669921875 -355 -58 c 4
 -327 -42.6669921875 -296.333007812 -35 -263 -35 c 4
 -185.666992188 -35 -129 -60 -93 -110 c 5
 -145 -155 l 5
 -180.333007812 -121 -222.333007812 -104 -271 -104 c 4
 -281.666992188 -104 -293.333007812 -106.666992188 -306 -112 c 4
 -322 -118.666992188 -330 -126.666992188 -330 -136 c 4
 -330 -168.666992188 -304 -193.666992188 -252 -211 c 4
 -214.666992188 -223 -175 -229 -133 -229 c 4
 -54.3330078125 -229 16.6669921875 -212 80 -178 c 4
 157.333007812 -137.333007812 196 -81.3330078125 196 -10 c 4
 196 7.3330078125 190.666992188 21.3330078125 180 32 c 4
 169.333007812 42.6669921875 155.333007812 48 138 48 c 4
 95.3330078125 48 74 28.6669921875 74 -10 c 6
 74 -84 l 5
 1 -84 l 5
 1 110 l 5
 18.3330078125 137.333007812 -0.3330078125 82.666015625 1 110 c 5xf6
 -3.5 149.400390625 l 5xfa
 -5.44921875 121.127929688 39.7080078125 140 74 140 c 5
 74 81 l 5
 94.6669921875 110.333007812 118 125 144 125 c 4
 181.333007812 125 211.333007812 113 234 89 c 4
 256.666992188 65 268 34.3330078125 268 -3 c 4xf6
EndSplineSet
Validated: 37
EndChar

StartChar: uni0BC6
Encoding: 84 3014 40
Width: 680
Flags: W
HStem: -11 68<382.123 480.206> 1 21G<608 677> 225 67<381.323 480.085> 632 70<314.959 518.882>
VStem: 98 71<225.384 477.857> 286 70<86.0977 199.795> 505 69<82.3909 200.01> 608 69<1 548.146>
LayerCount: 2
Fore
SplineSet
712 243 m 1,0,-1
947 -9 m 1,1,-1
712 195 m 1,2,-1
896 -9 m 1,3,-1
677 1 m 1,4,-1
 608 1 l 1,5,-1
 608 467 l 2,6,-1
 608 517 589 557.666666667 551 589 c 0,9,-1
 515.666666667 617.666666667 472.333333333 632 421 632 c 0,12,-1
 346.333333333 632 285.666666667 606 239 554 c 0,15,-1
 192.333333333 502 169 438.333333333 169 363 c 0,18,-1
 169 302.333333333 180 247.333333333 202 198 c 0,21,-1
 228 139.333333333 265.666666667 99 315 77 c 1,24,-1
 295.666666667 100.333333333 286 127.333333333 286 158 c 0,27,-1
 286 196 301 228 331 254 c 1,30,-1
 359 279.333333333 392.333333333 292 431 292 c 0,33,-1
 475 292 509.833333333 277.333333333 535.5 248 c 0,36,-1
 561.166666667 218.666666667 574 182 574 138 c 0,39,-1
 574 91.3333333333 558.5 54.8333333333 527.5 28.5 c 0,42,-1
 496.5 2.16666666667 457.333333333 -11 410 -11 c 0,45,-1
 313.333333333 -11 236 26.6666666667 178 102 c 0,48,-1
 124.666666667 170.666666667 98 254.666666667 98 354 c 0,51,-1
 98 451.333333333 128 533 188 599 c 0,54,-1
 250 667.666666667 328.666666667 702 424 702 c 0,57,-1
 494.666666667 702 553.666666667 681.666666667 601 641 c 0,60,-1
 651.666666667 598.333333333 677 542.333333333 677 473 c 2,63,-1
 677 1 l 1,4,-1
505 141 m 256,64,-1
 505 162.333333333 497.833333333 181.666666667 483.5 199 c 0,67,-1
 469.166666667 216.333333333 451.666666667 225 431 225 c 0,70,-1
 409.666666667 225 391.833333333 216.333333333 377.5 199 c 0,73,-1
 363.166666667 181.666666667 356 162.333333333 356 141 c 256,76,-1
 356 119.666666667 363.166666667 100.333333333 377.5 83 c 0,79,-1
 391.833333333 65.6666666667 409.666666667 57 431 57 c 0,82,-1
 451.666666667 57 469.166666667 65.6666666667 483.5 83 c 0,85,-1
 497.833333333 100.333333333 505 119.666666667 505 141 c 256,64,-1
EndSplineSet
Validated: 1
EndChar

StartChar: uni0BC7
Encoding: 85 3015 41
Width: 638
Flags: W
HStem: 0 71<315.006 418> 240 73<457.069 544.619> 392 73<462.069 549.578> 634 71<319.603 421.536>
VStem: 100 81<229.406 481.69> 367 72<114.66 223.337 487.503 584.931> 562 72<114.674 223.162 476.903 594.372>
LayerCount: 2
Fore
SplineSet
667 243 m 1,0,-1
902 -9 m 1,1,-1
667 195 m 1,2,-1
851 -9 m 1,3,-1
638 533 m 0,4,-1
 638 493.666666667 625.666666667 460.333333333 601 433 c 0,7,-1
 576.333333333 405.666666667 544.666666667 392 506 392 c 0,10,-1
 466 392 433.666666667 405.833333333 409 433.5 c 0,13,-1
 384.333333333 461.166666667 372 495.333333333 372 536 c 0,16,-1
 372 574.666666667 389 607.333333333 423 634 c 1,19,-1
 347 634 286.666666667 606 242 550 c 0,22,-1
 201.333333333 498.666666667 181 434.333333333 181 357 c 0,25,-1
 181 282.333333333 199.666666667 218 237 164 c 0,28,-1
 279 102 335.333333333 71 406 71 c 0,31,-1
 412 71 412 71 418 71 c 1,34,-1
 384 93 367 125.666666667 367 169 c 0,37,-1
 367 209.666666667 379.333333333 243.833333333 404 271.5 c 0,40,-1
 428.666666667 299.166666667 461 313 501 313 c 0,43,-1
 539.666666667 313 571.5 299 596.5 271 c 0,46,-1
 621.5 243 634 209.333333333 634 170 c 0,49,-1
 634 114.666666667 611.666666667 71.6666666667 567 41 c 0,52,-1
 527.666666667 13.6666666667 479 0 421 0 c 0,55,-1
 323 0 244.333333333 34.3333333333 185 103 c 0,58,-1
 128.333333333 168.333333333 100 251 100 351 c 0,61,-1
 100 449 127.666666667 531.333333333 183 598 c 0,64,-1
 242.333333333 669.333333333 320 705 416 705 c 0,67,-1
 475.333333333 705 525.666666667 691.666666667 567 665 c 0,70,-1
 614.333333333 633.666666667 638 589.666666667 638 533 c 0,4,-1
567 536 m 256,73,-1
 567 554 561.166666667 570.333333333 549.5 585 c 0,76,-1
 537.833333333 599.666666667 523 607 505 607 c 0,79,-1
 487.666666667 607 473.166666667 599.666666667 461.5 585 c 0,82,-1
 449.833333333 570.333333333 444 554 444 536 c 256,85,-1
 444 518 449.833333333 501.666666667 461.5 487 c 0,88,-1
 473.166666667 472.333333333 487.666666667 465 505 465 c 0,91,-1
 523 465 537.833333333 472.333333333 549.5 487 c 0,94,-1
 561.166666667 501.666666667 567 518 567 536 c 256,73,-1
562 169 m 256,97,-1
 562 187 556.166666667 203.333333333 544.5 218 c 0,100,-1
 532.833333333 232.666666667 518 240 500 240 c 0,103,-1
 482.666666667 240 468.166666667 232.666666667 456.5 218 c 0,106,-1
 444.833333333 203.333333333 439 187 439 169 c 256,109,-1
 439 151 444.833333333 134.5 456.5 119.5 c 0,112,-1
 468.166666667 104.5 482.666666667 97 500 97 c 0,115,-1
 518 97 532.833333333 104.5 544.5 119.5 c 0,118,-1
 556.166666667 134.5 562 151 562 169 c 256,97,-1
EndSplineSet
Validated: 1
EndChar

StartChar: uni0BC8
Encoding: 86 3016 42
Width: 891
Flags: W
HStem: -11 68<240.759 318.592 526.176 596.479> 176 63<240.155 318.616> 386 69<287.681 487.991 611.171 751.017>
VStem: 99 69<110.851 283.057> 182 45<110.419 161.917> 332 68<71.7638 161.67> 436 70<76.9717 279.477> 618 74<77.1045 269.879> 821 70<91.9375 306.66>
LayerCount: 2
Fore
SplineSet
891 205 m 0
 891 114.333333333 865.333333333 42.3333333333 814 -11 c 1
 758 32 l 1
 800 73.3333333333 821 131.333333333 821 206 c 0
 821 254.666666667 809 296 785 330 c 0
 758.333333333 367.333333333 721.666666667 386 675 386 c 0
 655 386 633.333333333 380.333333333 610 369 c 1
 664.666666667 321.666666667 692 253.666666667 692 165 c 0
 692 117.666666667 683.333333333 78.3333333333 666 47 c 0
 644 8.33333333333 611 -11 567 -11 c 0
 521.666666667 -11 487.333333333 10 464 52 c 0
 445.333333333 85.3333333333 436 126.666666667 436 176 c 0
 436 252.666666667 455.333333333 314.333333333 494 361 c 1
 464 375 427.666666667 382 385 382 c 0
 326.333333333 382 276.333333333 366 235 334 c 0
 190.333333333 298.666666667 168 252.666666667 168 196 c 0
 168 156.666666667 174.666666667 128 188 110 c 1
 184 120 182 130.333333333 182 141 c 0
 182 169 192 192.333333333 212 211 c 0
 232 229.666666667 256 239 284 239 c 0
 318.666666667 239 346.666666667 226.666666667 368 202 c 0
 389.333333333 177.333333333 400 147.666666667 400 113 c 0
 400 77 388.166666667 47.3333333333 364.5 24 c 0
 340.833333333 0.666666666667 311 -11 275 -11 c 0
 222.333333333 -11 179.333333333 9.33333333333 146 50 c 0
 114.666666667 88 99 134 99 188 c 0
 99 266 127.333333333 330.333333333 184 381 c 0
 238.666666667 429 305.666666667 453 385 453 c 0
 447 453 501.666666667 437.666666667 549 407 c 1
 591 439 632 455 672 455 c 0
 740.666666667 455 795 430 835 380 c 0
 872.333333333 333.333333333 891 275 891 205 c 0
618 170 m 0
 618 234 597.333333333 285 556 323 c 1
 522.666666667 285 506 234 506 170 c 0
 506 98 524.333333333 62 561 62 c 0
 599 62 618 98 618 170 c 0
332 117 m 256
 332 133 327.166666667 146.833333333 317.5 158.5 c 0
 307.833333333 170.166666667 295.333333333 176 280 176 c 0
 264 176 251.166666667 170.166666667 241.5 158.5 c 0
 231.833333333 146.833333333 227 133 227 117 c 256
 227 101 231.833333333 87 241.5 75 c 0
 251.166666667 63 264 57 280 57 c 0
 295.333333333 57 307.833333333 63 317.5 75 c 0
 327.166666667 87 332 101 332 117 c 256
EndSplineSet
Validated: 1
EndChar

StartChar: uni0BCA
Encoding: 87 3018 43
Width: 1566
GlyphClass: 2
Flags: W
HStem: -11 68<382.123 480.206> -9 36<840.233 896 947 1000.23> 1 19G<608 677 1161 1232 1360 1430> 225 67<381.323 480.085> 372 69<1232 1360 1430 1568> 412 36<846.006 896 948 998.72> 632 70<314.959 518.882>
VStem: 98 71<225.384 477.857> 286 70<86.0977 199.795> 505 69<82.3909 200.01> 608 69<1 548.146> 712 35<130.237 195 243 305.057> 1096 35<132.767 195 243 306.352> 1161 71<1 372> 1360 70<-1 372>
LayerCount: 2
Fore
SplineSet
1568 372 m 1x3bfe
 1430 372 l 1
 1430 -1 l 1
 1360 -1 l 1
 1360 372 l 1
 1232 372 l 1
 1232 1 l 1
 1161 1 l 1
 1161 441 l 1
 1568 441 l 1
 1568 372 l 1x3bfe
1062 391 m 1
 1037 366 l 1
 1015 389.333333333 985 404.666666667 947 412 c 1
 948 448 l 1x17fe
 994.666666667 440.666666667 1032.66666667 421.666666667 1062 391 c 1
1131 243 m 1
 1096 243 l 1
 1092 276.333333333 1082.66666667 304.333333333 1068 327 c 1
 1093 353 l 1
 1117 318.333333333 1129.66666667 281.666666667 1131 243 c 1
897 412 m 1
 862.333333333 404.666666667 833.666666667 391 811 371 c 1
 786 396 l 1
 815.333333333 426.666666667 852 444 896 448 c 1
 897 412 l 1
1131 195 m 1
 1128.33333333 154.333333333 1116 118.666666667 1094 88 c 1
 1068 113 l 1
 1085.33333333 139.666666667 1094.66666667 167 1096 195 c 1
 1131 195 l 1
778 332 m 1
 760.666666667 303.333333333 750.333333333 273.666666667 747 243 c 1
 712 243 l 1
 715.333333333 283 728.666666667 321 752 357 c 1
 778 332 l 1
1062 48 m 1
 1032.66666667 17.3333333333 994.333333333 -1.66666666667 947 -9 c 1
 947 27 l 1x53fe
 982.333333333 31.6666666667 1012.33333333 47 1037 73 c 1
 1062 48 l 1
778 107 m 1
 753 82 l 1
 728.333333333 113.333333333 714.666666667 151 712 195 c 1
 747 195 l 1
 749.666666667 161 760 131.666666667 778 107 c 1
897 27 m 1
 896 -9 l 1
 854 -3 817 14.6666666667 785 44 c 1
 810 69 l 1
 830 46.3333333333 859 32.3333333333 897 27 c 1
677 1 m 1x33fe
 608 1 l 1x33fe
 608 467 l 2
 608 517 589 557.666666667 551 589 c 0
 515.666666667 617.666666667 472.333333333 632 421 632 c 0
 346.333333333 632 285.666666667 606 239 554 c 0
 192.333333333 502 169 438.333333333 169 363 c 0
 169 302.333333333 180 247.333333333 202 198 c 0
 228 139.333333333 265.666666667 99 315 77 c 1
 295.666666667 100.333333333 286 127.333333333 286 158 c 0
 286 196 301 228 331 254 c 1
 359 279.333333333 392.333333333 292 431 292 c 0
 475 292 509.833333333 277.333333333 535.5 248 c 0
 561.166666667 218.666666667 574 182 574 138 c 0
 574 91.3333333333 558.5 54.8333333333 527.5 28.5 c 0
 496.5 2.16666666667 457.333333333 -11 410 -11 c 0x93fe
 313.333333333 -11 236 26.6666666667 178 102 c 0
 124.666666667 170.666666667 98 254.666666667 98 354 c 0
 98 451.333333333 128 533 188 599 c 0
 250 667.666666667 328.666666667 702 424 702 c 0
 494.666666667 702 553.666666667 681.666666667 601 641 c 0
 651.666666667 598.333333333 677 542.333333333 677 473 c 2
 677 1 l 1x33fe
505 141 m 256
 505 162.333333333 497.833333333 181.666666667 483.5 199 c 0
 469.166666667 216.333333333 451.666666667 225 431 225 c 0
 409.666666667 225 391.833333333 216.333333333 377.5 199 c 0
 363.166666667 181.666666667 356 162.333333333 356 141 c 256
 356 119.666666667 363.166666667 100.333333333 377.5 83 c 0
 391.833333333 65.6666666667 409.666666667 57 431 57 c 0x93fe
 451.666666667 57 469.166666667 65.6666666667 483.5 83 c 0
 497.833333333 100.333333333 505 119.666666667 505 141 c 256
EndSplineSet
Validated: 1
EndChar

StartChar: uni0B82
Encoding: 42 2946 44
Width: 521
Flags: W
HStem: -9 36<230.233 286 337 390.231> 412 36<236.006 286 338 388.72> 477 66<267.103 358.906> 666 63<266.725 355.568>
VStem: 102 35<130.237 195 243 305.057> 185 66<559.153 650.564> 372 64<556.557 647.904> 486 35<132.767 195 243 306.352>
LayerCount: 2
Fore
SplineSet
436 599 m 0
 436 565.666666667 423.666666667 537 399 513 c 0
 374.333333333 489 345 477 311 477 c 0
 280.333333333 477 251.666666667 489.5 225 514.5 c 0
 198.333333333 539.5 185 567.333333333 185 598 c 0
 185 634.666666667 196.666666667 665.666666667 220 691 c 0
 243.333333333 716.333333333 273.333333333 729 310 729 c 0
 346 729 376 716.333333333 400 691 c 0
 424 665.666666667 436 635 436 599 c 0
452 391 m 1
 427 366 l 1
 405 389.333333333 375 404.666666667 337 412 c 1
 338 448 l 1
 384.666666667 440.666666667 422.666666667 421.666666667 452 391 c 1
521 243 m 1
 486 243 l 1
 482 276.333333333 472.666666667 304.333333333 458 327 c 1
 483 353 l 1
 507 318.333333333 519.666666667 281.666666667 521 243 c 1
287 412 m 1
 252.333333333 404.666666667 223.666666667 391 201 371 c 1
 176 396 l 1
 205.333333333 426.666666667 242 444 286 448 c 1
 287 412 l 1
521 195 m 1
 518.333333333 154.333333333 506 118.666666667 484 88 c 1
 458 113 l 1
 475.333333333 139.666666667 484.666666667 167 486 195 c 1
 521 195 l 1
168 332 m 1
 150.666666667 303.333333333 140.333333333 273.666666667 137 243 c 1
 102 243 l 1
 105.333333333 283 118.666666667 321 142 357 c 1
 168 332 l 1
452 48 m 1
 422.666666667 17.3333333333 384.333333333 -1.66666666667 337 -9 c 1
 337 27 l 1
 372.333333333 31.6666666667 402.333333333 47 427 73 c 1
 452 48 l 1
168 107 m 1
 143 82 l 1
 118.333333333 113.333333333 104.666666667 151 102 195 c 1
 137 195 l 1
 139.666666667 161 150 131.666666667 168 107 c 1
287 27 m 1
 286 -9 l 1
 244 -3 207 14.6666666667 175 44 c 1
 200 69 l 1
 220 46.3333333333 249 32.3333333333 287 27 c 1
372 600 m 0
 372 617.333333333 366.333333333 632.666666667 355 646 c 0
 343.666666667 659.333333333 329.333333333 666 312 666 c 0
 295.333333333 666 281 659.666666667 269 647 c 0
 257 634.333333333 251 619.666666667 251 603 c 0
 251 587 256.833333333 573 268.5 561 c 0
 280.166666667 549 294.333333333 543 311 543 c 0
 327 543 341.166666667 548.5 353.5 559.5 c 0
 365.833333333 570.5 372 584 372 600 c 0
EndSplineSet
Validated: 1
EndChar

StartChar: uni0B83
Encoding: 43 2947 45
Width: 735
Flags: W
HStem: -13 70<182.907 262.428 577.907 657.428> 171 68<184.173 262.608 579.173 657.608> 442 70<379.848 461.697> 626 68<381.162 459.798>
VStem: 107 65<67.1578 159.252> 275 66<70.3307 160.493> 303 66<522.158 615.405> 472 65<522.16 615.277> 502 65<67.1578 159.252> 670 66<70.3307 160.493>
LayerCount: 2
Fore
SplineSet
537 564 m 0xfb40
 537 531.333333333 525.666666667 502.833333333 503 478.5 c 0
 480.333333333 454.166666667 453 442 421 442 c 0
 391.666666667 442 364.666666667 454.666666667 340 480 c 0
 315.333333333 505.333333333 303 533 303 563 c 0
 303 598.333333333 313.666666667 629 335 655 c 0
 356.333333333 681 384.333333333 694 419 694 c 256
 453.666666667 694 482 681.166666667 504 655.5 c 0
 526 629.833333333 537 599.333333333 537 564 c 0xfb40
736 109 m 0
 736 76.3333333333 724.666666667 47.8333333333 702 23.5 c 0
 679.333333333 -0.833333333333 651.666666667 -13 619 -13 c 0
 589.666666667 -13 562.833333333 -0.333333333333 538.5 25 c 0
 514.166666667 50.3333333333 502 78 502 108 c 0xf8c0
 502 143.333333333 512.666666667 174 534 200 c 0
 555.333333333 226 583.333333333 239 618 239 c 256
 652.666666667 239 681 226.166666667 703 200.5 c 0
 725 174.833333333 736 144.333333333 736 109 c 0
341 109 m 0xfc40
 341 76.3333333333 329.666666667 47.8333333333 307 23.5 c 0
 284.333333333 -0.833333333333 256.666666667 -13 224 -13 c 0
 194.666666667 -13 167.833333333 -0.333333333333 143.5 25 c 0
 119.166666667 50.3333333333 107 78 107 108 c 0
 107 143.333333333 117.666666667 174 139 200 c 0
 160.333333333 226 188.333333333 239 223 239 c 256
 257.666666667 239 286 226.166666667 308 200.5 c 0
 330 174.833333333 341 144.333333333 341 109 c 0xfc40
472 565 m 0xfb40
 472 580.333333333 467.333333333 594.333333333 458 607 c 0
 448.666666667 619.666666667 436.333333333 626 421 626 c 0
 406.333333333 626 394 620 384 608 c 0
 374 596 369 582.666666667 369 568 c 256
 369 553.333333333 374 540.333333333 384 529 c 0
 394 517.666666667 406 512 420 512 c 256
 434 512 446.166666667 517.333333333 456.5 528 c 0
 466.833333333 538.666666667 472 551 472 565 c 0xfb40
670 110 m 0
 670 125.333333333 665.333333333 139.333333333 656 152 c 0
 646.666666667 164.666666667 634.666666667 171 620 171 c 256
 605.333333333 171 592.833333333 165 582.5 153 c 0
 572.166666667 141 567 127.666666667 567 113 c 256xf8c0
 567 98.3333333333 572 85.3333333333 582 74 c 0
 592 62.6666666667 604 57 618 57 c 0
 632.666666667 57 645 62.3333333333 655 73 c 0
 665 83.6666666667 670 96 670 110 c 0
275 110 m 0xfc40
 275 125.333333333 270.333333333 139.333333333 261 152 c 0
 251.666666667 164.666666667 239.666666667 171 225 171 c 256
 210.333333333 171 197.833333333 165 187.5 153 c 0
 177.166666667 141 172 127.666666667 172 113 c 256
 172 98.3333333333 177 85.3333333333 187 74 c 0
 197 62.6666666667 209 57 223 57 c 0
 237.666666667 57 250 62.3333333333 260 73 c 0
 270 83.6666666667 275 96 275 110 c 0xfc40
EndSplineSet
Validated: 1
EndChar

StartChar: uni0BCB
Encoding: 88 3019 46
Width: 1520
Flags: W
HStem: -9 36<795.233 851 902 955.231> 0 71<315.006 418> 240 73<457.069 544.619> 372 69<1187 1315 1385 1523> 392 73<462.069 549.578> 412 36<801.006 851 903 953.72> 634 71<319.603 421.536>
VStem: 100 81<229.406 481.69> 367 72<114.66 223.337 487.503 584.931> 562 72<114.674 223.162 476.903 594.372> 667 35<130.237 195 243 305.057> 1051 35<132.767 195 243 306.352> 1116 71<1 372> 1315 70<-1 372>
LayerCount: 2
Fore
SplineSet
1523 372 m 1x33fc
 1385 372 l 1
 1385 -1 l 1
 1315 -1 l 1
 1315 372 l 1
 1187 372 l 1
 1187 1 l 1
 1116 1 l 1
 1116 441 l 1
 1523 441 l 1
 1523 372 l 1x33fc
1017 391 m 1
 992 366 l 1
 970 389.333333333 940 404.666666667 902 412 c 1
 903 448 l 1x27fc
 949.666666667 440.666666667 987.666666667 421.666666667 1017 391 c 1
1086 243 m 1
 1051 243 l 1
 1047 276.333333333 1037.66666667 304.333333333 1023 327 c 1
 1048 353 l 1
 1072 318.333333333 1084.66666667 281.666666667 1086 243 c 1
852 412 m 1
 817.333333333 404.666666667 788.666666667 391 766 371 c 1
 741 396 l 1
 770.333333333 426.666666667 807 444 851 448 c 1
 852 412 l 1
1086 195 m 1
 1083.33333333 154.333333333 1071 118.666666667 1049 88 c 1
 1023 113 l 1
 1040.33333333 139.666666667 1049.66666667 167 1051 195 c 1
 1086 195 l 1
733 332 m 1
 715.666666667 303.333333333 705.333333333 273.666666667 702 243 c 1
 667 243 l 1
 670.333333333 283 683.666666667 321 707 357 c 1
 733 332 l 1
1017 48 m 1
 987.666666667 17.3333333333 949.333333333 -1.66666666667 902 -9 c 1
 902 27 l 1xa3fc
 937.333333333 31.6666666667 967.333333333 47 992 73 c 1
 1017 48 l 1
733 107 m 1
 708 82 l 1
 683.333333333 113.333333333 669.666666667 151 667 195 c 1
 702 195 l 1
 704.666666667 161 715 131.666666667 733 107 c 1
852 27 m 1
 851 -9 l 1
 809 -3 772 14.6666666667 740 44 c 1
 765 69 l 1
 785 46.3333333333 814 32.3333333333 852 27 c 1
638 533 m 0
 638 493.666666667 625.666666667 460.333333333 601 433 c 0
 576.333333333 405.666666667 544.666666667 392 506 392 c 0
 466 392 433.666666667 405.833333333 409 433.5 c 0
 384.333333333 461.166666667 372 495.333333333 372 536 c 0
 372 574.666666667 389 607.333333333 423 634 c 1
 347 634 286.666666667 606 242 550 c 0
 201.333333333 498.666666667 181 434.333333333 181 357 c 0
 181 282.333333333 199.666666667 218 237 164 c 0
 279 102 335.333333333 71 406 71 c 0
 412 71 412 71 418 71 c 1
 384 93 367 125.666666667 367 169 c 0
 367 209.666666667 379.333333333 243.833333333 404 271.5 c 0
 428.666666667 299.166666667 461 313 501 313 c 0
 539.666666667 313 571.5 299 596.5 271 c 0
 621.5 243 634 209.333333333 634 170 c 0
 634 114.666666667 611.666666667 71.6666666667 567 41 c 0
 527.666666667 13.6666666667 479 0 421 0 c 0x6bfc
 323 0 244.333333333 34.3333333333 185 103 c 0
 128.333333333 168.333333333 100 251 100 351 c 0
 100 449 127.666666667 531.333333333 183 598 c 0
 242.333333333 669.333333333 320 705 416 705 c 0
 475.333333333 705 525.666666667 691.666666667 567 665 c 0
 614.333333333 633.666666667 638 589.666666667 638 533 c 0
567 536 m 256
 567 554 561.166666667 570.333333333 549.5 585 c 0
 537.833333333 599.666666667 523 607 505 607 c 0
 487.666666667 607 473.166666667 599.666666667 461.5 585 c 0
 449.833333333 570.333333333 444 554 444 536 c 256
 444 518 449.833333333 501.666666667 461.5 487 c 0
 473.166666667 472.333333333 487.666666667 465 505 465 c 0
 523 465 537.833333333 472.333333333 549.5 487 c 0
 561.166666667 501.666666667 567 518 567 536 c 256
562 169 m 256
 562 187 556.166666667 203.333333333 544.5 218 c 0
 532.833333333 232.666666667 518 240 500 240 c 0
 482.666666667 240 468.166666667 232.666666667 456.5 218 c 0
 444.833333333 203.333333333 439 187 439 169 c 256
 439 151 444.833333333 134.5 456.5 119.5 c 0
 468.166666667 104.5 482.666666667 97 500 97 c 0
 518 97 532.833333333 104.5 544.5 119.5 c 0
 556.166666667 134.5 562 151 562 169 c 256
EndSplineSet
Validated: 1
EndChar

StartChar: uni0BCC
Encoding: 89 3020 47
Width: 1761
Flags: W
HStem: -11 68<382.123 480.206> -9 36<840.233 896 947 1000.23> 1 21G<608 677> 77 58<1281.43 1349.28> 222 53<1281 1349.83> 225 67<381.323 480.085> 372 56<1505 1605 1664 1756> 379 58<1275.44 1414.31> 412 36<846.006 896 948 998.72> 632 70<314.959 518.882>
VStem: 98 71<225.384 477.857> 286 70<86.0977 199.795> 505 69<82.3909 200.01> 608 69<1 548.146> 712 35<130.237 195 243 305.057> 1096 35<132.767 195 243 306.352> 1166 55<181.23 321.057> 1237 41<164.333 218.974> 1353 57<137.896 219.517> 1448 57<87 347.133> 1605 59<87 372>
LayerCount: 2
Fore
SplineSet
1756 372 m 1x127ff8
 1664 372 l 1
 1664 87 l 1
 1605 87 l 1
 1605 372 l 1
 1505 372 l 1x127ff8
 1505 87 l 1
 1448 87 l 1
 1448 293 l 2
 1448 319 1437 340.333333333 1415 357 c 0
 1395 371.666666667 1371.33333333 379 1344 379 c 0
 1308 379 1278.5 365.5 1255.5 338.5 c 0
 1232.5 311.5 1221 279.666666667 1221 243 c 0
 1221 220.333333333 1226.66666667 199.333333333 1238 180 c 1
 1237.33333333 184 1237 187 1237 189 c 0
 1237 213.666666667 1244.5 234.166666667 1259.5 250.5 c 0
 1274.5 266.833333333 1294.33333333 275 1319 275 c 0
 1346.33333333 275 1368.33333333 265.333333333 1385 246 c 0
 1401.66666667 226.666666667 1410 203.333333333 1410 176 c 0
 1410 146.666666667 1400.83333333 122.833333333 1382.5 104.5 c 0
 1364.16666667 86.1666666667 1340.66666667 77 1312 77 c 0
 1266.66666667 77 1230.33333333 95 1203 131 c 0
 1178.33333333 163.666666667 1166 203.333333333 1166 250 c 0
 1166 302.666666667 1181.66666667 347 1213 383 c 0
 1244.33333333 419 1286 437 1338 437 c 0x197ff8
 1388 437 1424.66666667 419.666666667 1448 385 c 1
 1448 428 l 1
 1756 428 l 1
 1756 372 l 1x127ff8
1062 391 m 1
 1037 366 l 1
 1015 389.333333333 985 404.666666667 947 412 c 1
 948 448 l 1x10fff8
 994.666666667 440.666666667 1032.66666667 421.666666667 1062 391 c 1
1131 243 m 1
 1096 243 l 1
 1092 276.333333333 1082.66666667 304.333333333 1068 327 c 1
 1093 353 l 1
 1117 318.333333333 1129.66666667 281.666666667 1131 243 c 1
897 412 m 1
 862.333333333 404.666666667 833.666666667 391 811 371 c 1
 786 396 l 1
 815.333333333 426.666666667 852 444 896 448 c 1
 897 412 l 1
1131 195 m 1
 1128.33333333 154.333333333 1116 118.666666667 1094 88 c 1
 1068 113 l 1
 1085.33333333 139.666666667 1094.66666667 167 1096 195 c 1
 1131 195 l 1
778 332 m 1
 760.666666667 303.333333333 750.333333333 273.666666667 747 243 c 1
 712 243 l 1
 715.333333333 283 728.666666667 321 752 357 c 1
 778 332 l 1
1062 48 m 1
 1032.66666667 17.3333333333 994.333333333 -1.66666666667 947 -9 c 1
 947 27 l 1x507ff8
 982.333333333 31.6666666667 1012.33333333 47 1037 73 c 1
 1062 48 l 1
778 107 m 1
 753 82 l 1
 728.333333333 113.333333333 714.666666667 151 712 195 c 1
 747 195 l 1
 749.666666667 161 760 131.666666667 778 107 c 1
897 27 m 1
 896 -9 l 1
 854 -3 817 14.6666666667 785 44 c 1
 810 69 l 1
 830 46.3333333333 859 32.3333333333 897 27 c 1
677 1 m 1x307ff8
 608 1 l 1x307ff8
 608 467 l 2
 608 517 589 557.666666667 551 589 c 0
 515.666666667 617.666666667 472.333333333 632 421 632 c 0
 346.333333333 632 285.666666667 606 239 554 c 0
 192.333333333 502 169 438.333333333 169 363 c 0
 169 302.333333333 180 247.333333333 202 198 c 0
 228 139.333333333 265.666666667 99 315 77 c 1
 295.666666667 100.333333333 286 127.333333333 286 158 c 0
 286 196 301 228 331 254 c 1
 359 279.333333333 392.333333333 292 431 292 c 0
 475 292 509.833333333 277.333333333 535.5 248 c 0
 561.166666667 218.666666667 574 182 574 138 c 0
 574 91.3333333333 558.5 54.8333333333 527.5 28.5 c 0
 496.5 2.16666666667 457.333333333 -11 410 -11 c 0x947ff8
 313.333333333 -11 236 26.6666666667 178 102 c 0
 124.666666667 170.666666667 98 254.666666667 98 354 c 0
 98 451.333333333 128 533 188 599 c 0
 250 667.666666667 328.666666667 702 424 702 c 0
 494.666666667 702 553.666666667 681.666666667 601 641 c 0
 651.666666667 598.333333333 677 542.333333333 677 473 c 2
 677 1 l 1x307ff8
1353 179 m 0
 1353 207.666666667 1340.33333333 222 1315 222 c 0x187ff8
 1290.33333333 222 1278 207.666666667 1278 179 c 0
 1278 149.666666667 1290.33333333 135 1315 135 c 0
 1340.33333333 135 1353 149.666666667 1353 179 c 0
505 141 m 256
 505 162.333333333 497.833333333 181.666666667 483.5 199 c 0
 469.166666667 216.333333333 451.666666667 225 431 225 c 0
 409.666666667 225 391.833333333 216.333333333 377.5 199 c 0
 363.166666667 181.666666667 356 162.333333333 356 141 c 256
 356 119.666666667 363.166666667 100.333333333 377.5 83 c 0
 391.833333333 65.6666666667 409.666666667 57 431 57 c 0x947ff8
 451.666666667 57 469.166666667 65.6666666667 483.5 83 c 0
 497.833333333 100.333333333 505 119.666666667 505 141 c 256
EndSplineSet
Validated: 1
EndChar

StartChar: uni0BCD
Encoding: 90 3021 48
Width: 522
GlyphClass: 2
Flags: W
HStem: 504 159<-278.586 -186.418>
VStem: -300 135<524.624 642.179>
LayerCount: 2
Fore
SplineSet
-165 584 m 4
 -165 563.333007812 -171 545.333007812 -183 530 c 4
 -196.333007812 512.666992188 -213 504 -233 504 c 4
 -252.333007812 504 -268.666992188 512.666992188 -282 530 c 4
 -294 545.333007812 -300 563.333007812 -300 584 c 4
 -300 604 -293.666992188 622.166992188 -281 638.5 c 4
 -268.333007812 654.833007812 -252.333007812 663 -233 663 c 4
 -213 663 -196.666992188 654.833007812 -184 638.5 c 4
 -171.333007812 622.166992188 -165 604 -165 584 c 4
EndSplineSet
Validated: 1
EndChar

StartChar: uni0BE6
Encoding: 93 3046 49
Width: 465
Flags: W
HStem: -10 73<225.801 343.203> 572 73<224.61 343.062>
VStem: 104 46<174.428 461.594> 417 47<171.7 464.314>
LayerCount: 2
Fore
SplineSet
464 317 m 256
 464 235 453.333333333 166 432 110 c 0
 401.333333333 30 352.333333333 -10 285 -10 c 0
 216.333333333 -10 166.666666667 30 136 110 c 0
 114.666666667 166 104 235 104 317 c 256
 104 399 115 468 137 524 c 0
 167.666666667 604.666666667 217 645 285 645 c 0
 352.333333333 645 401.333333333 604.666666667 432 524 c 0
 453.333333333 468 464 399 464 317 c 256
417 317 m 0
 417 375.666666667 408.333333333 428.333333333 391 475 c 0
 367.666666667 539.666666667 332 572 284 572 c 0
 236.666666667 572 201 539.666666667 177 475 c 0
 159 427.666666667 150 375 150 317 c 0
 150 259.666666667 159 207.333333333 177 160 c 0
 201 95.3333333333 237 63 285 63 c 0
 332.333333333 63 367.666666667 95.3333333333 391 160 c 0
 408.333333333 206.666666667 417 259 417 317 c 0
EndSplineSet
Validated: 1
EndChar

StartChar: uni0BE7
Encoding: 94 3047 50
Width: 631
Flags: W
HStem: -9 69<216.319 356.231 486.204 560.585> 282 77<175.206 221 265 397 440 550.624> 558 74<265 397 440 535>
VStem: 103 49<127.77 259.063> 221 44<359 558> 397 43<103.324 282 359 558> 577 53<72.948 254.19>
LayerCount: 2
Fore
SplineSet
630 172 m 0
 630 126 623.333333333 87.3333333333 610 56 c 0
 590.666666667 12.6666666667 561 -9 521 -9 c 0
 503 -9 486.333333333 -5 471 3 c 1
 490 63 l 1
 498.666666667 58.3333333333 507.666666667 56 517 56 c 0
 557 56 577 93.3333333333 577 168 c 0
 577 196.666666667 572 221.333333333 562 242 c 0
 549.333333333 268.666666667 530.333333333 282 505 282 c 2
 440 282 l 1
 440 189 l 2
 440 131.666666667 429 86 407 52 c 0
 381 11.3333333333 340.666666667 -9 286 -9 c 0
 264 -9 241.333333333 -3 218 9 c 0
 182 27 153.833333333 54 133.5 90 c 0
 113.166666667 126 103 164.666666667 103 206 c 0
 103 308.666666667 142.333333333 359.666666667 221 359 c 1
 221 632 l 1
 535 632 l 1
 535 558 l 1
 440 558 l 1
 440 359 l 1
 505 359 l 2
 588.333333333 359 630 296.666666667 630 172 c 0
397 359 m 1
 397 558 l 1
 265 558 l 1
 265 359 l 1
 397 359 l 1
397 174 m 2
 397 282 l 1
 231 282 l 2
 208.333333333 282 189.5 274.833333333 174.5 260.5 c 0
 159.5 246.166666667 152 227.666666667 152 205 c 0
 152 167.666666667 165.166666667 134.166666667 191.5 104.5 c 0
 217.833333333 74.8333333333 249.333333333 60 286 60 c 0
 320 60 347 70.5 367 91.5 c 0
 387 112.5 397 140 397 174 c 2
EndSplineSet
Validated: 33
EndChar

StartChar: uni0BE8
Encoding: 95 3048 51
Width: 579
Flags: W
HStem: -2 66<144.629 579> 122 77<227.195 353.416> 567 75<221.826 353.416>
VStem: 101 42<67.2922 125.49> 109 44<283.104 483.38> 422 44<283.156 483.38>
LayerCount: 2
Fore
SplineSet
579 -2 m 1xf4
 167 -2 l 2
 144.333333333 -2 127 9.33333333333 115 32 c 0
 105.666666667 50 101 71.3333333333 101 96 c 0xf4
 101 137.333333333 122.666666667 169.333333333 166 192 c 1
 128 250.666666667 109 314 109 382 c 0xec
 109 418 114 452.333333333 124 485 c 0
 136.666666667 527 156 562.333333333 182 591 c 0
 213.333333333 625 248.666666667 642 288 642 c 256
 327.333333333 642 362.333333333 625 393 591 c 0
 419.666666667 562.333333333 439 527 451 485 c 0
 461 452.333333333 466 418 466 382 c 256
 466 346 461.333333333 311.666666667 452 279 c 0
 439.333333333 237 419.666666667 201.666666667 393 173 c 0
 362.333333333 139 327.333333333 122 288 122 c 0
 270 122 251.333333333 126.333333333 232 135 c 1
 214 133.666666667 196 132 178 130 c 1
 154.666666667 125.333333333 143 114.666666667 143 98 c 0
 143 75.3333333333 157 64 185 64 c 2
 579 64 l 1
 579 -2 l 1xf4
422 383 m 256
 422 427.666666667 411 468 389 504 c 0
 363 546 329 567 287 567 c 0
 245.666666667 567 212 546 186 504 c 0
 164 468 153 427.666666667 153 383 c 256xec
 153 338.333333333 164 298 186 262 c 0
 212 220 245.666666667 199 287 199 c 0
 329 199 363 220 389 262 c 0
 411 298 422 338.333333333 422 383 c 256
EndSplineSet
Validated: 1
EndChar

StartChar: uni0BE9
Encoding: 96 3049 52
Width: 642
Flags: W
HStem: 10 67<477 643> 10 55<216 389.809> 378 71<351.2 453.844> 560 72<153 274 318 431>
VStem: 108 45<179 560> 274 44<231 340.461 394 560> 488 57<149.733 339.436>
LayerCount: 2
Fore
SplineSet
643 10 m 1xbe
 216 10 l 1
 216 65 l 1
 260 65 l 2x7e
 412 65 488 124.666666667 488 244 c 0
 488 278 482 307 470 331 c 1
 455.333333333 362.333333333 432.666666667 378 402 378 c 0
 375.333333333 378 354 364.666666667 338 338 c 0
 324.666666667 315.333333333 318 289.666666667 318 261 c 2
 318 231 l 1
 274 231 l 1
 274 560 l 1
 153 560 l 1
 153 179 l 1
 108 179 l 1
 108 632 l 1
 431 632 l 1
 431 560 l 1
 318 560 l 1
 318 394 l 1
 342 430.666666667 371.666666667 449 407 449 c 0
 452.333333333 449 487.666666667 428 513 386 c 0
 534.333333333 350.666666667 545 308.333333333 545 259 c 0
 545 181.666666667 522.333333333 121 477 77 c 1
 643 77 l 1
 643 10 l 1xbe
EndSplineSet
Validated: 1
EndChar

StartChar: uni0BEA
Encoding: 97 3050 53
Width: 648
Flags: W
HStem: -9 69<215.25 354.143> 282 77<176.175 221 265 397 440 602> 559 74<265 397 440 535>
VStem: 105 49<125.051 259.215> 221 44<359 559> 397 43<105.106 282 359 559> 602 48<359 611>
LayerCount: 2
Fore
SplineSet
650 282 m 1
 440 282 l 1
 440 189 l 2
 440 131.666666667 428.333333333 85.6666666667 405 51 c 0
 377.666666667 11 336.666666667 -9 282 -9 c 0
 259.333333333 -9 236.333333333 -2.66666666667 213 10 c 0
 179 28 152 55.6666666667 132 93 c 0
 114 127.666666667 105 165.333333333 105 206 c 0
 105 309.333333333 143.666666667 360.333333333 221 359 c 1
 221 633 l 1
 535 633 l 1
 535 559 l 1
 440 559 l 1
 440 359 l 1
 602 359 l 1
 602 611 l 1
 650 611 l 1
 650 282 l 1
397 359 m 1
 397 559 l 1
 265 559 l 1
 265 359 l 1
 397 359 l 1
397 174 m 2
 397 282 l 1
 231 282 l 2
 208.333333333 282 189.833333333 274.833333333 175.5 260.5 c 0
 161.166666667 246.166666667 154 227.666666667 154 205 c 0
 154 167.666666667 166 134.666666667 190 106 c 0
 215.333333333 75.3333333333 246 60 282 60 c 0
 316 60 343.666666667 70.5 365 91.5 c 0
 386.333333333 112.5 397 140 397 174 c 2
EndSplineSet
Validated: 33
EndChar

StartChar: uni0BEB
Encoding: 98 3051 54
Width: 687
Flags: W
HStem: -3 59<307.287 509.67> 378 71<497.254 599.477> 560 72<303 419 463 576>
VStem: 102 51<225.226 492.066> 258 45<221 560> 419 44<221 339.522 394 560> 631 56<173.072 345.292>
LayerCount: 2
Fore
SplineSet
687 278 m 0
 687 198 659.5 131.166666667 604.5 77.5 c 0
 549.5 23.8333333333 482.333333333 -3 403 -3 c 0
 358.333333333 -3 316.666666667 6.66666666667 278 26 c 0
 218 56 172.666666667 104.666666667 142 172 c 0
 115.333333333 230.666666667 102 297 102 371 c 0
 102 457.666666667 125.666666667 536.666666667 173 608 c 1
 223 577 l 1
 176.333333333 516.333333333 153 447.333333333 153 370 c 0
 153 227.333333333 201.666666667 131.333333333 299 82 c 0
 333 64.6666666667 369.333333333 56 408 56 c 0
 468.666666667 56 521 76 565 116 c 0
 609 156 631 206 631 266 c 0
 631 295.333333333 624.666666667 320.333333333 612 341 c 0
 596 365.666666667 574.333333333 378 547 378 c 0
 520.333333333 378 499 364.333333333 483 337 c 0
 469.666666667 314.333333333 463 289 463 261 c 2
 463 221 l 1
 419 221 l 1
 419 560 l 1
 303 560 l 1
 303 221 l 1
 258 221 l 1
 258 632 l 1
 576 632 l 1
 576 560 l 1
 463 560 l 1
 463 394 l 1
 485 430.666666667 514.666666667 449 552 449 c 0
 596 449 630.333333333 430.666666667 655 394 c 0
 676.333333333 362.666666667 687 324 687 278 c 0
EndSplineSet
Validated: 1
EndChar

StartChar: uni0BEC
Encoding: 99 3052 55
Width: 790
Flags: W
HStem: -9 69<216.163 357.03> 0 21G<533 578 663 708> 282 77<175.206 221 265 397 440 514.662 578 663 708 789> 558 74<265 397 440 535>
VStem: 103 49<127.33 259.063> 221 44<359 558> 397 43<102.375 282 359 558> 533 45<0 264.582> 663 45<0 283>
LayerCount: 2
Fore
SplineSet
789 283 m 1xbf80
 708 283 l 1
 708 0 l 1
 663 0 l 1
 663 283 l 1
 578 283 l 1
 578 0 l 1
 533 0 l 1x7f80
 533 191 l 2
 533 251.666666667 510.333333333 282 465 282 c 2
 440 282 l 1
 440 189 l 2
 440 57 388.666666667 -9 286 -9 c 0
 263.333333333 -9 240 -2.66666666667 216 10 c 0
 180.666666667 28 153 55 133 91 c 0
 113 127 103 165.333333333 103 206 c 0
 103 308.666666667 142.333333333 359.666666667 221 359 c 1
 221 632 l 1
 535 632 l 1
 535 558 l 1
 440 558 l 1
 440 359 l 1
 486 359 518.666666667 350.666666667 538 334 c 1
 538 357 l 1
 789 357 l 1
 789 283 l 1xbf80
397 359 m 1
 397 558 l 1
 265 558 l 1
 265 359 l 1
 397 359 l 1
397 174 m 2
 397 282 l 1
 231 282 l 2
 208.333333333 282 189.5 274.833333333 174.5 260.5 c 0
 159.5 246.166666667 152 227.666666667 152 205 c 0
 152 167.666666667 165.166666667 134.166666667 191.5 104.5 c 0
 217.833333333 74.8333333333 249.333333333 60 286 60 c 0xbf80
 320 60 347 70.5 367 91.5 c 0
 387 112.5 397 140 397 174 c 2
EndSplineSet
Validated: 33
EndChar

StartChar: uni0BED
Encoding: 100 3053 56
Width: 648
Flags: W
HStem: -6 66<255.213 345.413> 278 60<252.828 342.324> 560 73<260 547 597 647>
VStem: 106 49<182.919 431.227> 172 58<126.187 254.783> 371 51<86.3672 246.55> 547 50<12 560>
LayerCount: 2
Fore
SplineSet
647 560 m 1
 597 560 l 1
 597 12 l 1
 547 12 l 1
 547 560 l 1
 342 560 l 2
 280.666666667 560 232.666666667 531.666666667 198 475 c 0
 169.333333333 427 155 370.333333333 155 305 c 0
 155 255.666666667 161.666666667 214.333333333 175 181 c 1
 173 191.666666667 172 202 172 212 c 0
 172 246.666666667 183.666666667 276.333333333 207 301 c 0
 230.333333333 325.666666667 259 338 293 338 c 0
 334.333333333 338 367 320 391 284 c 0
 411.666666667 253.333333333 422 216.333333333 422 173 c 0
 422 127 412.333333333 87.3333333333 393 54 c 0
 369 14 335.333333333 -6 292 -6 c 0
 229.333333333 -6 181 30.6666666667 147 104 c 1
 119.666666667 161.333333333 106 225.666666667 106 297 c 0
 106 385 125.333333333 460.333333333 164 523 c 0
 209.333333333 596.333333333 273.666666667 633 357 633 c 2
 647 633 l 1
 647 560 l 1
371 164 m 0
 371 192 365.333333333 216.666666667 354 238 c 0
 340 264.666666667 320 278 294 278 c 0
 270.666666667 278 253.666666667 264.333333333 243 237 c 1
 234.333333333 217.666666667 230 194.333333333 230 167 c 0
 230 140.333333333 235 117 245 97 c 0
 257.666666667 72.3333333333 276 60 300 60 c 256
 324 60 342.333333333 72 355 96 c 0
 365.666666667 116 371 138.666666667 371 164 c 0
EndSplineSet
Validated: 1
EndChar

StartChar: uni0BEE
Encoding: 101 3054 57
Width: 959
Flags: W
HStem: -10 65<265.677 554.919> 0 21G<906 958> 222 57<164.965 450 510.285 738 810 906> 566 75<504.513 694.132>
VStem: 108 54<132.268 218.533> 386 49<357.232 502.331> 771 50<280.718 488.415> 906 52<0 222 279 635>
LayerCount: 2
Fore
SplineSet
958 0 m 1x7f
 906 0 l 1x7f
 906 222 l 1
 795 222 l 1
 768.333333333 145.333333333 717.333333333 86.6666666667 642 46 c 1
 574.666666667 8.66666666667 497.666666667 -10 411 -10 c 0xbf
 275.666666667 -10 183.333333333 29.3333333333 134 108 c 0
 116.666666667 136 108 163.666666667 108 191 c 0
 108 215.666666667 115 236.5 129 253.5 c 0
 143 270.5 162 279 186 279 c 2
 450 279 l 1
 407.333333333 327 386 380.666666667 386 440 c 0
 386 500 407.333333333 549 450 587 c 0
 490.666666667 623 541.333333333 641 602 641 c 0
 676 641 732 615.666666667 770 565 c 0
 804 519.666666667 821 459 821 383 c 0
 821 349 817.333333333 314.333333333 810 279 c 1
 906 279 l 1
 906 635 l 1
 958 635 l 1
 958 0 l 1x7f
771 388 m 0
 771 444.666666667 756 488.5 726 519.5 c 0
 696 550.5 653 566 597 566 c 0
 553 566 515.666666667 554.333333333 485 531 c 0
 451.666666667 505.666666667 435 471.666666667 435 429 c 0
 435 393.666666667 450 359.833333333 480 327.5 c 0
 510 295.166666667 542.333333333 279 577 279 c 2
 755 279 l 1
 765.666666667 317 771 353.333333333 771 388 c 0
738 222 m 1
 205 222 l 2
 176.333333333 222 162 209 162 183 c 0
 162 165.666666667 170 148 186 130 c 0
 229.333333333 80 303.666666667 55 409 55 c 0xbf
 479 55 542 68 598 94 c 0
 660.666666667 122.666666667 707.333333333 165.333333333 738 222 c 1
EndSplineSet
Validated: 1
EndChar

StartChar: uni0BEF
Encoding: 102 3055 58
Width: 813
Flags: W
HStem: -9 69<218.756 354.931 652 714.065> 91 69<541.234 623.983> 282 77<175.206 221 265 397 440 490 671 731.045> 293 66<541.016 623.984> 558 74<265 397 440 570>
VStem: 103 49<131.853 262.002> 221 44<359 558> 397 43<105.592 282 359 558> 475 51<174.378 278.928> 639 50<174.031 278.716> 765 48<111.711 253.875>
LayerCount: 2
Fore
SplineSet
813 181 m 0xdfe0
 813 131.666666667 798.333333333 89 769 53 c 0
 739.666666667 17 700.666666667 -4 652 -10 c 1
 652 62 l 1
 685.333333333 62 713 75 735 101 c 0
 755 125 765 154 765 188 c 0
 765 216 756.333333333 239.666666667 739 259 c 0
 721.666666667 278.333333333 699 288 671 288 c 1
 683 264.666666667 689 243.666666667 689 225 c 0
 689 191 680 161 662 135 c 0
 641.333333333 105.666666667 614.666666667 91 582 91 c 0
 550.666666667 91 524.666666667 105.666666667 504 135 c 1
 484.666666667 161 475 190 475 222 c 0
 475 244.666666667 480 264.666666667 490 282 c 1
 440 282 l 1
 440 194 l 2
 440 136.666666667 429 90.3333333333 407 55 c 0
 380.333333333 12.3333333333 340 -9 286 -9 c 0
 234.666666667 -9 190.666666667 15.3333333333 154 64 c 0
 120 109.333333333 103 158.333333333 103 211 c 0
 103 310.333333333 142.333333333 359.666666667 221 359 c 1
 221 632 l 1
 570 632 l 1
 570 558 l 1
 440 558 l 1
 440 359 l 1xefe0
 644 359 l 2
 694.666666667 359 735.5 342.166666667 766.5 308.5 c 0
 797.5 274.833333333 813 232.333333333 813 181 c 0xdfe0
639 226 m 0
 639 242.666666667 633.666666667 258 623 272 c 0
 612.333333333 286 598.666666667 293 582 293 c 0xdfe0
 566 293 552.666666667 286 542 272 c 0
 531.333333333 258 526 242.666666667 526 226 c 0
 526 210 531.333333333 195 542 181 c 0
 552.666666667 167 566 160 582 160 c 0
 598.666666667 160 612.333333333 167 623 181 c 0
 633.666666667 195 639 210 639 226 c 0
397 359 m 1xefe0
 397 558 l 1
 265 558 l 1
 265 359 l 1
 397 359 l 1xefe0
397 179 m 2
 397 282 l 1
 231 282 l 2
 208.333333333 282 189.5 275.666666667 174.5 263 c 0
 159.5 250.333333333 152 232.666666667 152 210 c 0
 152 172 165 138 191 108 c 1
 217.666666667 76 249.333333333 60 286 60 c 0
 320 60 347 71.3333333333 367 94 c 0
 387 116.666666667 397 145 397 179 c 2
EndSplineSet
Validated: 33
EndChar

StartChar: uni0BF0
Encoding: 103 3056 59
Width: 679
Flags: W
HStem: -10 73<161.583 289.507 404.597 548.947> 653 72<413.39 534.596>
VStem: 99 45<80.1335 596> 314 57<94.4585 596> 623 55<177.802 519.885>
LayerCount: 2
Fore
SplineSet
678 348 m 0
 678 258.666666667 667 183.666666667 645 123 c 0
 613.666666667 34.3333333333 562 -10 490 -10 c 0
 422 -10 373.333333333 14.6666666667 344 64 c 1
 332 14.6666666667 290.333333333 -10 219 -10 c 0
 169.666666667 -10 136 10.6666666667 118 52 c 1
 105.333333333 79.3333333333 99 121 99 177 c 2
 99 596 l 1
 144 596 l 1
 144 177 l 2
 144 139.666666667 147 113.666666667 153 99 c 0
 163.666666667 75 185.333333333 63 218 63 c 0
 282 63 314 92.6666666667 314 152 c 2
 314 596 l 1
 371 596 l 1
 371 152 l 2
 371 121.333333333 383.666666667 98 409 82 c 1
 430.333333333 69.3333333333 457.333333333 63 490 63 c 0
 541.333333333 63 578.333333333 101.333333333 601 178 c 0
 615.666666667 228.666666667 623 288.333333333 623 357 c 256
 623 425.666666667 613.333333333 487 594 541 c 0
 566.666666667 615.666666667 525 653 469 653 c 0
 451 653 432.333333333 650.333333333 413 645 c 1
 412 719 l 1
 430.666666667 723 449.333333333 725 468 725 c 0
 542 725 597.666666667 678 635 584 c 1
 663.666666667 514 678 435.333333333 678 348 c 0
EndSplineSet
Validated: 1
EndChar

StartChar: uni0BF1
Encoding: 104 3057 60
Width: 775
Flags: W
HStem: -1 22G<100 150 335 388 561 613> 564 70<366 561 613 776> 573 69<183.413 300.238>
VStem: 100 50<-1 538.95> 335 53<-1 537.76> 561 52<0 564>
LayerCount: 2
Fore
SplineSet
776 564 m 1xdc
 613 564 l 1
 613 0 l 1
 561 0 l 1
 561 564 l 1
 366 564 l 1xdc
 380.666666667 538 388 510 388 480 c 2
 388 -1 l 1
 335 -1 l 1
 335 480 l 2
 335 504.666666667 325.5 526.333333333 306.5 545 c 0
 287.5 563.666666667 265.666666667 573 241 573 c 256
 216.333333333 573 195 563.666666667 177 545 c 0
 159 526.333333333 150 504.666666667 150 480 c 2
 150 -1 l 1
 100 -1 l 1
 100 480 l 2
 100 520 112.333333333 556.333333333 137 589 c 0
 164.333333333 624.333333333 197.333333333 642 236 642 c 0xbc
 272.666666667 642 304.333333333 631 331 609 c 1
 331 634 l 1
 776 634 l 1
 776 564 l 1xdc
EndSplineSet
Validated: 1
EndChar

StartChar: uni0BF2
Encoding: 105 3058 61
Width: 901
Flags: W
HStem: -9 69<214.906 354.143> 43 45<606.416 784.059> 110 46<610.078 705.742> 206 49<607.404 706 749 783.53> 282 77<176.175 221 265 397 440 706 749 902> 559 74<265 397 440 535>
VStem: 105 49<125.26 259.063> 221 44<359 559> 397 43<105.106 282 359 559> 569 37<0.981445 42.855 165.471 205.443> 706 43<159.512 206 255 282> 799 38<105.617 195.827>
LayerCount: 2
Fore
SplineSet
902 282 m 1xbff0
 749 282 l 1
 749 255 l 1
 760 255 l 2
 783.333333333 255 802 245.666666667 816 227 c 0
 830 208.333333333 837 187 837 163 c 0
 837 131 827 103 807 79 c 0
 787 55 761.333333333 43 730 43 c 2
 624 43 l 2
 612 43 606 37.6666666667 606 27 c 0
 606 19.6666666667 611.666666667 15 623 13 c 1
 597 -18 l 1
 578.333333333 -6.66666666667 569 9.33333333333 569 30 c 0
 569 44.6666666667 574.5 58 585.5 70 c 0
 596.5 82 609.333333333 88 624 88 c 2
 731 88 l 2x7ff0
 776.333333333 88 799 113.666666667 799 165 c 0
 799 177.666666667 794 187.666666667 784 195 c 0
 774 202.333333333 762.333333333 206 749 206 c 1
 749 199 749 199 749 185 c 0
 746.333333333 135 719 110 667 110 c 0
 643.666666667 110 622.333333333 117.666666667 603 133 c 0
 583.666666667 148.333333333 574 167.666666667 574 191 c 0
 574 207.666666667 579.5 222.5 590.5 235.5 c 0
 601.5 248.5 615.666666667 255 633 255 c 2
 706 255 l 1
 706 282 l 1
 440 282 l 1
 440 189 l 2
 440 131.666666667 428.333333333 85.6666666667 405 51 c 0
 377.666666667 11 336.666666667 -9 282 -9 c 0
 258 -9 234 -2.33333333333 210 11 c 0
 176.666666667 30.3333333333 150.833333333 57.6666666667 132.5 93 c 0
 114.166666667 128.333333333 105 166 105 206 c 0
 105 308.666666667 143.666666667 359.666666667 221 359 c 1
 221 633 l 1
 535 633 l 1
 535 559 l 1
 440 559 l 1
 440 359 l 1
 902 359 l 1
 902 282 l 1xbff0
707 184 m 1
 706 206 l 1
 632 206 l 2
 615.333333333 206 607 200.666666667 607 190 c 0
 607 178.666666667 613.666666667 170 627 164 c 0
 637.666666667 158.666666667 649.333333333 156 662 156 c 0
 692 156 707 165.333333333 707 184 c 1
397 359 m 1
 397 559 l 1
 265 559 l 1
 265 359 l 1
 397 359 l 1
397 174 m 2
 397 282 l 1
 231 282 l 2
 208.333333333 282 189.833333333 274.833333333 175.5 260.5 c 0
 161.166666667 246.166666667 154 227.666666667 154 205 c 0
 154 167.666666667 166 134.666666667 190 106 c 0
 215.333333333 75.3333333333 246 60 282 60 c 0xbff0
 316 60 343.666666667 70.5 365 91.5 c 0
 386.333333333 112.5 397 140 397 174 c 2
EndSplineSet
Validated: 33
EndChar

StartChar: uni0BF3
Encoding: 106 3059 62
Width: 702
Flags: W
HStem: -10 62<187.981 267.084> -1 68<523 708> 176 67<168 272.894> 385 65<245.068 400.501>
VStem: 97 66<78.7214 176 243 298.49> 281 68<64.0817 168.563> 473 71<68.7881 301.346>
LayerCount: 2
Fore
SplineSet
708 -1 m 1x7e
 432 -1 l 1x7e
 459.333333333 59 473 123.333333333 473 192 c 0
 473 244 461.666666667 287.666666667 439 323 c 0
 412.333333333 364.333333333 374 385 324 385 c 0
 284 385 249.166666667 371.333333333 219.5 344 c 0
 189.833333333 316.666666667 172.666666667 283 168 243 c 1
 241 243 l 2
 274.333333333 243 300.666666667 231.666666667 320 209 c 0
 339.333333333 186.333333333 349 158.333333333 349 125 c 0
 349 88.3333333333 338.666666667 57.3333333333 318 32 c 0
 295.333333333 4 266.333333333 -10 231 -10 c 0xbe
 186.333333333 -10 151.666666667 12 127 56 c 0
 107 92 97 134.333333333 97 183 c 0
 97 256.333333333 116 318 154 368 c 0
 195.333333333 422.666666667 251.333333333 450 322 450 c 0
 389.333333333 450 443.666666667 425.333333333 485 376 c 0
 524.333333333 329.333333333 544 271.666666667 544 203 c 0
 544 160.333333333 537 115 523 67 c 1
 708 67 l 1
 708 -1 l 1x7e
281 120 m 0
 281 157.333333333 263 176 227 176 c 2
 163 176 l 1
 163 146 167 120.333333333 175 99 c 0
 186.333333333 67.6666666667 204 52 228 52 c 0xbe
 244.666666667 52 258 59.6666666667 268 75 c 0
 276.666666667 88.3333333333 281 103.333333333 281 120 c 0
EndSplineSet
Validated: 1
EndChar

StartChar: uni0BF4
Encoding: 107 3060 63
Width: 1015
Flags: W
HStem: 0 72<172 348 425 601.247> 483 62<581.986 653.915> 661 69<549.001 649.468 870.056 964.223>
VStem: 100 72<72 438> 348 77<72 361.951> 396 70<478.746 615.837> 514 58<553.208 644.584> 625 81<94.8572 278.469> 664 72<553.055 648.157> 785 75<490 649.502>
LayerCount: 2
Fore
SplineSet
1013 692 m 1xf640
 970 630 l 1
 960 650.666666667 942.666666667 661 918 661 c 0
 904 661 890.833333333 656.333333333 878.5 647 c 0
 866.166666667 637.666666667 860 626 860 612 c 2
 860 490 l 1
 785 490 l 1
 785 611 l 2
 785 640.333333333 765 656.333333333 725 659 c 1
 732.333333333 643 736 625 736 605 c 0xf6c0
 736 570.333333333 726 541.333333333 706 518 c 0
 686 494.666666667 659 483 625 483 c 0
 593 483 566.5 493.666666667 545.5 515 c 0
 524.5 536.333333333 514 563 514 595 c 0
 514 613 517 629.666666667 523 645 c 1
 485 623.666666667 466 591.333333333 466 548 c 0xf740
 466 506.666666667 484.333333333 472.666666667 521 446 c 1
 576.333333333 434 621.666666667 400.333333333 657 345 c 0
 689.666666667 294.333333333 706 239.666666667 706 181 c 0
 706 126.333333333 690.666666667 82.5 660 49.5 c 0
 629.333333333 16.5 587 0 533 0 c 2
 100 0 l 1
 100 438 l 1
 172 438 l 1
 172 72 l 1
 348 72 l 1
 348 317 l 2xfb40
 348 346.333333333 356.5 372.833333333 373.5 396.5 c 0
 390.5 420.166666667 413 436.333333333 441 445 c 1
 411 475.666666667 396 511.333333333 396 552 c 0
 396 606.666666667 414.333333333 650.333333333 451 683 c 0
 487.666666667 715.666666667 533.666666667 732 589 732 c 0
 606.333333333 732 626.333333333 727 649 717 c 1
 669.666666667 725.666666667 692 730 716 730 c 0
 754 730 788.666666667 718 820 694 c 1
 847.333333333 718 879.333333333 730 916 730 c 0
 953.333333333 730 985.666666667 717.333333333 1013 692 c 1xf640
664 601 m 0
 664 614.333333333 659.666666667 626.833333333 651 638.5 c 0
 642.333333333 650.166666667 631.333333333 656 618 656 c 256
 604.666666667 656 593.666666667 650.166666667 585 638.5 c 0
 576.333333333 626.833333333 572 614.333333333 572 601 c 0
 572 587 576.333333333 574.166666667 585 562.5 c 0
 593.666666667 550.833333333 604.666666667 545 618 545 c 256
 631.333333333 545 642.333333333 550.833333333 651 562.5 c 0
 659.666666667 574.166666667 664 587 664 601 c 0
625 175 m 0xfb40
 625 220.333333333 613 264 589 306 c 0
 561 355.333333333 526 380 484 380 c 0
 467.333333333 380 453.333333333 374.166666667 442 362.5 c 0
 430.666666667 350.833333333 425 336.666666667 425 320 c 2
 425 72 l 1
 548 72 l 2
 599.333333333 72 625 106.333333333 625 175 c 0xfb40
EndSplineSet
Validated: 1
EndChar

StartChar: uni0BF5
Encoding: 108 3061 64
Width: 1754
Flags: W
HStem: -264 68<528.775 937.473> -11 68<402.502 482.195> -1 68<703 826 1506.99 1622.31> 176 63<403.944 482.981> 199 72<1084.72 1198.51> 365 72<898 1002 1071 1213> 382 67<409.403 584.596> 629 71<549.279 1003.96>
VStem: 97 71<81.1105 345.661> 250 68<116.44 290.662> 343 47<107.264 161.042> 495 68<67.904 165.269> 678 70<105.606 288.171> 826 72<67 365> 1002 69<-1 189.615 234 365> 1236 74<-3.67932 160.314> 1368 71<147.24 385.762> 1678 75<129.976 344.195>
LayerCount: 2
Fore
SplineSet
1753 234 m 0xadffc0
 1753 171.333333333 1737.66666667 118 1707 74 c 1
 1671.66666667 24.6666666667 1624.33333333 0 1565 0 c 256
 1505.66666667 0 1457 25 1419 75 c 1
 1385 121 1368 174.666666667 1368 236 c 2
 1368 275 l 2
 1368 403.666666667 1296.66666667 498.666666667 1154 560 c 0
 1048.66666667 606 921 629 771 629 c 0
 610.333333333 629 476.666666667 600.333333333 370 543 c 0
 235.333333333 470.333333333 168 361 168 215 c 0
 168 72.3333333333 230.333333333 -35 355 -107 c 1
 456.333333333 -166.333333333 583.666666667 -196 737 -196 c 0
 853.666666667 -196 958.333333333 -176.333333333 1051 -137 c 0
 1174.33333333 -85 1236 -8.66666666667 1236 92 c 0
 1236 122.666666667 1226.5 148.166666667 1207.5 168.5 c 0
 1188.5 188.833333333 1163.33333333 199 1132 199 c 0
 1116.66666667 199 1103.33333333 195.666666667 1092 189 c 0
 1078 181 1071 169.333333333 1071 154 c 2
 1071 -1 l 1
 1002 -1 l 1
 1002 365 l 1
 898 365 l 1
 898 -1 l 1
 877 -1 l 1
 613 -1 l 1xadffc0
 609 46 l 1
 655 87.3333333333 678 137.666666667 678 197 c 0
 678 249 660.666666667 292.833333333 626 328.5 c 0
 591.333333333 364.166666667 548 382 496 382 c 0
 446.666666667 382 404.666666667 364.666666667 370 330 c 0
 335.333333333 295.333333333 318 253.333333333 318 204 c 0
 318 170 327 137.666666667 345 107 c 1
 343.666666667 115 343 123 343 131 c 0
 343 161.666666667 352.833333333 187.333333333 372.5 208 c 0
 392.166666667 228.666666667 417 239 447 239 c 0
 481 239 509.333333333 226.333333333 532 201 c 0
 552.666666667 177 563 147.666666667 563 113 c 0
 563 77 551.166666667 47.3333333333 527.5 24 c 0
 503.833333333 0.666666666667 474 -11 438 -11 c 0
 382 -11 336 11.6666666667 300 57 c 0
 266.666666667 99.6666666667 250 149.666666667 250 207 c 0
 250 277.666666667 273.333333333 335.666666667 320 381 c 0
 366.666666667 426.333333333 425.666666667 449 497 449 c 256xd3ffc0
 568.333333333 449 628 426 676 380 c 0
 724 334 748 275.333333333 748 204 c 0
 748 155.333333333 733 109.666666667 703 67 c 1
 826 67 l 1
 826 437 l 1
 1213 437 l 1
 1213 365 l 1
 1071 365 l 1
 1071 234 l 1
 1089.66666667 258.666666667 1114.33333333 271 1145 271 c 0
 1193.66666667 271 1233.33333333 253 1264 217 c 0
 1294.66666667 181 1310 138.333333333 1310 89 c 0
 1310 -36.3333333333 1243.66666667 -130 1111 -192 c 0
 1009.66666667 -240 888 -264 746 -264 c 0
 568.666666667 -264 422.333333333 -228.666666667 307 -158 c 0
 167 -72.6666666667 97 53 97 219 c 0
 97 387.666666667 170.666666667 514 318 598 c 0
 436.666666667 666 587 700 769 700 c 0
 939 700 1083.66666667 672.333333333 1203 617 c 0
 1360.33333333 544.333333333 1439 433.333333333 1439 284 c 2
 1439 243 l 2
 1439 201 1449.33333333 163.333333333 1470 130 c 0
 1494.66666667 90 1526.33333333 70 1565 70 c 0
 1602.33333333 70 1631.33333333 87.6666666667 1652 123 c 0
 1669.33333333 153 1678 187.666666667 1678 227 c 0
 1678 319 1648.33333333 385 1589 425 c 1
 1648 475 l 1
 1718 421 1753 340.666666667 1753 234 c 0xadffc0
495 117 m 256
 495 132.333333333 490 146 480 158 c 0
 470 170 457.666666667 176 443 176 c 0
 427.666666667 176 415 170 405 158 c 0
 395 146 390 132.333333333 390 117 c 256
 390 101.666666667 395 87.8333333333 405 75.5 c 0
 415 63.1666666667 427.666666667 57 443 57 c 0xd1ffc0
 457.666666667 57 470 63.1666666667 480 75.5 c 0
 490 87.8333333333 495 101.666666667 495 117 c 256
EndSplineSet
Validated: 1
EndChar

StartChar: uni0BF6
Encoding: 109 3062 65
Width: 589
Flags: W
HStem: -232 61<159.943 316.184> -101 64<146.128 341 414 518> -5 68<198.926 311.188>
VStem: 73 65<-148.895 -102.982> 101 73<88.4246 439> 341 73<-146.519 -101 -37 17 93.2905 439> 518 68<-37 286>
LayerCount: 2
Fore
SplineSet
586 -101 m 1xee
 414 -101 l 1
 414 -140.333333333 394 -172.666666667 354 -198 c 1
 320 -220.666666667 282 -232 240 -232 c 0
 200 -232 164 -223.333333333 132 -206 c 0
 92.6666666667 -185.333333333 73 -156.666666667 73 -120 c 0xf6
 73 -64.6666666667 102.333333333 -37 161 -37 c 2
 341 -37 l 1
 341 17 l 1
 317 2.33333333333 289.333333333 -5 258 -5 c 0
 218.666666667 -5 183.666666667 5.66666666667 153 27 c 0
 118.333333333 51.6666666667 101 82.6666666667 101 120 c 2
 101 439 l 1
 174 439 l 1
 174 133 l 2
 174 114.333333333 182.833333333 98 200.5 84 c 0
 218.166666667 70 236.666666667 63 256 63 c 0
 280.666666667 63 301.166666667 72.5 317.5 91.5 c 0
 333.833333333 110.5 342 132.666666667 342 158 c 2
 342 439 l 1
 414 439 l 1
 414 -37 l 1
 518 -37 l 1
 518 286 l 1
 586 286 l 1
 586 -101 l 1xee
341 -101 m 1
 167 -101 l 2
 155.666666667 -101 148.666666667 -101.666666667 146 -103 c 0
 140.666666667 -105.666666667 138 -111.666666667 138 -121 c 0
 138 -134.333333333 151 -146.333333333 177 -157 c 0
 198.333333333 -166.333333333 217 -171 233 -171 c 0
 260.333333333 -171 284 -166 304 -156 c 0
 328.666666667 -144 341 -125.666666667 341 -101 c 1
EndSplineSet
Validated: 1
EndChar

StartChar: uni0BF7
Encoding: 110 3063 66
Width: 937
Flags: W
HStem: -11 68<253.897 334.149> -7 40<650.223 707.596> -2 44<819 895> 1 21G<493 563> 93 37<650.471 707.571> 176 63<254.792 334.567> 193 44<654.187 765.337> 371 68<248.994 493 563 636>
VStem: 102 67<117.727 293.171> 195 47<107.357 162.466> 347 68<71.4647 162.25> 493 70<1 371> 585 43<69.9766 165.327> 709 38<34.4769 91.5852> 793 44<42.6163 165.382> 895 44<42 232>
LayerCount: 2
Fore
SplineSet
939 -2 m 1x2bff
 762 -2 l 1x2bff
 759 28 l 1
 781.666666667 48.6666666667 793 74 793 104 c 0
 793 128.666666667 785.333333333 149.666666667 770 167 c 0
 754.666666667 184.333333333 734.333333333 193 709 193 c 0
 685.666666667 193 666.333333333 184.666666667 651 168 c 0
 635.666666667 151.333333333 628 131 628 107 c 0
 628 99 629 91 631 83 c 1
 636.333333333 114.333333333 654.666666667 130 686 130 c 0
 704.666666667 130 719.5 123.166666667 730.5 109.5 c 0
 741.5 95.8333333333 747 79.6666666667 747 61 c 0
 747 41 741 24.6666666667 729 12 c 0
 717 -0.666666666667 701 -7 681 -7 c 0x4bff
 651.666666667 -7 628 5.33333333333 610 30 c 0
 593.333333333 52 585 78.3333333333 585 109 c 0
 585 145.666666667 596.666666667 176.166666667 620 200.5 c 0
 643.333333333 224.833333333 673.333333333 237 710 237 c 0
 747.333333333 237 777.833333333 224.666666667 801.5 200 c 0
 825.166666667 175.333333333 837 144.333333333 837 107 c 0
 837 85 831 63.3333333333 819 42 c 1
 895 42 l 1
 895 232 l 1
 939 232 l 1
 939 -2 l 1x2bff
636 371 m 1
 563 371 l 1
 563 1 l 1
 493 1 l 1x19ff
 493 371 l 1
 336 371 l 2
 287.333333333 371 247.333333333 355.5 216 324.5 c 0
 184.666666667 293.5 169 254 169 206 c 0
 169 168 178.666666667 135 198 107 c 1
 196 117.666666667 195 125.666666667 195 131 c 0
 195 162.333333333 204.666666667 188.166666667 224 208.5 c 0
 243.333333333 228.833333333 268.333333333 239 299 239 c 0
 333.666666667 239 361.666666667 226.833333333 383 202.5 c 0
 404.333333333 178.166666667 415 148.333333333 415 113 c 0
 415 76.3333333333 403.333333333 46.5 380 23.5 c 0
 356.666666667 0.5 326.666666667 -11 290 -11 c 0x8dff
 233.333333333 -11 187 12 151 58 c 0
 118.333333333 100 102 150 102 208 c 0
 102 279.333333333 125.666666667 336.333333333 173 379 c 1
 219 419 278 439 350 439 c 2
 636 439 l 1
 636 371 l 1
709 63 m 256
 709 83 699 93 679 93 c 256
 659 93 649 83 649 63 c 256
 649 43 659 33 679 33 c 256x49ff
 699 33 709 43 709 63 c 256
347 117 m 0
 347 133.666666667 342.333333333 147.666666667 333 159 c 0
 323.666666667 170.333333333 311 176 295 176 c 256
 279 176 266.166666667 170.333333333 256.5 159 c 0
 246.833333333 147.666666667 242 133.666666667 242 117 c 256
 242 100.333333333 246.666666667 86.6666666667 256 76 c 1
 266 63.3333333333 279 57 295 57 c 256x8dff
 311 57 323.666666667 63 333 75 c 0
 342.333333333 87 347 101 347 117 c 0
EndSplineSet
Validated: 1
EndChar

StartChar: uni0BF8
Encoding: 111 3064 67
Width: 1435
Flags: W
HStem: -13 69<356.564 455.102 688.055 745.999> -1 67<933 1210 1279 1366> 130 69<1126.89 1210 1279 1329.32> 224 67<352.829 458.79> 379 70<1094.31 1195.02> 622 74<348.669 588.795>
VStem: 101 70<188.247 443.008> 261 70<84.2305 199.992> 479 75<82.4531 202.105> 605 65<71.8876 213.723> 751 66<57.9688 260 325.834 473.064> 893 68<87.6304 223.599> 1003 70<247.357 358.217> 1210 69<-222 -1 66 130 202 363.014> 1366 67<66 171> 1381 52<245.423 299>
LayerCount: 2
Fore
SplineSet
1433 -1 m 1x7ffd
 1279 -1 l 1
 1279 -222 l 1
 1210 -222 l 1
 1210 -1 l 1
 1207 -1 1207 -1 838 -1 c 1x7ffd
 834 48 l 1
 873.333333333 80 893 116.333333333 893 157 c 0
 893 181 886 202.666666667 872 222 c 0
 858 241.333333333 839.666666667 254 817 260 c 1
 817 112 l 2
 817 80 809 52 793 28 c 0
 775 0.666666666667 750.666666667 -13 720 -13 c 0xbffd
 684 -13 655 5.33333333333 633 42 c 0
 614.333333333 73.3333333333 605 108.333333333 605 147 c 0
 605 191.666666667 618.166666667 231.333333333 644.5 266 c 0
 670.833333333 300.666666667 705.333333333 322 748 330 c 1
 748 386 l 2
 748 455.333333333 718.333333333 513 659 559 c 0
 605 601 542 622 470 622 c 0
 380 622 307.666666667 593.666666667 253 537 c 0
 198.333333333 480.333333333 171 406.666666667 171 316 c 0
 171 265.333333333 179.333333333 220.333333333 196 181 c 0
 216 133.666666667 245.666666667 100.666666667 285 82 c 1
 269 101.333333333 261 126.666666667 261 158 c 0
 261 197.333333333 275.333333333 229.333333333 304 254 c 0
 332.666666667 278.666666667 367 291 407 291 c 0
 449.666666667 291 484.833333333 276.833333333 512.5 248.5 c 0
 540.166666667 220.166666667 554 184.666666667 554 142 c 0
 554 94 537 56 503 28 c 0
 471.666666667 2 431.666666667 -11 383 -11 c 0
 342.333333333 -11 303 -1.66666666667 265 17 c 0
 209.666666667 44.3333333333 168 86.3333333333 140 143 c 0
 114 194.333333333 101 253 101 319 c 0
 101 429 135.5 519.333333333 204.5 590 c 0
 273.5 660.666666667 363 696 473 696 c 0
 563.666666667 696 642.333333333 668.333333333 709 613 c 1
 781 554.333333333 817 480.666666667 817 392 c 2
 817 330 l 1
 859 324 893.5 304.833333333 920.5 272.5 c 0
 947.5 240.166666667 961 202.333333333 961 159 c 0
 961 123 951.666666667 92 933 66 c 1
 941 66 941 66 1210 66 c 1
 1210 130 l 1
 1155.33333333 130 1108 145.666666667 1068 177 c 0
 1024.66666667 211 1003 255 1003 309 c 0
 1003 351 1018 385.333333333 1048 412 c 0
 1076.66666667 436.666666667 1112.33333333 449 1155 449 c 0
 1191 449 1220.66666667 438 1244 416 c 0
 1267.33333333 394 1279 365 1279 329 c 2
 1279 202 l 1
 1305.66666667 207.333333333 1328.33333333 218 1347 234 c 0
 1368.33333333 252 1379.66666667 273.666666667 1381 299 c 1
 1433 299 l 1
 1433 -1 l 1x7ffd
1366 66 m 1x7ffe
 1366 171 l 1
 1339.33333333 147.666666667 1310.33333333 134.666666667 1279 132 c 1
 1279 66 l 1
 1366 66 l 1x7ffe
1210 324 m 2
 1210 340 1204 353.166666667 1192 363.5 c 0
 1180 373.833333333 1165.66666667 379 1149 379 c 0
 1127.66666667 379 1109.66666667 372.333333333 1095 359 c 0
 1080.33333333 345.666666667 1073 328.333333333 1073 307 c 0
 1073 273.666666667 1088 247 1118 227 c 0
 1144.66666667 209 1175.33333333 199.666666667 1210 199 c 1
 1210 324 l 2
751 112 m 2
 751 260 l 1
 726.333333333 253.333333333 706.666666667 237.833333333 692 213.5 c 0
 677.333333333 189.166666667 670 163.666666667 670 137 c 0
 670 121 674.333333333 104.333333333 683 87 c 0
 693 66.3333333333 704.666666667 56 718 56 c 0xbffc
 740 56 751 74.6666666667 751 112 c 2
479 143 m 0
 479 166.333333333 472.5 185.666666667 459.5 201 c 0
 446.5 216.333333333 428.666666667 224 406 224 c 256
 383.333333333 224 365.166666667 216 351.5 200 c 0
 337.833333333 184 331 164.333333333 331 141 c 0
 331 119.666666667 338.166666667 100.333333333 352.5 83 c 0
 366.833333333 65.6666666667 384.666666667 57 406 57 c 0
 428 57 445.666666667 65.6666666667 459 83 c 0
 472.333333333 100.333333333 479 120.333333333 479 143 c 0
EndSplineSet
Validated: 1
EndChar

StartChar: uni0BF9
Encoding: 112 3065 68
Width: 1239
Flags: W
HStem: -234 74<359.397 588.651> -1 21G<311 383 487 556> 199 70<567.101 680.785> 363 74<383 487 556 728 1080 1238> 585 68<387.404 649.021> 629 73<868.449 996.479>
VStem: 109 72<43.0043 354.993> 311 72<0 363> 487 69<-1 189.227 234 363> 726 73<-31.5693 150.203> 768 68<363 492.5> 1035 75<446.008 590.727>
LayerCount: 2
Fore
SplineSet
1238 363 m 1xf7d0
 981 363 l 1
 981 417 l 1
 1017 438.333333333 1035 472.666666667 1035 520 c 0
 1035 552 1025.33333333 578.166666667 1006 598.5 c 0
 986.666666667 618.833333333 961.333333333 629 930 629 c 0
 867.333333333 629 836 587 836 503 c 0
 836 491.666666667 837.666666667 445 841 363 c 1
 773 363 l 1
 769.666666667 384.333333333 768 402 768 416 c 0xf7b0
 768 474 739.333333333 518 682 548 c 0
 636 572.666666667 581.666666667 585 519 585 c 0
 407.666666667 585 322.333333333 547.333333333 263 472 c 0
 208.333333333 403.333333333 181 312 181 198 c 0
 181 94.6666666667 204.333333333 11.3333333333 251 -52 c 0
 303.666666667 -124 379.666666667 -160 479 -160 c 0
 546.333333333 -160 604.333333333 -138.833333333 653 -96.5 c 0
 701.666666667 -54.1666666667 726 0.333333333333 726 67 c 0
 726 103 717 133.333333333 699 158 c 0
 679 185.333333333 651.333333333 199 616 199 c 0
 601.333333333 199 587.666666667 195.166666667 575 187.5 c 0
 562.333333333 179.833333333 556 168.666666667 556 154 c 2
 556 -1 l 1
 487 -1 l 1
 487 363 l 1
 383 363 l 1
 383 -1 l 1
 311 0 l 1
 311 437 l 1
 728 437 l 1
 728 363 l 1
 556 363 l 1
 556 234 l 1
 572.666666667 257.333333333 596.666666667 269 628 269 c 0
 685.333333333 269 729.333333333 247.666666667 760 205 c 1
 786 167.666666667 799 119 799 59 c 0
 799 -27.6666666667 769.166666667 -98.1666666667 709.5 -152.5 c 0
 649.833333333 -206.833333333 576 -234 488 -234 c 0
 364 -234 268.333333333 -191.666666667 201 -107 c 0
 139.666666667 -29 109 74 109 202 c 0
 109 338 142.666666667 445.666666667 210 525 c 0
 282.666666667 610.333333333 385.666666667 653 519 653 c 0xfbd0
 613.666666667 653 698.666666667 624.666666667 774 568 c 1
 796 657.333333333 849 702 933 702 c 0
 987 702 1030 684.333333333 1062 649 c 0
 1094 613.666666667 1110 568.666666667 1110 514 c 0
 1110 482 1100 456.333333333 1080 437 c 1
 1238 437 l 1
 1238 363 l 1xf7d0
EndSplineSet
Validated: 1
EndChar

StartChar: uni0BFA
Encoding: 113 3066 69
Width: 1010
Flags: W
HStem: -110 64<158.892 433.94> 203 70<356.332 463.47> 369 72<173 277 346 355 417.882 473 850 1008> 579 65<421.989 514.991> 629 73<644.546 772.704>
VStem: 76 70<-197.992 -118.774> 101 72<3 369> 277 69<3 193.227 238 369> 338 68<450.592 564.148> 501 73<17.7563 163.922> 543 68<423 547.122> 805 75<446.008 595.678>
LayerCount: 2
Fore
SplineSet
1008 363 m 1xea90
 751 363 l 1
 751 417 l 1
 787 438.333333333 805 472.666666667 805 520 c 0
 805 552.666666667 796.833333333 579 780.5 599 c 0
 764.166666667 619 740.666666667 629 710 629 c 0xea90
 644 629 611 587 611 503 c 2
 611 423 l 1
 543 423 l 1
 543 481 l 2
 543 507 536.333333333 529.333333333 523 548 c 0
 507.666666667 568.666666667 488 579 464 579 c 0
 446.666666667 579 432.666666667 571.666666667 422 557 c 0
 411.333333333 542.333333333 406 526 406 508 c 0xf2b0
 406 492.666666667 409.666666667 478.333333333 417 465 c 0
 426.333333333 449 438 441 452 441 c 2
 473 441 l 1
 473 369 l 1
 346 369 l 1
 346 238 l 1xf110
 361.333333333 261.333333333 385.333333333 273 418 273 c 0
 464.666666667 273 503 252.666666667 533 212 c 0
 560.333333333 174.666666667 574 132 574 84 c 0
 574 25.3333333333 552 -22.3333333333 508 -59 c 0
 466.666666667 -93 415.666666667 -110 355 -110 c 2
 189 -110 l 2
 177 -110 166.833333333 -114 158.5 -122 c 0
 150.166666667 -130 146 -140 146 -152 c 0
 146 -169.333333333 153.666666667 -180.666666667 169 -186 c 1
 123 -231 l 1
 91.6666666667 -211.666666667 76 -183.333333333 76 -146 c 0
 76 -118 86.5 -94.3333333333 107.5 -75 c 0
 128.5 -55.6666666667 153 -46 181 -46 c 2
 357 -46 l 2
 394.333333333 -46 427.666666667 -33 457 -7 c 0
 486.333333333 19 501 50.3333333333 501 87 c 0
 501 118.333333333 493 144.666666667 477 166 c 1
 459.666666667 190.666666667 436 203 406 203 c 0xf4d0
 391.333333333 203 377.666666667 199.166666667 365 191.5 c 0
 352.333333333 183.833333333 346 172.666666667 346 158 c 2
 346 3 l 1
 277 3 l 1
 277 369 l 1xf110
 173 369 l 1
 173 3 l 1
 101 3 l 1
 101 441 l 1
 355 441 l 1
 343.666666667 461.666666667 338 484 338 508 c 0
 338 544.666666667 350 576.5 374 603.5 c 0
 398 630.5 428.333333333 644 465 644 c 0xf290
 509.666666667 644 544.333333333 623.666666667 569 583 c 1
 583 623.666666667 600 653 620 671 c 0
 642.666666667 691.666666667 673.666666667 702 713 702 c 0
 766.333333333 702 808 684 838 648 c 0
 866 614 880 569.333333333 880 514 c 0
 880 482 870 456.333333333 850 437 c 1
 1008 437 l 1
 1008 363 l 1xea90
EndSplineSet
Validated: 1
EndChar

StartChar: uni0BD7
Encoding: 92 3031 70
Width: 600
Flags: W
HStem: 77 58<125.435 193.279> 222 53<124.996 193.833> 372 56<349 449 508 600> 379 58<119.444 258.306>
VStem: 10 55<181.23 321.057> 81 41<164.333 218.974> 197 57<137.896 219.517> 292 57<87 347.133> 449 59<87 372>
LayerCount: 2
Fore
SplineSet
600 372 m 5xef80
 508 372 l 5
 508 87 l 5
 449 87 l 5
 449 372 l 5
 349 372 l 5xef80
 349 87 l 5
 292 87 l 5
 292 293 l 6
 292 319 281 340.333007812 259 357 c 4
 239 371.666992188 215.333007812 379 188 379 c 4
 152 379 122.5 365.5 99.5 338.5 c 4
 76.5 311.5 65 279.666992188 65 243 c 4
 65 220.333007812 70.6669921875 199.333007812 82 180 c 5
 81.3330078125 184 81 187 81 189 c 4
 81 213.666992188 88.5 234.166992188 103.5 250.5 c 4
 118.5 266.833007812 138.333007812 275 163 275 c 4
 190.333007812 275 212.333007812 265.333007812 229 246 c 4
 245.666992188 226.666992188 254 203.333007812 254 176 c 4
 254 146.666992188 244.833007812 122.833007812 226.5 104.5 c 4
 208.166992188 86.1669921875 184.666992188 77 156 77 c 4
 110.666992188 77 74.3330078125 95 47 131 c 4
 22.3330078125 163.666992188 10 203.333007812 10 250 c 4
 10 302.666992188 25.6669921875 347 57 383 c 4
 88.3330078125 419 130 437 182 437 c 4xdf80
 232 437 268.666992188 419.666992188 292 385 c 5
 292 428 l 5
 600 428 l 5
 600 372 l 5xef80
197 179 m 4
 197 207.666992188 184.333007812 222 159 222 c 4
 134.333007812 222 122 207.666992188 122 179 c 4
 122 149.666992188 134.333007812 135 159 135 c 4
 184.333007812 135 197 149.666992188 197 179 c 4
EndSplineSet
Validated: 1
EndChar

StartChar: uni0BD0
Encoding: 91 3024 71
Width: 766
Flags: W
HStem: -285 58<188.879 409.309> -193 39<249 301 341 380.534> -83 39<341.594 373.205> -76 76<556.328 712> -56 47<258.021 299.979> -44 41<179.336 209.95> 6 67<225.379 299.188> 42 67<602.265 685.96> 182 68<224.936 299.234> 374 74<303.899 560.736>
VStem: 100 69<158.076 263.466> 131 48<-216.081 -44.5757> 174 41<157 171.525> 210 39<-154 -44.3691> 258 42<-55.9941 -9.00562> 300 41<-154 -83.9375> 309 76<81.2399 173.36> 381 42<-153.855 -86.1928> 438 72<43.0403 152.685> 524 67<119.973 153> 699 66<127.131 264.931>
LayerCount: 2
Fore
SplineSet
765 184 m 0xc2eab8
 765 144.666666667 755 111.666666667 735 85 c 0
 713 56.3333333333 683 42 645 42 c 0
 613 42 585 52.6666666667 561 74 c 0
 537 95.3333333333 524.666666667 121.666666667 524 153 c 1
 514.666666667 142.333333333 510 124 510 98 c 0
 510 70.6666666667 522.333333333 47.5 547 28.5 c 0
 571.666666667 9.5 598 0 626 0 c 2
 712 0 l 1
 712 -76 l 1
 612 -76 l 2xd1eab8
 580.666666667 -76 553.666666667 -86.3333333333 531 -107 c 0
 514.333333333 -122.333333333 499.333333333 -147 486 -181 c 0
 472 -217.666666667 460 -241.666666667 450 -253 c 0
 430.666666667 -274.333333333 401.333333333 -285 362 -285 c 2
 260 -285 l 2
 216 -285 184 -276.666666667 164 -260 c 0
 142 -242 131 -211.333333333 131 -168 c 2
 131 -66 l 2
 131 -49.3333333333 136.333333333 -34.6666666667 147 -22 c 0
 157.666666667 -9.33333333333 171.333333333 -3 188 -3 c 256xc4d038
 204.666666667 -3 219 -9.16666666667 231 -21.5 c 0
 243 -33.8333333333 249 -48.3333333333 249 -65 c 2
 249 -154 l 1
 301 -154 l 1
 300.333333333 -136.666666667 300 -123.666666667 300 -115 c 0
 300 -67.6666666667 316 -44 348 -44 c 0xe0d538
 369.333333333 -44 387.166666667 -53.1666666667 401.5 -71.5 c 0
 415.833333333 -89.8333333333 423 -110 423 -132 c 0
 423 -150 417.666666667 -164.666666667 407 -176 c 0
 396.333333333 -187.333333333 382 -193 364 -193 c 2
 210 -193 l 1
 210 -63 l 2
 210 -50.3333333333 205 -44 195 -44 c 0
 184.333333333 -44 179 -50.3333333333 179 -63 c 0
 179 -81 179 -81 179 -117 c 0
 179 -153 179 -153 179 -171 c 0
 179 -208.333333333 201 -227 245 -227 c 2
 366 -227 l 2
 391.333333333 -227 409.666666667 -212.833333333 421 -184.5 c 0
 432.333333333 -156.166666667 443.333333333 -128 454 -100 c 1
 470 -66 495 -43.6666666667 529 -33 c 1
 468.333333333 -3 438 42.3333333333 438 103 c 0
 438 142.333333333 451.5 175.833333333 478.5 203.5 c 0
 505.5 231.166666667 538.666666667 245 578 245 c 0
 594.666666667 245 611 242.333333333 627 237 c 1
 603 223.666666667 591 198.666666667 591 162 c 0
 591 148 596.5 135.666666667 607.5 125 c 0
 618.5 114.333333333 631 109 645 109 c 0xc5d578
 663 109 677 117 687 133 c 0
 695 146.333333333 699 162.333333333 699 181 c 0
 699 244.333333333 669 293.666666667 609 329 c 0
 557.666666667 359 498.333333333 374 431 374 c 0
 362.333333333 374 303.666666667 358.666666667 255 328 c 0
 197.666666667 292 169 241.333333333 169 176 c 0
 169 169.333333333 170.666666667 163 174 157 c 1
 174 183.666666667 182.833333333 205.833333333 200.5 223.5 c 0
 218.166666667 241.166666667 240.333333333 250 267 250 c 0
 301.666666667 250 330 237.833333333 352 213.5 c 0
 374 189.166666667 385 159.666666667 385 125 c 0
 385 89.6666666667 372.833333333 61 348.5 39 c 0
 324.166666667 17 294 6 258 6 c 0
 210.666666667 6 172 24 142 60 c 0
 114 94 100 135 100 183 c 0
 100 267.666666667 135 334.333333333 205 383 c 0
 267 426.333333333 342 448 430 448 c 0
 518.666666667 448 594.333333333 426.333333333 657 383 c 1
 729 334.333333333 765 268 765 184 c 0xc2eab8
300 -32 m 0
 300 -48 293 -56 279 -56 c 256
 265 -56 258 -48 258 -32 c 0
 258 -16.6666666667 265 -9 279 -9 c 256xc8c238
 293 -9 300 -16.6666666667 300 -32 c 0
309 127 m 0xc2c8b8
 309 141 304.5 153.666666667 295.5 165 c 0
 286.5 176.333333333 275.333333333 182 262 182 c 256
 248.666666667 182 237.5 176.333333333 228.5 165 c 0
 219.5 153.666666667 215 141 215 127 c 0
 215 113.666666667 219.5 101.333333333 228.5 90 c 0
 237.5 78.6666666667 248.666666667 73 262 73 c 256
 275.333333333 73 286.5 78.6666666667 295.5 90 c 0
 304.5 101.333333333 309 113.666666667 309 127 c 0xc2c8b8
381 -133 m 0xe0c178
 381 -123 378.166666667 -112.166666667 372.5 -100.5 c 0
 366.833333333 -88.8333333333 359 -83 349 -83 c 0
 343.666666667 -83 341 -85.6666666667 341 -91 c 2
 341 -154 l 1
 368 -154 l 2
 376.666666667 -154 381 -147 381 -133 c 0xe0c178
EndSplineSet
Validated: 1
EndChar

StartChar: k
Encoding: 115 -1 72
Width: 626
GlyphClass: 2
Flags: W
HStem: -12 62<222.65 356.062 468.671 546.595> 186 71<176.814 215 284 382 450 547.078> 369 69<284 382 450 578> 503 132<380.472 461.528>
VStem: 103 69<93.4062 178.515> 215 69<257 369> 365 112<523.612 622.183> 382 68<76.1641 186 257 369> 557 68<57.3994 177.462>
LayerCount: 2
Fore
SplineSet
477 569 m 0xfe80
 477 552 472 536 462 523 c 0
 452 510 438 503 421 503 c 256
 404 503 390 510 380 523 c 0
 370 536 365 552 365 569 c 0
 365 586 370 600 380 614 c 0
 390 628 404 635 421 635 c 256
 438 635 452 628 462 614 c 0
 472 600 477 586 477 569 c 0xfe80
625 122 m 0
 625 33 588 -12 513 -12 c 0
 490 -12 469 -8 450 1 c 1
 475 60 l 1
 486 53 498 50 509 50 c 0
 541 50 557 73 557 119 c 0
 557 164 539 186 503 186 c 2
 450 186 l 1
 450 133 l 2
 450 86 435 50 406 25 c 0
 377 0 339 -12 290 -12 c 0
 245 -12 203 2 165 31 c 0
 124 62 103 100 103 145 c 0
 103 220 140 258 215 257 c 1
 215 438 l 1
 578 438 l 1
 578 369 l 1
 450 369 l 1
 450 257 l 1xfd80
 507 257 l 2
 546 257 576 244 597 218 c 0
 616 194 625 162 625 122 c 0
382 257 m 1
 382 369 l 1
 284 369 l 1
 284 257 l 1
 382 257 l 1
382 130 m 1
 382 131 l 1
 382 186 l 1
 233 186 l 2
 192 186 172 172 172 144 c 0
 172 118 186 96 213 78 c 0
 238 61 263 53 290 53 c 0
 348 53 379 79 382 130 c 1
EndSplineSet
Validated: 33
Ligature2: "'haln' Halant Forms in Tamil lookup 4-1" uni0B95 uni0BCD
Ligature2: "'half' form Substitution lookup 5-1" uni0B95 uni0BCD
EndChar

StartChar: ng
Encoding: 116 -1 73
Width: 697
Flags: W
HStem: 0 64<278 448.795 511 626> 206 69<359.25 455.227> 366 72<171 278 347 505> 503 132<370.987 451.013>
VStem: 101 70<0 366> 278 69<104 192.377 242 366> 355 112<523.626 621.982> 472 75<87.3382 188.543> 626 71<64 437>
LayerCount: 2
Fore
SplineSet
467 569 m 0
 467 551.666666667 461.833333333 536.333333333 451.5 523 c 0
 441.166666667 509.666666667 427.666666667 503 411 503 c 256
 394.333333333 503 380.833333333 509.666666667 370.5 523 c 0
 360.166666667 536.333333333 355 551.666666667 355 569 c 0
 355 585.666666667 360.166666667 600.833333333 370.5 614.5 c 0
 380.833333333 628.166666667 394.333333333 635 411 635 c 256
 427.666666667 635 441.166666667 628.166666667 451.5 614.5 c 0
 461.833333333 600.833333333 467 585.666666667 467 569 c 0
697 0 m 1
 278 0 l 1
 278 64 l 1
 397 64 l 2
 417 64 434.5 71.6666666667 449.5 87 c 0
 464.5 102.333333333 472 120 472 140 c 0
 472 158.666666667 466 174.333333333 454 187 c 0
 442 199.666666667 426.666666667 206 408 206 c 0
 393.333333333 206 379.5 200.833333333 366.5 190.5 c 0
 353.5 180.166666667 347 167.666666667 347 153 c 2
 347 104 l 1
 278 104 l 1
 278 366 l 1
 171 366 l 1
 171 0 l 1
 101 0 l 1
 101 438 l 1
 505 438 l 1
 505 366 l 1
 347 366 l 1
 347 242 l 1
 365.666666667 264 390.333333333 275 421 275 c 0
 458.333333333 275 488.666666667 263.333333333 512 240 c 0
 535.333333333 216.666666667 547 186 547 148 c 0
 547 116 535 88 511 64 c 1
 626 64 l 1
 626 437 l 1
 697 437 l 1
 697 0 l 1
EndSplineSet
Validated: 1
Ligature2: "'haln' Halant Forms in Tamil lookup 4-1" uni0B99 uni0BCD
Ligature2: "'half' form Substitution lookup 5-1" uni0B99 uni0BCD
EndChar

StartChar: ch
Encoding: 117 -1 74
Width: 575
Flags: W
HStem: -12 65<214.056 353.876> 186 71<178.463 209 278 377 444 576> 369 69<278 377 444 567> 503 132<385.987 466.013>
VStem: 103 69<91.6719 178.812> 209 69<257 369> 370 112<523.626 621.982> 377 67<76.0286 186 257 369>
LayerCount: 2
Fore
SplineSet
482 569 m 0xfe
 482 551.666666667 476.833333333 536.333333333 466.5 523 c 0
 456.166666667 509.666666667 442.666666667 503 426 503 c 256
 409.333333333 503 395.833333333 509.666666667 385.5 523 c 0
 375.166666667 536.333333333 370 551.666666667 370 569 c 0
 370 585.666666667 375.166666667 600.833333333 385.5 614.5 c 0
 395.833333333 628.166666667 409.333333333 635 426 635 c 256
 442.666666667 635 456.166666667 628.166666667 466.5 614.5 c 0
 476.833333333 600.833333333 482 585.666666667 482 569 c 0xfe
576 186 m 1
 444 186 l 1
 444 133 l 2
 444 85.6666666667 429.5 49.6666666667 400.5 25 c 0
 371.5 0.333333333333 333 -12 285 -12 c 0
 239 -12 197.666666667 2.33333333333 161 31 c 1
 122.333333333 62.3333333333 103 100.333333333 103 145 c 0
 103 220.333333333 138.333333333 257.666666667 209 257 c 1
 209 438 l 1
 567 438 l 1
 567 369 l 1
 444 369 l 1
 444 257 l 1xfd
 576 257 l 1
 576 186 l 1
377 257 m 1
 377 369 l 1
 278 369 l 1
 278 257 l 1
 377 257 l 1
377 130 m 1
 377 131 l 1
 377 186 l 1
 228 186 l 2
 190.666666667 186 172 172 172 144 c 0
 172 118 184.666666667 96 210 78 c 0
 233.333333333 61.3333333333 258.333333333 53 285 53 c 0
 343 53 373.666666667 78.6666666667 377 130 c 1
EndSplineSet
Validated: 33
Ligature2: "'haln' Halant Forms in Tamil lookup 4-1" uni0B9A uni0BCD
Ligature2: "'half' form Substitution lookup 5-1" uni0B9A uni0BCD
EndChar

StartChar: j
Encoding: 118 -1 75
Width: 747
Flags: W
HStem: -241 68<217.164 354.482 564.751 659.699> -16 67<534.861 656.393> 61 69<219.796 619.382> 153 64<183.272 253.275> 302 52<195.32 252.115> 378 70<209.164 376.002 502.816 638.296> 503 132<400.987 481.013>
VStem: 101 69<-125.946 11.122 227.246 291.853> 262 72<225.822 292.584> 385 112<523.626 621.982> 403 75<166 351.207> 479 71<-159.56 -123> 679 68<-151.816 -38.4561 189.61 334.636>
LayerCount: 2
Fore
SplineSet
497 569 m 0xffc8
 497 551.666666667 491.833333333 536.333333333 481.5 523 c 0
 471.166666667 509.666666667 457.666666667 503 441 503 c 256
 424.333333333 503 410.833333333 509.666666667 400.5 523 c 0
 390.166666667 536.333333333 385 551.666666667 385 569 c 0
 385 585.666666667 390.166666667 600.833333333 400.5 614.5 c 0
 410.833333333 628.166666667 424.333333333 635 441 635 c 256
 457.666666667 635 471.166666667 628.166666667 481.5 614.5 c 0
 491.833333333 600.833333333 497 585.666666667 497 569 c 0xffc8
747 -92 m 0
 747 -130.666666667 735.333333333 -164.666666667 712 -194 c 0
 687.333333333 -225.333333333 656 -241 618 -241 c 0
 582 -241 550.333333333 -230.666666667 523 -210 c 0
 493.666666667 -187.333333333 479 -158.333333333 479 -123 c 1
 550 -123 l 1
 550 -138.333333333 556.333333333 -150.666666667 569 -160 c 0
 581.666666667 -169.333333333 596 -174 612 -174 c 0
 632 -174 648.166666667 -166 660.5 -150 c 0
 672.833333333 -134 679 -115.666666667 679 -95 c 0
 679 -76.3333333333 672.333333333 -58.5 659 -41.5 c 0
 645.666666667 -24.5 630 -16 612 -16 c 0
 564.666666667 -16 526 -35.3333333333 496 -74 c 1
 471.333333333 -110 446.666666667 -146.333333333 422 -183 c 1
 388.666666667 -221.666666667 343.666666667 -241 287 -241 c 0
 235.666666667 -241 191.833333333 -222.666666667 155.5 -186 c 0
 119.166666667 -149.333333333 101 -105.333333333 101 -54 c 0
 101 -3.33333333333 119.166666667 40 155.5 76 c 0
 191.833333333 112 235.333333333 130 286 130 c 2
 542 130 l 2
 580.666666667 130 612.833333333 142.333333333 638.5 167 c 0
 664.166666667 191.666666667 677 223.333333333 677 262 c 0
 677 294.666666667 667.833333333 322.166666667 649.5 344.5 c 0
 631.166666667 366.833333333 606 378 574 378 c 0
 510 378 478 348.333333333 478 289 c 2
 478 166 l 1
 403 166 l 1
 403 289 l 2xffb8
 403 349.666666667 365 380 289 380 c 0
 248.333333333 380 217 367.666666667 195 343 c 1
 207 350.333333333 220 354 234 354 c 0
 261.333333333 354 284.833333333 344.666666667 304.5 326 c 0
 324.166666667 307.333333333 334 284.666666667 334 258 c 0
 334 226.666666667 323.166666667 201.333333333 301.5 182 c 0
 279.833333333 162.666666667 253 153 221 153 c 0
 186.333333333 153 158 165 136 189 c 0
 114 213 103 242.666666667 103 278 c 0
 103 328 121.666666667 369 159 401 c 0
 194.333333333 431.666666667 237.666666667 447 289 447 c 0
 355.666666667 447 404.666666667 429.333333333 436 394 c 1
 464.666666667 430 509 448 569 448 c 0
 619 448 661.166666667 430 695.5 394 c 0
 729.833333333 358 747 314.666666667 747 264 c 0
 747 206.666666667 730.333333333 159 697 121 c 0
 662.333333333 81 617 61 561 61 c 2
 289 61 l 2
 256.333333333 61 228.333333333 49.5 205 26.5 c 0
 181.666666667 3.5 170 -24.3333333333 170 -57 c 256
 170 -89.6666666667 181.166666667 -117.166666667 203.5 -139.5 c 0
 225.833333333 -161.833333333 253.666666667 -173 287 -173 c 0
 327.666666667 -173 362 -153.666666667 390 -115 c 0
 428 -61 428 -61 466 -7 c 1
 502.666666667 31.6666666667 551.333333333 51 612 51 c 0
 649.333333333 51 681.166666667 36.6666666667 707.5 8 c 0
 733.833333333 -20.6666666667 747 -54 747 -92 c 0
262 259 m 0
 262 271 257.5 281.166666667 248.5 289.5 c 0
 239.5 297.833333333 229 302 217 302 c 0
 204.333333333 302 194 298 186 290 c 0
 178 282 174 271.666666667 174 259 c 0
 174 247 178.333333333 237 187 229 c 0
 195.666666667 221 206.333333333 217 219 217 c 0
 231 217 241.166666667 220.833333333 249.5 228.5 c 0
 257.833333333 236.166666667 262 246.333333333 262 259 c 0
EndSplineSet
Validated: 5
Ligature2: "'haln' Halant Forms in Tamil lookup 4-1" uni0B9C uni0BCD
Ligature2: "'half' form Substitution lookup 5-1" uni0B9C uni0BCD
EndChar

StartChar: nj
Encoding: 119 -1 76
Width: 949
Flags: W
HStem: -248 61<410.056 698.027> -11 68<395.455 473.891> 176 63<395.364 473.616> 203 70<731.98 840.373> 370 69<389.561 653 721 902> 503 132<630.987 711.013>
VStem: 100 65<43.6224 312.768> 243 68<114.647 290.981> 335 47<107.436 161.576> 487 68<71.4647 161.993> 615 112<523.626 621.982> 653 68<6 192.802 236 370> 879 71<-22.796 162.044>
LayerCount: 2
Fore
SplineSet
727 569 m 0xcfe8
 727 551.666666667 721.833333333 536.333333333 711.5 523 c 0
 701.166666667 509.666666667 687.666666667 503 671 503 c 256
 654.333333333 503 640.833333333 509.666666667 630.5 523 c 0
 620.166666667 536.333333333 615 551.666666667 615 569 c 0
 615 585.666666667 620.166666667 600.833333333 630.5 614.5 c 0
 640.833333333 628.166666667 654.333333333 635 671 635 c 256
 687.666666667 635 701.166666667 628.166666667 711.5 614.5 c 0
 721.833333333 600.833333333 727 585.666666667 727 569 c 0xcfe8
950 76 m 0
 950 30 939.666666667 -14.3333333333 919 -57 c 0
 887 -123 836.333333333 -172.666666667 767 -206 c 1
 707 -234 636.333333333 -248 555 -248 c 0
 425.666666667 -248 318.666666667 -211 234 -137 c 0
 144.666666667 -59 100 44 100 172 c 0
 100 298 132.666666667 390.333333333 198 449 c 1
 246 403 l 1
 192 353 165 277 165 175 c 0
 165 65.6666666667 203 -22.6666666667 279 -90 c 0
 352.333333333 -154.666666667 444.333333333 -187 555 -187 c 0
 699 -187 797.666666667 -136.333333333 851 -35 c 0
 869.666666667 1.66666666667 879 39 879 77 c 0
 879 111 871.333333333 139.666666667 856 163 c 0
 838 189.666666667 812.666666667 203 780 203 c 0
 766 203 752.666666667 199 740 191 c 0
 727.333333333 183 721 172 721 158 c 2
 721 6 l 1
 653 6 l 1
 653 370 l 1
 474 370 l 2
 426.666666667 370 387.666666667 354.166666667 357 322.5 c 0
 326.333333333 290.833333333 311 251 311 203 c 0xdfd8
 311 169 319.666666667 137 337 107 c 1
 335.666666667 115 335 123 335 131 c 0
 335 162.333333333 344.666666667 188.166666667 364 208.5 c 0
 383.333333333 228.833333333 408.333333333 239 439 239 c 0xefd8
 473.666666667 239 501.666666667 226.833333333 523 202.5 c 0
 544.333333333 178.166666667 555 148.333333333 555 113 c 0
 555 76.3333333333 543.333333333 46.5 520 23.5 c 0
 496.666666667 0.5 466.666666667 -11 430 -11 c 0
 372.666666667 -11 326.333333333 11.3333333333 291 56 c 0
 259 97.3333333333 243 147.333333333 243 206 c 0
 243 274.666666667 264.5 330.666666667 307.5 374 c 0
 350.5 417.333333333 406.333333333 439 475 439 c 2
 902 439 l 1
 902 370 l 1
 721 370 l 1
 721 236 l 1
 735 260.666666667 757.666666667 273 789 273 c 0xdfd8
 839.666666667 273 880 252.333333333 910 211 c 0
 936.666666667 174.333333333 950 129.333333333 950 76 c 0
487 117 m 256
 487 133 482.166666667 146.833333333 472.5 158.5 c 0
 462.833333333 170.166666667 450.333333333 176 435 176 c 0xefc8
 419 176 406.166666667 170.166666667 396.5 158.5 c 0
 386.833333333 146.833333333 382 133 382 117 c 256
 382 101 386.833333333 87 396.5 75 c 0
 406.166666667 63 419 57 435 57 c 0
 450.333333333 57 462.833333333 63 472.5 75 c 0
 482.166666667 87 487 101 487 117 c 256
EndSplineSet
Validated: 1
Ligature2: "'haln' Halant Forms in Tamil lookup 4-1" uni0B9E uni0BCD
Ligature2: "'half' form Substitution lookup 5-1" uni0B9E uni0BCD
EndChar

StartChar: t
Encoding: 120 -1 77
Width: 634
Flags: W
HStem: -1 70<171 635> 488 132<365.987 446.013>
VStem: 101 70<69 440> 350 112<508.626 606.982>
LayerCount: 2
Fore
SplineSet
462 554 m 0
 462 536.666666667 456.833333333 521.333333333 446.5 508 c 0
 436.166666667 494.666666667 422.666666667 488 406 488 c 256
 389.333333333 488 375.833333333 494.666666667 365.5 508 c 0
 355.166666667 521.333333333 350 536.666666667 350 554 c 0
 350 570.666666667 355.166666667 585.833333333 365.5 599.5 c 0
 375.833333333 613.166666667 389.333333333 620 406 620 c 256
 422.666666667 620 436.166666667 613.166666667 446.5 599.5 c 0
 456.833333333 585.833333333 462 570.666666667 462 554 c 0
635 -1 m 1
 101 -1 l 1
 101 440 l 1
 171 440 l 1
 171 69 l 1
 635 69 l 1
 635 -1 l 1
EndSplineSet
Validated: 1
Ligature2: "'haln' Halant Forms in Tamil lookup 4-1" uni0B9F uni0BCD
Ligature2: "'half' form Substitution lookup 5-1" uni0B9F uni0BCD
EndChar

StartChar: nnn
Encoding: 121 -1 78
Width: 1293
Flags: W
HStem: -11 73<244.415 325.317 527.418 605.539 843.074 916.404> -1 21G<1081 1154> 176 63<245.374 323.616> 372 68<936.923 1081 1154 1291> 384 66<289.493 489.637 632.708 815.157> 503 132<695.987 776.013>
VStem: 104 69<110.943 282.312> 187 45<110.45 161.558> 337 68<71.4647 161.993> 441 70<76.9717 278.455> 623 74<77.7383 264.538> 680 112<523.626 621.982> 756 70<76.6786 273.503> 933 75<75.3867 274.304> 1081 73<-1 372>
LayerCount: 2
Fore
SplineSet
792 569 m 0x27d6
 792 551.666666667 786.833333333 536.333333333 776.5 523 c 0
 766.166666667 509.666666667 752.666666667 503 736 503 c 256
 719.333333333 503 705.833333333 509.666666667 695.5 523 c 0
 685.166666667 536.333333333 680 551.666666667 680 569 c 0
 680 585.666666667 685.166666667 600.833333333 695.5 614.5 c 0
 705.833333333 628.166666667 719.333333333 635 736 635 c 256
 752.666666667 635 766.166666667 628.166666667 776.5 614.5 c 0
 786.833333333 600.833333333 792 585.666666667 792 569 c 0x27d6
1291 372 m 1x37ee
 1154 372 l 1
 1154 -1 l 1
 1081 -1 l 1
 1081 372 l 1
 996 372 l 2x77ee
 971.333333333 372 951.333333333 365.666666667 936 353 c 1
 984 301.666666667 1008 239 1008 165 c 0
 1008 47.6666666667 967.666666667 -11 887 -11 c 0
 841 -11 806.666666667 9.66666666667 784 51 c 0
 765.333333333 85 756 126.666666667 756 176 c 0
 756 249.333333333 779 309.333333333 825 356 c 1
 797.666666667 374.666666667 763.333333333 384 722 384 c 0
 676.666666667 384 643 373.666666667 621 353 c 1
 671.666666667 297.666666667 697 235 697 165 c 0
 697 117 688.333333333 77.6666666667 671 47 c 0
 649.666666667 8.33333333333 616.666666667 -11 572 -11 c 0
 526.666666667 -11 492.333333333 10 469 52 c 0
 450.333333333 85.3333333333 441 126.666666667 441 176 c 0
 441 245.333333333 463 304.666666667 507 354 c 1
 471.666666667 372.666666667 432.666666667 382 390 382 c 0
 332 382 282 365.666666667 240 333 c 0
 195.333333333 298.333333333 173 252.666666667 173 196 c 0
 173 160.666666667 179.666666667 132 193 110 c 1
 189 121.333333333 187 131.666666667 187 141 c 0
 187 169.666666667 196.833333333 193.166666667 216.5 211.5 c 0
 236.166666667 229.833333333 260.333333333 239 289 239 c 0
 323.666666667 239 351.666666667 226.833333333 373 202.5 c 0
 394.333333333 178.166666667 405 148.333333333 405 113 c 0
 405 76.3333333333 393.333333333 46.5 370 23.5 c 0
 346.666666667 0.5 316.666666667 -11 280 -11 c 0
 226.666666667 -11 183.333333333 9.33333333333 150 50 c 0
 119.333333333 88 104 134 104 188 c 0
 104 268.666666667 131.666666667 333 187 381 c 1
 240.333333333 426.333333333 308 449 390 449 c 0
 452.666666667 449 508.333333333 432.666666667 557 400 c 1
 605.666666667 433.333333333 658.666666667 450 716 450 c 0xafee
 776.666666667 450 830.666666667 434 878 402 c 1
 879 402 l 1
 912.333333333 427.333333333 951.333333333 440 996 440 c 2
 1291 440 l 1
 1291 372 l 1x37ee
933 170 m 0
 933 232 915.666666667 281 881 317 c 1
 844.333333333 285 826 236 826 170 c 0
 826 98 844.333333333 62 881 62 c 0xa7ce
 915.666666667 62 933 98 933 170 c 0
623 170 m 0xa7e6
 623 226 603 275 563 317 c 1
 528.333333333 286.333333333 511 237.333333333 511 170 c 0
 511 98 529.333333333 62 566 62 c 0
 604 62 623 98 623 170 c 0xa7e6
337 117 m 256
 337 133 332.166666667 146.833333333 322.5 158.5 c 0
 312.833333333 170.166666667 300.333333333 176 285 176 c 0
 269 176 256.166666667 170.166666667 246.5 158.5 c 0
 236.833333333 146.833333333 232 133 232 117 c 256
 232 101 236.833333333 87 246.5 75 c 0
 256.166666667 63 269 57 285 57 c 0
 300.333333333 57 312.833333333 63 322.5 75 c 0
 332.166666667 87 337 101 337 117 c 256
EndSplineSet
Validated: 1
Ligature2: "'half' form Substitution lookup 5-1" uni0BA3 uni0BCD
Ligature2: "'haln' Halant Forms in Tamil lookup 4-1" uni0BA3 uni0BCD
EndChar

StartChar: th
Encoding: 122 -1 79
Width: 622
Flags: W
HStem: -110 64<168.407 485.656> -12 65<208.454 348.407> 186 71<170.43 204 273 371 439 518.813> 369 69<273 371 439 567> 503 132<375.987 456.013>
VStem: 86 69<-197.86 -118.774> 97 69<91.7609 178.812> 204 69<257 369> 360 112<523.626 621.982> 371 68<131 186 257 369> 549 73<16.5407 155.168>
LayerCount: 2
Fore
SplineSet
472 569 m 0xf9a0
 472 551.666666667 466.833333333 536.333333333 456.5 523 c 0
 446.166666667 509.666666667 432.666666667 503 416 503 c 256
 399.333333333 503 385.833333333 509.666666667 375.5 523 c 0
 365.166666667 536.333333333 360 551.666666667 360 569 c 0
 360 585.666666667 365.166666667 600.833333333 375.5 614.5 c 0
 385.833333333 628.166666667 399.333333333 635 416 635 c 256
 432.666666667 635 446.166666667 628.166666667 456.5 614.5 c 0
 466.833333333 600.833333333 472 585.666666667 472 569 c 0xf9a0
622 87 m 0
 622 27 600.333333333 -21.3333333333 557 -58 c 0
 516.333333333 -92.6666666667 465.666666667 -110 405 -110 c 2
 199 -110 l 2
 187 -110 176.666666667 -114 168 -122 c 0
 159.333333333 -130 155 -140 155 -152 c 0
 155 -169.333333333 163 -180.666666667 179 -186 c 1
 133 -231 l 1
 101.666666667 -211.666666667 86 -183.333333333 86 -146 c 0xfd60
 86 -118 96.3333333333 -94.3333333333 117 -75 c 0
 137.666666667 -55.6666666667 162.333333333 -46 191 -46 c 2
 407 -46 l 2
 446.333333333 -46 479.833333333 -32.8333333333 507.5 -6.5 c 0
 535.166666667 19.8333333333 549 52.3333333333 549 91 c 0
 549 119.666666667 540.333333333 142.666666667 523 160 c 0
 505.666666667 177.333333333 482.666666667 186 454 186 c 2
 439 186 l 1
 439 133 l 2
 439 85.6666666667 424.5 49.6666666667 395.5 25 c 0
 366.5 0.333333333333 327.666666667 -12 279 -12 c 0
 233.666666667 -12 192.666666667 2.66666666667 156 32 c 0
 116.666666667 62.6666666667 97 100.333333333 97 145 c 0
 97 220.333333333 132.666666667 257.666666667 204 257 c 1
 204 438 l 1
 567 438 l 1
 567 369 l 1
 439 369 l 1
 439 257 l 1xfb60
 471 257 l 2
 517 257 553.666666667 240.5 581 207.5 c 0
 608.333333333 174.5 622 134.333333333 622 87 c 0
371 257 m 1
 371 369 l 1
 273 369 l 1
 273 257 l 1
 371 257 l 1
372 130 m 1
 371 131 l 1
 371 186 l 1
 222 186 l 2
 184.666666667 186 166 172 166 144 c 0xfb60
 166 118 178.666666667 96 204 78 c 0
 227.333333333 61.3333333333 252.333333333 53 279 53 c 0
 337 53 368 78.6666666667 372 130 c 1
EndSplineSet
Validated: 33
Ligature2: "'half' form Substitution lookup 5-1" uni0BA4 uni0BCD
Ligature2: "'haln' Halant Forms in Tamil lookup 4-1" uni0BA4 uni0BCD
EndChar

StartChar: n
Encoding: 123 -1 80
Width: 575
Flags: W
HStem: -110 64<158.892 433.94> 203 70<356.332 463.47> 369 72<173 277 346 518> 503 132<285.987 366.013>
VStem: 76 70<-197.992 -118.774> 101 72<3 369> 270 112<523.626 621.982> 277 69<3 193.227 238 369> 501 73<17.7563 163.922>
LayerCount: 2
Fore
SplineSet
382 569 m 0xf280
 382 551.666666667 376.833333333 536.333333333 366.5 523 c 0
 356.166666667 509.666666667 342.666666667 503 326 503 c 256
 309.333333333 503 295.833333333 509.666666667 285.5 523 c 0
 275.166666667 536.333333333 270 551.666666667 270 569 c 0
 270 585.666666667 275.166666667 600.833333333 285.5 614.5 c 0
 295.833333333 628.166666667 309.333333333 635 326 635 c 256
 342.666666667 635 356.166666667 628.166666667 366.5 614.5 c 0
 376.833333333 600.833333333 382 585.666666667 382 569 c 0xf280
574 84 m 0
 574 25.3333333333 552 -22.3333333333 508 -59 c 0
 466.666666667 -93 415.666666667 -110 355 -110 c 2
 189 -110 l 2
 177 -110 166.833333333 -114 158.5 -122 c 0
 150.166666667 -130 146 -140 146 -152 c 0
 146 -169.333333333 153.666666667 -180.666666667 169 -186 c 1
 123 -231 l 1
 91.6666666667 -211.666666667 76 -183.333333333 76 -146 c 0xf980
 76 -118 86.5 -94.3333333333 107.5 -75 c 0
 128.5 -55.6666666667 153 -46 181 -46 c 2
 357 -46 l 2
 394.333333333 -46 427.666666667 -33 457 -7 c 0
 486.333333333 19 501 50.3333333333 501 87 c 0
 501 118.333333333 493 144.666666667 477 166 c 1
 459.666666667 190.666666667 436 203 406 203 c 0
 391.333333333 203 377.666666667 199.166666667 365 191.5 c 0
 352.333333333 183.833333333 346 172.666666667 346 158 c 2
 346 3 l 1
 277 3 l 1
 277 369 l 1
 173 369 l 1
 173 3 l 1
 101 3 l 1
 101 441 l 1
 518 441 l 1
 518 369 l 1
 346 369 l 1
 346 238 l 1xf580
 361.333333333 261.333333333 385.333333333 273 418 273 c 0
 464.666666667 273 503 252.666666667 533 212 c 0
 560.333333333 174.666666667 574 132 574 84 c 0
EndSplineSet
Validated: 1
Ligature2: "'haln' Halant Forms in Tamil lookup 4-1" uni0BA8 uni0BCD
Ligature2: "'half' form Substitution lookup 5-1" uni0BA8 uni0BCD
EndChar

StartChar: nn
Encoding: 124 -1 81
Width: 939
Flags: W
HStem: -11 68<245.552 323.891 531.858 601.659> 176 63<245.374 323.616> 372 69<627.211 767 839 941> 382 67<283.783 494.41> 503 132<520.987 601.013>
VStem: 104 69<110.708 282.312> 187 45<110.511 161.558> 337 68<71.4647 161.993> 441 70<76.9717 270.676> 505 112<523.626 621.982> 623 74<77.7383 267.211> 767 72<3 372>
LayerCount: 2
Fore
SplineSet
617 569 m 0xcf70
 617 551.666666667 611.833333333 536.333333333 601.5 523 c 0
 591.166666667 509.666666667 577.666666667 503 561 503 c 256
 544.333333333 503 530.833333333 509.666666667 520.5 523 c 0
 510.166666667 536.333333333 505 551.666666667 505 569 c 0
 505 585.666666667 510.166666667 600.833333333 520.5 614.5 c 0
 530.833333333 628.166666667 544.333333333 635 561 635 c 256
 577.666666667 635 591.166666667 628.166666667 601.5 614.5 c 0
 611.833333333 600.833333333 617 585.666666667 617 569 c 0xcf70
941 372 m 1xefb0
 839 372 l 1
 839 3 l 1
 767 3 l 1
 767 372 l 1
 681 372 l 2xefb0
 657.666666667 372 639.333333333 365.666666667 626 353 c 1
 673.333333333 301 697 238.333333333 697 165 c 0
 697 117 688.333333333 77.6666666667 671 47 c 0
 649.666666667 8.33333333333 616.666666667 -11 572 -11 c 0
 526 -11 491.666666667 10 469 52 c 0
 450.333333333 85.3333333333 441 126.666666667 441 176 c 0
 441 245.333333333 463 304.666666667 507 354 c 1
 471 372.666666667 432 382 390 382 c 0
 332 382 282 365.666666667 240 333 c 0
 195.333333333 298.333333333 173 252.666666667 173 196 c 0
 173 161.333333333 179.666666667 132.666666667 193 110 c 1
 189 124 187 134.333333333 187 141 c 0
 187 169.666666667 196.833333333 193.166666667 216.5 211.5 c 0
 236.166666667 229.833333333 260.333333333 239 289 239 c 0
 323.666666667 239 351.666666667 226.833333333 373 202.5 c 0
 394.333333333 178.166666667 405 148.333333333 405 113 c 0
 405 76.3333333333 393.333333333 46.5 370 23.5 c 0
 346.666666667 0.5 316.666666667 -11 280 -11 c 0
 226.666666667 -11 183.333333333 9.33333333333 150 50 c 0
 119.333333333 87.3333333333 104 133.333333333 104 188 c 0
 104 268.666666667 131.666666667 333 187 381 c 0
 239.666666667 426.333333333 307.333333333 449 390 449 c 0xdfb0
 452 449 507.666666667 433 557 401 c 1
 595 427.666666667 633.666666667 441 673 441 c 2
 941 441 l 1
 941 372 l 1xefb0
623 170 m 0
 623 228 604.666666667 276.333333333 568 315 c 1
 530 282.333333333 511 234 511 170 c 0
 511 98 529.333333333 62 566 62 c 0
 604 62 623 98 623 170 c 0
337 117 m 256
 337 133 332.166666667 146.833333333 322.5 158.5 c 0
 312.833333333 170.166666667 300.333333333 176 285 176 c 0
 269 176 256.166666667 170.166666667 246.5 158.5 c 0
 236.833333333 146.833333333 232 133 232 117 c 256
 232 101 236.833333333 87 246.5 75 c 0
 256.166666667 63 269 57 285 57 c 0
 300.333333333 57 312.833333333 63 322.5 75 c 0
 332.166666667 87 337 101 337 117 c 256
EndSplineSet
Validated: 1
Ligature2: "'half' form Substitution lookup 5-1" uni0BA9 uni0BCD
Ligature2: "'haln' Halant Forms in Tamil lookup 4-1" uni0BA9 uni0BCD
EndChar

StartChar: p
Encoding: 125 -1 82
Width: 590
Flags: W
HStem: -1 70<171 518> 503 132<310.987 391.013>
VStem: 101 70<69 440> 295 112<523.626 621.982> 518 70<69 440>
LayerCount: 2
Fore
SplineSet
407 569 m 0
 407 551.666666667 401.833333333 536.333333333 391.5 523 c 0
 381.166666667 509.666666667 367.666666667 503 351 503 c 256
 334.333333333 503 320.833333333 509.666666667 310.5 523 c 0
 300.166666667 536.333333333 295 551.666666667 295 569 c 0
 295 585.666666667 300.166666667 600.833333333 310.5 614.5 c 0
 320.833333333 628.166666667 334.333333333 635 351 635 c 256
 367.666666667 635 381.166666667 628.166666667 391.5 614.5 c 0
 401.833333333 600.833333333 407 585.666666667 407 569 c 0
588 -1 m 1
 101 -1 l 1
 101 440 l 1
 171 440 l 1
 171 69 l 1
 518 69 l 1
 518 440 l 1
 588 440 l 1
 588 -1 l 1
EndSplineSet
Validated: 1
LCarets2: 1 0 
Ligature2: "'haln' Halant Forms in Tamil lookup 4-1" uni0BAA uni0BCD
Ligature2: "'half' form Substitution lookup 5-1" uni0BAA uni0BCD
EndChar

StartChar: m
Encoding: 126 -1 83
Width: 708
Flags: W
HStem: 0 72<174 350 427 603.247> 380 71<442.765 548.465> 503 132<430.987 511.013>
VStem: 102 72<72 438> 350 77<72 361.951> 415 112<523.626 621.982> 627 81<94.8572 277.599>
LayerCount: 2
Fore
SplineSet
527 569 m 0xf6
 527 551.666666667 521.833333333 536.333333333 511.5 523 c 0
 501.166666667 509.666666667 487.666666667 503 471 503 c 256
 454.333333333 503 440.833333333 509.666666667 430.5 523 c 0
 420.166666667 536.333333333 415 551.666666667 415 569 c 0
 415 585.666666667 420.166666667 600.833333333 430.5 614.5 c 0
 440.833333333 628.166666667 454.333333333 635 471 635 c 256
 487.666666667 635 501.166666667 628.166666667 511.5 614.5 c 0
 521.833333333 600.833333333 527 585.666666667 527 569 c 0xf6
708 181 m 0
 708 126.333333333 692.666666667 82.5 662 49.5 c 0
 631.333333333 16.5 589 0 535 0 c 2
 102 0 l 1
 102 438 l 1
 174 438 l 1
 174 72 l 1
 350 72 l 1
 350 317 l 2xfa
 350 353.666666667 362.666666667 385.166666667 388 411.5 c 0
 413.333333333 437.833333333 444.666666667 451 482 451 c 0
 547.333333333 451 602 421.666666667 646 363 c 1
 687.333333333 309 708 248.333333333 708 181 c 0
627 175 m 0
 627 220.333333333 615 264 591 306 c 0
 563 355.333333333 528 380 486 380 c 0
 469.333333333 380 455.333333333 374.166666667 444 362.5 c 0
 432.666666667 350.833333333 427 336.666666667 427 320 c 2
 427 72 l 1
 550 72 l 2
 601.333333333 72 627 106.333333333 627 175 c 0
EndSplineSet
Validated: 1
Ligature2: "'half' form Substitution lookup 5-1" uni0BAE uni0BCD
Ligature2: "'haln' Halant Forms in Tamil lookup 4-1" uni0BAE uni0BCD
EndChar

StartChar: y
Encoding: 127 -1 84
Width: 621
Flags: W
HStem: -10 69<190.07 271.525 359 554> 503 132<415.987 496.013>
VStem: 101 73<79.1107 439> 287 72<73.1934 439> 400 112<523.626 621.982> 554 68<60 439>
LayerCount: 2
Fore
SplineSet
512 569 m 0
 512 551.666666667 506.833333333 536.333333333 496.5 523 c 0
 486.166666667 509.666666667 472.666666667 503 456 503 c 256
 439.333333333 503 425.833333333 509.666666667 415.5 523 c 0
 405.166666667 536.333333333 400 551.666666667 400 569 c 0
 400 585.666666667 405.166666667 600.833333333 415.5 614.5 c 0
 425.833333333 628.166666667 439.333333333 635 456 635 c 256
 472.666666667 635 486.166666667 628.166666667 496.5 614.5 c 0
 506.833333333 600.833333333 512 585.666666667 512 569 c 0
622 -3 m 1
 297 -3 l 1
 297 35 l 1
 281 5 259 -10 231 -10 c 0
 144.333333333 -10 101 31 101 113 c 2
 101 439 l 1
 174 439 l 1
 174 123 l 2
 174 106.333333333 179.166666667 91.5 189.5 78.5 c 0
 199.833333333 65.5 213 59 229 59 c 0
 246.333333333 59 260.333333333 66.1666666667 271 80.5 c 0
 281.666666667 94.8333333333 287 110.666666667 287 128 c 2
 287 439 l 1
 359 439 l 1
 359 60 l 1
 554 60 l 1
 554 439 l 1
 622 439 l 1
 622 -3 l 1
EndSplineSet
Validated: 1
LCarets2: 1 0 
Ligature2: "'haln' Halant Forms in Tamil lookup 4-1" uni0BAF uni0BCD
Ligature2: "'half' form Substitution lookup 5-1" uni0BAF uni0BCD
EndChar

StartChar: r
Encoding: 128 -1 85
Width: 534
Flags: W
HStem: 1 21G<101 172> 372 69<172 305 375 533> 503 132<305.987 386.013>
VStem: 101 71<1 372> 290 112<523.626 621.982> 305 70<32.4248 372>
LayerCount: 2
Fore
SplineSet
402 569 m 0xf8
 402 551.666666667 396.833333333 536.333333333 386.5 523 c 0
 376.166666667 509.666666667 362.666666667 503 346 503 c 256
 329.333333333 503 315.833333333 509.666666667 305.5 523 c 0
 295.166666667 536.333333333 290 551.666666667 290 569 c 0
 290 585.666666667 295.166666667 600.833333333 305.5 614.5 c 0
 315.833333333 628.166666667 329.333333333 635 346 635 c 256
 362.666666667 635 376.166666667 628.166666667 386.5 614.5 c 0
 396.833333333 600.833333333 402 585.666666667 402 569 c 0xf8
533 372 m 1
 375 372 l 1
 375 -1 l 1
 339 -11.6666666667 303.666666667 -34.3333333333 269 -69 c 0
 237.666666667 -99.6666666667 214.333333333 -135.666666667 199 -177 c 1
 139 -136 l 1
 157 -94 181.666666667 -57 213 -25 c 1
 233 -5.66666666667 247 7.33333333333 255 14 c 0
 269.666666667 25.3333333333 286.333333333 35 305 43 c 1
 305 372 l 1xf4
 172 372 l 1
 172 1 l 1
 101 1 l 1
 101 441 l 1
 533 441 l 1
 533 372 l 1
EndSplineSet
Validated: 1
Ligature2: "'haln' Halant Forms in Tamil lookup 4-1" uni0BB0 uni0BCD
Ligature2: "'half' form Substitution lookup 5-1" uni0BB0 uni0BCD
EndChar

StartChar: rr
Encoding: 129 -1 86
Width: 603
Flags: W
HStem: -110 65<157.892 447.609> -1 21G<100 175 286 361> 380 71<188.698 270.674 378.527 482.558> 503 132<295.987 376.013>
VStem: 75 70<-198.312 -118.736> 100 75<-1 366.951> 280 112<523.626 621.982> 286 75<-1 360.405> 535 69<65.3074 312.722>
LayerCount: 2
Fore
SplineSet
392 569 m 0xf280
 392 551.666666667 386.833333333 536.333333333 376.5 523 c 0
 366.166666667 509.666666667 352.666666667 503 336 503 c 256
 319.333333333 503 305.833333333 509.666666667 295.5 523 c 0
 285.166666667 536.333333333 280 551.666666667 280 569 c 0
 280 585.666666667 285.166666667 600.833333333 295.5 614.5 c 0
 305.833333333 628.166666667 319.333333333 635 336 635 c 256
 352.666666667 635 366.166666667 628.166666667 376.5 614.5 c 0
 386.833333333 600.833333333 392 585.666666667 392 569 c 0xf280
604 184 m 0
 604 104 585.333333333 37 548 -17 c 0
 504.666666667 -79 445 -110 369 -110 c 2
 188 -110 l 2
 176 -110 165.833333333 -114 157.5 -122 c 0
 149.166666667 -130 145 -140 145 -152 c 0
 145 -169.333333333 153 -180.666666667 169 -186 c 1
 122 -232 l 1
 90.6666666667 -212.666666667 75 -184 75 -146 c 0xf880
 75 -118 85.5 -94.1666666667 106.5 -74.5 c 0
 127.5 -54.8333333333 152 -45 180 -45 c 2
 371 -45 l 2
 425.666666667 -45 468 -18.6666666667 498 34 c 0
 522.666666667 78 535 129.666666667 535 189 c 0
 535 236.333333333 528 277 514 311 c 0
 494.666666667 357 464.666666667 380 424 380 c 0
 406.666666667 380 391.833333333 373.833333333 379.5 361.5 c 0
 367.166666667 349.166666667 361 334.333333333 361 317 c 2
 361 -1 l 1
 286 -1 l 1
 286 317 l 2
 286 333.666666667 280.666666667 348.333333333 270 361 c 0
 259.333333333 373.666666667 245.666666667 380 229 380 c 0
 213.666666667 380 200.833333333 373.5 190.5 360.5 c 0
 180.166666667 347.5 175 333 175 317 c 2
 175 -1 l 1
 100 -1 l 1
 100 322 l 2xf580
 100 357.333333333 113 387.666666667 139 413 c 0
 165 438.333333333 195.666666667 451 231 451 c 0
 268.333333333 451 299.333333333 436.666666667 324 408 c 1
 348 436.666666667 381.666666667 451 425 451 c 0
 489 451 536.333333333 420.666666667 567 360 c 0
 591.666666667 312.666666667 604 254 604 184 c 0
EndSplineSet
Validated: 1
LCarets2: 1 0 
Ligature2: "'haln' Halant Forms in Tamil lookup 4-1" uni0BB1 uni0BCD
Ligature2: "'half' form Substitution lookup 5-1" uni0BB1 uni0BCD
EndChar

StartChar: l
Encoding: 130 -1 87
Width: 782
Flags: W
HStem: -11 68<255.455 333.891 550.082 665.984> 176 63<255.364 333.616> 382 68<259.766 425.342> 503 132<445.987 526.013>
VStem: 103 67<116.911 293.012> 195 47<106.258 161.576> 347 68<71.4647 161.993> 430 112<523.626 621.982> 461 69<85.8464 347.157> 706 75<105.867 332.618>
LayerCount: 2
Fore
SplineSet
542 569 m 0xff40
 542 551.666666667 536.833333333 536.333333333 526.5 523 c 0
 516.166666667 509.666666667 502.666666667 503 486 503 c 256
 469.333333333 503 455.833333333 509.666666667 445.5 523 c 0
 435.166666667 536.333333333 430 551.666666667 430 569 c 0
 430 585.666666667 435.166666667 600.833333333 445.5 614.5 c 0
 455.833333333 628.166666667 469.333333333 635 486 635 c 256
 502.666666667 635 516.166666667 628.166666667 526.5 614.5 c 0
 536.833333333 600.833333333 542 585.666666667 542 569 c 0xff40
781 230 m 0
 781 163.333333333 768.666666667 109 744 67 c 0
 713.333333333 15 667 -11 605 -11 c 0
 562.333333333 -11 527.666666667 3.5 501 32.5 c 0
 474.333333333 61.5 461 97.3333333333 461 140 c 2
 461 287 l 2
 461 317.666666667 449.666666667 341.666666667 427 359 c 0
 406.333333333 374.333333333 380.333333333 382 349 382 c 0
 298.333333333 382 255.833333333 365.166666667 221.5 331.5 c 0
 187.166666667 297.833333333 170 255.666666667 170 205 c 0
 170 165.666666667 179.666666667 132.666666667 199 106 c 1
 196.333333333 115.333333333 195 123.666666667 195 131 c 0
 195 162.333333333 204.666666667 188.166666667 224 208.5 c 0
 243.333333333 228.833333333 268.333333333 239 299 239 c 0
 333.666666667 239 361.666666667 226.833333333 383 202.5 c 0
 404.333333333 178.166666667 415 148.333333333 415 113 c 0
 415 76.3333333333 403.333333333 46.5 380 23.5 c 0
 356.666666667 0.5 326.666666667 -11 290 -11 c 0
 232.666666667 -11 186.333333333 11.3333333333 151 56 c 0
 119 97.3333333333 103 147.333333333 103 206 c 0
 103 277.333333333 126.166666667 335.833333333 172.5 381.5 c 0
 218.833333333 427.166666667 277.666666667 450 349 450 c 0
 398.333333333 450 439.666666667 437.333333333 473 412 c 1
 511 384.666666667 530 347.333333333 530 300 c 2
 530 150 l 2xfec0
 530 124.666666667 535.333333333 103 546 85 c 0
 559.333333333 62.3333333333 578 51 602 51 c 0
 640 51 668 70.6666666667 686 110 c 0
 699.333333333 139.333333333 706 175.666666667 706 219 c 0
 706 310.333333333 675.333333333 375.333333333 614 414 c 1
 661 464 l 1
 741 412 781 334 781 230 c 0
347 117 m 256
 347 133 342.166666667 146.833333333 332.5 158.5 c 0
 322.833333333 170.166666667 310.333333333 176 295 176 c 0
 279 176 266.166666667 170.166666667 256.5 158.5 c 0
 246.833333333 146.833333333 242 133 242 117 c 256
 242 101 246.833333333 87 256.5 75 c 0
 266.166666667 63 279 57 295 57 c 0
 310.333333333 57 322.833333333 63 332.5 75 c 0
 342.166666667 87 347 101 347 117 c 256
EndSplineSet
Validated: 1
LCarets2: 1 0 
Ligature2: "'haln' Halant Forms in Tamil lookup 4-1" uni0BB2 uni0BCD
Ligature2: "'half' form Substitution lookup 5-1" uni0BB2 uni0BCD
EndChar

StartChar: ll
Encoding: 131 -1 88
Width: 867
Flags: W
HStem: -11 68<255.089 333.891> 1 21G<471 540 677 748> 176 63<254.792 333.616> 372 66<540 677 748 868> 381 69<250.809 415.742> 503 132<580.987 661.013>
VStem: 103 65<117.633 292.354> 195 47<102.65 162.466> 347 68<71.4647 161.993> 471 69<1 330.149> 565 112<523.626 621.982> 677 71<1 372>
LayerCount: 2
Fore
SplineSet
677 569 m 0x27e0
 677 551.666666667 671.833333333 536.333333333 661.5 523 c 0
 651.166666667 509.666666667 637.666666667 503 621 503 c 256
 604.333333333 503 590.833333333 509.666666667 580.5 523 c 0
 570.166666667 536.333333333 565 551.666666667 565 569 c 0
 565 585.666666667 570.166666667 600.833333333 580.5 614.5 c 0
 590.833333333 628.166666667 604.333333333 635 621 635 c 256
 637.666666667 635 651.166666667 628.166666667 661.5 614.5 c 0
 671.833333333 600.833333333 677 585.666666667 677 569 c 0x27e0
868 372 m 1x37d0
 748 372 l 1
 748 1 l 1
 677 1 l 1
 677 372 l 1
 540 372 l 1
 540 1 l 1
 471 1 l 1x77d0
 471 266 l 2
 471 301.333333333 456.333333333 329.666666667 427 351 c 0
 400.333333333 371 368.666666667 381 332 381 c 0
 284 381 244.666666667 363.166666667 214 327.5 c 0
 183.333333333 291.833333333 168 249.666666667 168 201 c 0
 168 162.333333333 179 129.333333333 201 102 c 1
 197 117.333333333 195 127 195 131 c 0
 195 162.333333333 204.666666667 188.166666667 224 208.5 c 0
 243.333333333 228.833333333 268.333333333 239 299 239 c 0
 333.666666667 239 361.666666667 226.833333333 383 202.5 c 0
 404.333333333 178.166666667 415 148.333333333 415 113 c 0
 415 76.3333333333 403.333333333 46.5 380 23.5 c 0
 356.666666667 0.5 326.666666667 -11 290 -11 c 0
 231.333333333 -11 184.666666667 11.6666666667 150 57 c 0
 118.666666667 99 103 150 103 210 c 0
 103 278 122.666666667 334.333333333 162 379 c 1
 202.666666667 426.333333333 256.666666667 450 324 450 c 0xafd0
 394.666666667 450 443.666666667 424.666666667 471 374 c 1
 471 438 l 1
 868 438 l 1
 868 372 l 1x37d0
347 117 m 256
 347 133 342.166666667 146.833333333 332.5 158.5 c 0
 322.833333333 170.166666667 310.333333333 176 295 176 c 0
 279 176 266.166666667 170.333333333 256.5 159 c 0
 246.833333333 147.666666667 242 133.666666667 242 117 c 0
 242 101 246.833333333 87 256.5 75 c 0
 266.166666667 63 279 57 295 57 c 0xa7c0
 310.333333333 57 322.833333333 63 332.5 75 c 0
 342.166666667 87 347 101 347 117 c 256
EndSplineSet
Validated: 1
LCarets2: 1 0 
Ligature2: "'haln' Halant Forms in Tamil lookup 4-1" uni0BB3 uni0BCD
Ligature2: "'half' form Substitution lookup 5-1" uni0BB3 uni0BCD
EndChar

StartChar: zh
Encoding: 132 -1 89
Width: 708
Flags: W
HStem: -288 67<184.632 327.286> -129 76<470.303 596> -112 69<165.673 293> 0 72<174 350 428 603.247> 380 71<442.765 548.465> 503 132<435.987 516.013>
VStem: 90 72<-197.724 -115.574> 102 72<72 438> 350 77<-44.1387 0 72 361.951> 420 112<523.626 621.982> 627 81<94.8572 277.599>
LayerCount: 2
Fore
SplineSet
532 569 m 0x9c60
 532 551.666666667 526.833333333 536.333333333 516.5 523 c 0
 506.166666667 509.666666667 492.666666667 503 476 503 c 256
 459.333333333 503 445.833333333 509.666666667 435.5 523 c 0
 425.166666667 536.333333333 420 551.666666667 420 569 c 0
 420 585.666666667 425.166666667 600.833333333 435.5 614.5 c 0
 445.833333333 628.166666667 459.333333333 635 476 635 c 256
 492.666666667 635 506.166666667 628.166666667 516.5 614.5 c 0
 526.833333333 600.833333333 532 585.666666667 532 569 c 0x9c60
708 181 m 0
 708 126.333333333 692.666666667 82.5 662 49.5 c 0
 631.333333333 16.5 589 0 535 0 c 2
 428 0 l 1
 428 -11 l 2
 428 -39 449.333333333 -53 492 -53 c 2
 596 -53 l 1
 596 -129 l 1
 520 -129 l 2xdda0
 498.666666667 -129 475.666666667 -142.666666667 451 -170 c 0
 413 -213.333333333 389 -239 379 -247 c 0
 343.666666667 -274.333333333 302 -288 254 -288 c 0
 213.333333333 -288 177 -277 145 -255 c 0
 108.333333333 -230.333333333 90 -198.666666667 90 -160 c 0
 90 -125.333333333 101.166666667 -97.1666666667 123.5 -75.5 c 0
 145.833333333 -53.8333333333 174.333333333 -43 209 -43 c 2
 293 -43 l 1
 293 -112 l 1
 206 -112 l 2
 176.666666667 -112 162 -125.666666667 162 -153 c 0xbea0
 162 -175 172.666666667 -192.333333333 194 -205 c 0
 212 -215.666666667 232.666666667 -221 256 -221 c 0
 284 -221 307.666666667 -213.666666667 327 -199 c 0
 337.666666667 -191 353 -174.333333333 373 -149 c 0
 391.666666667 -125.666666667 409 -108.666666667 425 -98 c 1
 375.666666667 -92.6666666667 351 -60 351 0 c 1
 102 0 l 1
 102 438 l 1
 174 438 l 1
 174 72 l 1
 350 72 l 1
 350 317 l 2xbda0
 350 353.666666667 362.666666667 385.166666667 388 411.5 c 0
 413.333333333 437.833333333 444.666666667 451 482 451 c 0
 547.333333333 451 602 421.666666667 646 363 c 1
 687.333333333 309 708 248.333333333 708 181 c 0
627 175 m 0
 627 220.333333333 615 264 591 306 c 0
 563 355.333333333 528 380 486 380 c 0
 469.333333333 380 455.333333333 374.166666667 444 362.5 c 0
 432.666666667 350.833333333 427 336.666666667 427 320 c 2
 427 72 l 1
 550 72 l 2
 601.333333333 72 627 106.333333333 627 175 c 0
EndSplineSet
Validated: 1
LCarets2: 1 0 
Ligature2: "'haln' Halant Forms in Tamil lookup 4-1" uni0BB4 uni0BCD
Ligature2: "'half' form Substitution lookup 5-1" uni0BB4 uni0BCD
EndChar

StartChar: v
Encoding: 133 -1 90
Width: 806
Flags: W
HStem: -11 68<251.921 332.149> -1 68<553 738> 176 63<252.792 332.567> 382 67<258.776 436.657> 503 132<540.987 621.013>
VStem: 100 68<116.194 291.284> 193 47<107.295 162.466> 345 68<71.4647 162.25> 525 112<523.626 621.982> 528 70<106.475 289.126> 738 69<67 438>
LayerCount: 2
Fore
SplineSet
637 569 m 0x3fa0
 637 551.666666667 631.833333333 536.333333333 621.5 523 c 0
 611.166666667 509.666666667 597.666666667 503 581 503 c 256
 564.333333333 503 550.833333333 509.666666667 540.5 523 c 0
 530.166666667 536.333333333 525 551.666666667 525 569 c 0
 525 585.666666667 530.166666667 600.833333333 540.5 614.5 c 0
 550.833333333 628.166666667 564.333333333 635 581 635 c 256
 597.666666667 635 611.166666667 628.166666667 621.5 614.5 c 0
 631.833333333 600.833333333 637 585.666666667 637 569 c 0x3fa0
807 -1 m 1x7f60
 463 -1 l 1x7f60
 459 46 l 1
 505 86 528 136.333333333 528 197 c 0
 528 250.333333333 510.833333333 294.5 476.5 329.5 c 0
 442.166666667 364.5 398.666666667 382 346 382 c 0
 296 382 253.833333333 364.833333333 219.5 330.5 c 0
 185.166666667 296.166666667 168 254 168 204 c 0
 168 170 177 137.666666667 195 107 c 1
 193.666666667 115 193 123 193 131 c 0
 193 162.333333333 202.666666667 188.166666667 222 208.5 c 0
 241.333333333 228.833333333 266.333333333 239 297 239 c 0
 331.666666667 239 359.666666667 226.833333333 381 202.5 c 0
 402.333333333 178.166666667 413 148.333333333 413 113 c 0
 413 76.3333333333 401.333333333 46.5 378 23.5 c 0
 354.666666667 0.5 324.666666667 -11 288 -11 c 0
 231.333333333 -11 185.333333333 11.6666666667 150 57 c 0xbf60
 116.666666667 99 100 149 100 207 c 0
 100 278.333333333 123.166666667 336.5 169.5 381.5 c 0
 215.833333333 426.5 275 449 347 449 c 256
 419 449 478.833333333 426.166666667 526.5 380.5 c 0
 574.166666667 334.833333333 598 276 598 204 c 0
 598 156 583 110.333333333 553 67 c 1
 738 67 l 1
 738 438 l 1
 807 438 l 1
 807 -1 l 1x7f60
345 117 m 0
 345 133.666666667 340.333333333 147.666666667 331 159 c 0
 321.666666667 170.333333333 309 176 293 176 c 256
 277 176 264.166666667 170.333333333 254.5 159 c 0
 244.833333333 147.666666667 240 133.666666667 240 117 c 256
 240 100.333333333 244.666666667 86.6666666667 254 76 c 1
 264 63.3333333333 277 57 293 57 c 256xbf20
 309 57 321.666666667 63 331 75 c 0
 340.333333333 87 345 101 345 117 c 0
EndSplineSet
Validated: 1
Ligature2: "'haln' Halant Forms in Tamil lookup 4-1" uni0BB5 uni0BCD
Ligature2: "'half' form Substitution lookup 5-1" uni0BB5 uni0BCD
EndChar

StartChar: sh
Encoding: 134 -1 91
Width: 1052
Flags: W
HStem: -11 68<251.921 333.62> -1 70<543 820 892 979> 130 69<735.602 820 892 944.222> 176 63<252.535 332.143> 381 68<261.527 440.984 704.962 803.994> 503 132<560.987 641.013>
VStem: 100 68<116.194 290.292> 193 47<107.295 162.466> 345 68<67.3061 162.25> 518 69<107.078 301.347> 545 112<523.626 621.982> 613 70<245.794 359.455> 820 72<-222 -1 69 130 203 363.529> 979 72<69 171> 994 57<243.852 299>
LayerCount: 2
Fore
SplineSet
657 569 m 0x0fa8
 657 551.666666667 651.833333333 536.333333333 641.5 523 c 0
 631.166666667 509.666666667 617.666666667 503 601 503 c 256
 584.333333333 503 570.833333333 509.666666667 560.5 523 c 0
 550.166666667 536.333333333 545 551.666666667 545 569 c 0
 545 585.666666667 550.166666667 600.833333333 560.5 614.5 c 0
 570.833333333 628.166666667 584.333333333 635 601 635 c 256
 617.666666667 635 631.166666667 628.166666667 641.5 614.5 c 0
 651.833333333 600.833333333 657 585.666666667 657 569 c 0x0fa8
1051 -1 m 1x6fda
 892 -1 l 1
 892 -222 l 1
 820 -222 l 1
 820 -1 l 1
 820 -1 820 -1 453 -1 c 1x6fda
 448 48 l 1
 494.666666667 87.3333333333 518 138.666666667 518 202 c 0
 518 256 504 299 476 331 c 0
 446 364.333333333 404.333333333 381 351 381 c 0
 300.333333333 381 257.166666667 364.166666667 221.5 330.5 c 0
 185.833333333 296.833333333 168 254.666666667 168 204 c 0
 168 170 177 137.666666667 195 107 c 1
 193.666666667 115 193 123 193 131 c 0
 193 162.333333333 202.666666667 188.166666667 222 208.5 c 0
 241.333333333 228.833333333 266.333333333 239 297 239 c 0
 332.333333333 239 360.5 226.833333333 381.5 202.5 c 0
 402.5 178.166666667 413 148.333333333 413 113 c 0
 413 76.3333333333 401.333333333 46.5 378 23.5 c 0
 354.666666667 0.5 324.666666667 -11 288 -11 c 0
 231.333333333 -11 185.333333333 11.6666666667 150 57 c 0x9fda
 116.666666667 99 100 149 100 207 c 0
 100 277.666666667 124.166666667 335.666666667 172.5 381 c 0
 220.833333333 426.333333333 280.666666667 449 352 449 c 0
 421.333333333 449 477.833333333 426.333333333 521.5 381 c 0
 565.166666667 335.666666667 587 278.333333333 587 209 c 0
 587 157.666666667 572.333333333 111 543 69 c 1
 820 69 l 1
 820 130 l 1
 764 130 716.333333333 145.666666667 677 177 c 0
 634.333333333 210.333333333 613 254.333333333 613 309 c 0
 613 351.666666667 627.333333333 385.666666667 656 411 c 0
 684.666666667 436.333333333 721 449 765 449 c 0
 801.666666667 449 832 438.166666667 856 416.5 c 0
 880 394.833333333 892 365.666666667 892 329 c 2
 892 203 l 1
 919.333333333 207.666666667 942.333333333 217.666666667 961 233 c 0
 983 251.666666667 994 273.666666667 994 299 c 1
 1051 299 l 1
 1051 -1 l 1x6fda
979 69 m 1x4f8c
 979 171 l 1
 953 147.666666667 924 134.666666667 892 132 c 1
 892 69 l 1
 979 69 l 1x4f8c
820 324 m 2
 820 340.666666667 814 354 802 364 c 0
 790 374 775.666666667 379 759 379 c 0
 737 379 718.833333333 372.5 704.5 359.5 c 0
 690.166666667 346.5 683 329 683 307 c 0
 683 273.666666667 697.666666667 246.666666667 727 226 c 0
 753.666666667 208 784.666666667 199 820 199 c 1x2f98
 820 324 l 2
345 117 m 256
 345 133.666666667 340.333333333 147.666666667 331 159 c 0
 321.666666667 170.333333333 309 176 293 176 c 0
 276.333333333 176 263.333333333 170.333333333 254 159 c 0
 244.666666667 147.666666667 240 133.666666667 240 117 c 256
 240 100.333333333 244.666666667 86.6666666667 254 76 c 1
 263.333333333 63.3333333333 276.333333333 57 293 57 c 0x9f88
 309 57 321.666666667 63.3333333333 331 76 c 1
 340.333333333 86.6666666667 345 100.333333333 345 117 c 256
EndSplineSet
Validated: 1
Ligature2: "'haln' Halant Forms in Tamil lookup 4-1" uni0BB7 uni0BCD
Ligature2: "'half' form Substitution lookup 5-1" uni0BB7 uni0BCD
EndChar

StartChar: s
Encoding: 135 -1 92
Width: 965
Flags: W
HStem: -11 68<249.578 328.984 735.611 854.307> 0 21G<463 532> 176 63<249.708 328.374> 383 67<255.364 428.46 542.179 638.273> 503 132<445.987 526.013>
VStem: 97 68<116.194 291.82> 189 48<107.295 162.466> 341 69<71.9338 162.25> 430 112<523.626 621.982> 463 69<0 349.243> 649 70<79.7532 371.093> 895 70<105.665 333.078>
LayerCount: 2
Fore
SplineSet
542 569 m 0x3fb0
 542 551.666666667 536.833333333 536.333333333 526.5 523 c 0
 516.166666667 509.666666667 502.666666667 503 486 503 c 256
 469.333333333 503 455.833333333 509.666666667 445.5 523 c 0
 435.166666667 536.333333333 430 551.666666667 430 569 c 0
 430 585.666666667 435.166666667 600.833333333 445.5 614.5 c 0
 455.833333333 628.166666667 469.333333333 635 486 635 c 256
 502.666666667 635 516.166666667 628.166666667 526.5 614.5 c 0
 536.833333333 600.833333333 542 585.666666667 542 569 c 0x3fb0
965 230 m 0
 965 162.666666667 953.333333333 108.333333333 930 67 c 0
 900.666666667 15 855 -11 793 -11 c 0xbf70
 751 -11 716.5 3.66666666667 689.5 33 c 0
 662.5 62.3333333333 649 98 649 140 c 2
 649 331 l 2
 649 345 643.333333333 357.166666667 632 367.5 c 0
 620.666666667 377.833333333 607.666666667 383 593 383 c 0
 552.333333333 383 532 362.333333333 532 321 c 2
 532 0 l 1
 463 0 l 1x7f70
 463 282 l 2
 463 349.333333333 422 383 340 383 c 0
 291.333333333 383 250 365.5 216 330.5 c 0
 182 295.5 165 253.333333333 165 204 c 0
 165 170 174 137.666666667 192 107 c 1
 190 115 189 123 189 131 c 0
 189 162.333333333 198.666666667 188.166666667 218 208.5 c 0
 237.333333333 228.833333333 262.666666667 239 294 239 c 0
 328.666666667 239 356.666666667 226.833333333 378 202.5 c 0
 399.333333333 178.166666667 410 148.333333333 410 113 c 0
 410 76.3333333333 398.333333333 46.5 375 23.5 c 0
 351.666666667 0.5 321.333333333 -11 284 -11 c 0
 228 -11 182 11.6666666667 146 57 c 0xbf70
 113.333333333 99 97 149 97 207 c 0
 97 273.666666667 119.833333333 330.833333333 165.5 378.5 c 0
 211.166666667 426.166666667 267.333333333 450 334 450 c 0
 413.333333333 450 463.333333333 428.666666667 484 386 c 1
 488.666666667 406 502.666666667 422 526 434 c 0
 546 444.666666667 567.666666667 450 591 450 c 0
 623.666666667 450 652.333333333 441 677 423 c 0
 705 403 719 377.333333333 719 346 c 2
 719 140 l 2
 719 115.333333333 724.333333333 95 735 79 c 0
 747.666666667 60.3333333333 766 51 790 51 c 0
 828.666666667 51 857 70.6666666667 875 110 c 0
 888.333333333 139.333333333 895 175.666666667 895 219 c 0
 895 310.333333333 864 375.333333333 802 414 c 1
 850 464 l 1
 926.666666667 413.333333333 965 335.333333333 965 230 c 0
341 117 m 256
 341 133.666666667 336.333333333 147.666666667 327 159 c 0
 317.666666667 170.333333333 305 176 289 176 c 256
 273 176 260.333333333 170.333333333 251 159 c 0
 241.666666667 147.666666667 237 133.666666667 237 117 c 256
 237 100.333333333 241.333333333 86.6666666667 250 76 c 0
 260 63.3333333333 273 57 289 57 c 256
 305 57 318 63.3333333333 328 76 c 0
 336.666666667 86.6666666667 341 100.333333333 341 117 c 256
EndSplineSet
Validated: 1
Ligature2: "'haln' Halant Forms in Tamil lookup 4-1" uni0BB8 uni0BCD
Ligature2: "'half' form Substitution lookup 5-1" uni0BB8 uni0BCD
EndChar

StartChar: h
Encoding: 136 -1 93
Width: 1181
Flags: W
HStem: -110 65<172.892 1022.61> -11 68<251.921 333.62> -1 70<543 675> 176 63<252.535 332.143> 380 71<259.15 443.209 763.698 845.674 953.527 1057.56> 503 132<850.987 931.013>
VStem: 90 70<-198.312 -118.736> 100 68<116.194 290.292> 193 47<107.295 162.466> 345 68<67.3061 162.25> 518 69<108.876 301.347> 675 75<69 366.951> 835 112<523.626 621.982> 861 75<-1 360.405> 1110 69<65.3074 312.722>
LayerCount: 2
Fore
SplineSet
947 569 m 0x9cfa
 947 551.666666667 941.833333333 536.333333333 931.5 523 c 0
 921.166666667 509.666666667 907.666666667 503 891 503 c 256
 874.333333333 503 860.833333333 509.666666667 850.5 523 c 0
 840.166666667 536.333333333 835 551.666666667 835 569 c 0
 835 585.666666667 840.166666667 600.833333333 850.5 614.5 c 0
 860.833333333 628.166666667 874.333333333 635 891 635 c 256
 907.666666667 635 921.166666667 628.166666667 931.5 614.5 c 0
 941.833333333 600.833333333 947 585.666666667 947 569 c 0x9cfa
1179 184 m 0
 1179 104 1160.33333333 37 1123 -17 c 0
 1079.66666667 -79 1020 -110 944 -110 c 2
 203 -110 l 2
 191 -110 180.833333333 -114 172.5 -122 c 0
 164.166666667 -130 160 -140 160 -152 c 0
 160 -169.333333333 168 -180.666666667 184 -186 c 1
 137 -232 l 1
 105.666666667 -212.666666667 90 -184 90 -146 c 0
 90 -118 100.5 -94.1666666667 121.5 -74.5 c 0
 142.5 -54.8333333333 167 -45 195 -45 c 2
 946 -45 l 2
 1000.66666667 -45 1043 -18.6666666667 1073 34 c 0
 1097.66666667 78 1110 129.666666667 1110 189 c 0
 1110 237 1103 277.666666667 1089 311 c 0
 1069.66666667 357 1039.66666667 380 999 380 c 0
 981.666666667 380 966.833333333 373.833333333 954.5 361.5 c 0
 942.166666667 349.166666667 936 334.333333333 936 317 c 2
 936 -1 l 1
 861 -1 l 1
 861 317 l 2
 861 333.666666667 855.666666667 348.333333333 845 361 c 0
 834.333333333 373.666666667 820.666666667 380 804 380 c 0
 788.666666667 380 775.833333333 373.5 765.5 360.5 c 0
 755.166666667 347.5 750 333 750 317 c 2
 750 -1 l 1
 453 -1 l 1xbef6
 448 48 l 1
 494.666666667 87.3333333333 518 138.666666667 518 202 c 0
 518 256 504 299 476 331 c 0
 446 364.333333333 404.333333333 381 351 381 c 0
 300.333333333 381 257.166666667 364.166666667 221.5 330.5 c 0
 185.833333333 296.833333333 168 254.666666667 168 204 c 0
 168 170 177 137.666666667 195 107 c 1
 193.666666667 115 193 123 193 131 c 0
 193 162.333333333 202.666666667 188.166666667 222 208.5 c 0
 241.333333333 228.833333333 266.333333333 239 297 239 c 0
 332.333333333 239 360.5 226.833333333 381.5 202.5 c 0
 402.5 178.166666667 413 148.333333333 413 113 c 0
 413 76.3333333333 401.333333333 46.5 378 23.5 c 0
 354.666666667 0.5 324.666666667 -11 288 -11 c 0
 231.333333333 -11 185.333333333 11.6666666667 150 57 c 0xddf6
 116.666666667 99 100 149 100 207 c 0
 100 277.666666667 124.166666667 335.666666667 172.5 381 c 0
 220.833333333 426.333333333 280.666666667 449 352 449 c 0
 421.333333333 449 477.833333333 426.333333333 521.5 381 c 0
 565.166666667 335.666666667 587 278.333333333 587 209 c 0
 587 159.666666667 572.333333333 113 543 69 c 1
 583 69.6666666667 627 69.6666666667 675 69 c 1xbdf6
 675 322 l 2
 675 357.333333333 688 387.666666667 714 413 c 0
 740 438.333333333 770.666666667 451 806 451 c 0
 843.333333333 451 874.333333333 436.666666667 899 408 c 1
 923 436.666666667 956.666666667 451 1000 451 c 0
 1064 451 1111.33333333 420.666666667 1142 360 c 0
 1166.66666667 312.666666667 1179 254 1179 184 c 0
345 117 m 256
 345 133.666666667 340.333333333 147.666666667 331 159 c 0
 321.666666667 170.333333333 309 176 293 176 c 0
 276.333333333 176 263.333333333 170.333333333 254 159 c 0
 244.666666667 147.666666667 240 133.666666667 240 117 c 256
 240 100.333333333 244.666666667 86.6666666667 254 76 c 1
 263.333333333 63.3333333333 276.333333333 57 293 57 c 0xdcf2
 309 57 321.666666667 63.3333333333 331 76 c 1
 340.333333333 86.6666666667 345 100.333333333 345 117 c 256
EndSplineSet
Validated: 33
Ligature2: "'haln' Halant Forms in Tamil lookup 4-1" uni0BB9 uni0BCD
Ligature2: "'half' form Substitution lookup 5-1" uni0BB9 uni0BCD
EndChar

StartChar: ksh
Encoding: 137 -1 94
Width: 1333
Flags: W
HStem: -12 65<217.309 359.266 576.027 642.872> -1 70<823 1100 1172 1259> 130 69<1016.1 1100 1172 1224> 186 71<176.937 215 284 382 450 497> 264 69<611.397 742.733> 369 69<284 382 450 578> 379 70<983.802 1085.72> 503 132<825.987 906.013>
VStem: 103 69<93.5269 178.299> 215 69<257 369> 382 68<76.0286 186 257 369> 492 67<67.6094 181.436> 648 64<52.6199 155.677> 783 68<88.547 223.914> 810 112<523.626 621.982> 893 70<246.869 359.551> 1100 72<-222 -1 69 130 202 363.529> 1259 72<69 171> 1274 57<243.852 299>
LayerCount: 2
Fore
SplineSet
922 569 m 0x09fa80
 922 551.666666667 916.833333333 536.333333333 906.5 523 c 0
 896.166666667 509.666666667 882.666666667 503 866 503 c 256
 849.333333333 503 835.833333333 509.666666667 825.5 523 c 0
 815.166666667 536.333333333 810 551.666666667 810 569 c 0
 810 585.666666667 815.166666667 600.833333333 825.5 614.5 c 0
 835.833333333 628.166666667 849.333333333 635 866 635 c 256
 882.666666667 635 896.166666667 628.166666667 906.5 614.5 c 0
 916.833333333 600.833333333 922 585.666666667 922 569 c 0x09fa80
1331 -1 m 1x6bfda0
 1172 -1 l 1
 1172 -222 l 1
 1100 -222 l 1
 1100 -1 l 1
 1100 -1 1100 -1 728 -1 c 1x6bfda0
 724 48 l 1
 763.333333333 81.3333333333 783 117.666666667 783 157 c 0
 783 187 772.833333333 212.333333333 752.5 233 c 0
 732.166666667 253.666666667 706.666666667 264 676 264 c 0
 643.333333333 264 621.333333333 256.333333333 610 241 c 1
 637.333333333 237.666666667 661.166666667 221.5 681.5 192.5 c 0
 701.833333333 163.5 712 134.666666667 712 106 c 0
 712 76 704.333333333 49.6666666667 689 27 c 0
 671 1.66666666667 647.333333333 -11 618 -11 c 0
 581.333333333 -11 551 4 527 34 c 0
 504.333333333 62 492.666666667 95 492 133 c 1
 492 150 l 2
 492 162.666666667 493.666666667 174.666666667 497 186 c 1
 450 186 l 1
 450 133 l 2
 450 85.6666666667 435.5 49.6666666667 406.5 25 c 0
 377.5 0.333333333333 338.666666667 -12 290 -12 c 0
 244.666666667 -12 203 2.33333333333 165 31 c 0
 123.666666667 62.3333333333 103 100.333333333 103 145 c 0
 103 220.333333333 140.333333333 257.666666667 215 257 c 1
 215 438 l 1
 578 438 l 1
 578 369 l 1
 450 369 l 1
 450 257 l 1
 526 257 l 1x9dfda0
 558 307.666666667 608 333 676 333 c 0
 724 333 765.166666667 316 799.5 282 c 0
 833.833333333 248 851 207 851 159 c 0
 851 126.333333333 841.666666667 96.3333333333 823 69 c 1
 823 69 823 69 1100 69 c 1
 1100 130 l 1
 1044.66666667 130 997 145.666666667 957 177 c 0
 914.333333333 210.333333333 893 254.333333333 893 309 c 0
 893 351.666666667 908 386 938 412 c 0
 966 436.666666667 1001.66666667 449 1045 449 c 0
 1081.66666667 449 1112 438.166666667 1136 416.5 c 0
 1160 394.833333333 1172 365.666666667 1172 329 c 2
 1172 202 l 1
 1199.33333333 207.333333333 1222.33333333 217.666666667 1241 233 c 0
 1263 251.666666667 1274 273.666666667 1274 299 c 1
 1331 299 l 1
 1331 -1 l 1x6bfda0
1259 69 m 1x49f8c0
 1259 171 l 1
 1232.33333333 147.666666667 1203.33333333 134.666666667 1172 132 c 1
 1172 69 l 1
 1259 69 l 1x49f8c0
1100 324 m 2
 1100 340.666666667 1094.16666667 354 1082.5 364 c 0
 1070.83333333 374 1056.33333333 379 1039 379 c 0
 1017 379 998.833333333 372.5 984.5 359.5 c 0
 970.166666667 346.5 963 329 963 307 c 0
 963 273.666666667 978 246.666666667 1008 226 c 0
 1034 208 1064.66666667 199 1100 199 c 1x2bf980
 1100 324 l 2
648 104 m 0
 648 110 647.333333333 116 646 122 c 0
 643.333333333 135.333333333 634.166666667 148.833333333 618.5 162.5 c 0
 602.833333333 176.166666667 588 183 574 183 c 0
 571.333333333 183 569 182.666666667 567 182 c 1
 561.666666667 170 559 156 559 140 c 0
 559 129.333333333 560 118.666666667 562 108 c 0
 564 95.3333333333 570 82.3333333333 580 69 c 0x49f880
 590 55.6666666667 600.666666667 49 612 49 c 0
 624 49 633.333333333 55.3333333333 640 68 c 0
 645.333333333 78.6666666667 648 90.6666666667 648 104 c 0
382 257 m 1x1df880
 382 369 l 1
 284 369 l 1
 284 257 l 1
 382 257 l 1x1df880
382 130 m 1xa9f880
 382 131 l 1
 382 186 l 1
 233 186 l 2x19f880
 192.333333333 186 172 172 172 144 c 0
 172 118 185.666666667 96 213 78 c 0
 237.666666667 61.3333333333 263.333333333 53 290 53 c 0
 348 53 378.666666667 78.6666666667 382 130 c 1xa9f880
EndSplineSet
Validated: 33
Ligature2: "'haln' Halant Forms in Tamil lookup 4-1" ksha uni0BCD
Ligature2: "'half' form Substitution lookup 5-1" ksha uni0BCD
EndChar

StartChar: ksha
Encoding: 138 -1 95
Width: 1364
VWidth: 1048
Flags: W
HStem: -12 66<224.141 367.772 590.669 657.384> -1 72<843 1126 1200 1289> 133 71<1040.23 1126 1200 1252.78> 190 73<181.166 220 291 391 461 509> 270 71<626.152 760.737> 378 71<291 391 461 592> 388 72<1007.25 1110.74>
VStem: 105 71<95.9617 182.152> 220 71<263 378> 391 70<77.6187 190 263 378> 504 68<70.9873 185.435> 664 65<54.2827 157.159> 802 69<91.9325 229.033> 914 72<252.952 367.135> 1126 74<-227 -1 71 133 207 372.528> 1289 74<71 175> 1305 58<249.553 306>
LayerCount: 2
Fore
SplineSet
1363 -1 m 1x6bfe80
 1200 -1 l 1
 1200 -227 l 1
 1126 -227 l 1
 1126 -1 l 1
 1126 -1 1126 -1 745 -1 c 1x6bfe80
 741 49 l 1
 781 83 802 121 802 161 c 0
 802 192 792 218 771 239 c 0
 750 260 723 270 692 270 c 0
 658 270 636 263 625 247 c 1
 653 244 677 227 698 197 c 0
 719 167 729 138 729 109 c 0
 729 78 722 51 706 28 c 0
 688 2 663 -11 633 -11 c 0
 596 -11 565 4 541 34 c 0
 517 64 505 98 504 136 c 1
 504 154 l 2
 504 167 506 178 509 190 c 1
 461 190 l 1
 461 136 l 2
 461 88 446 51 416 26 c 0
 386 1 347 -12 297 -12 c 0
 251 -12 208 3 169 32 c 0
 127 64 105 102 105 148 c 0
 105 225 144 264 220 263 c 1
 220 449 l 1
 592 449 l 1
 592 378 l 1
 461 378 l 1
 461 263 l 1
 539 263 l 1x9dfe80
 572 315 622 341 692 341 c 0
 741 341 784 324 819 289 c 0
 854 254 871 212 871 163 c 0
 871 130 862 100 843 71 c 1
 843 71 842 71 1126 71 c 1
 1126 133 l 1
 1069 133 1021 149 980 181 c 0
 936 215 914 260 914 316 c 0
 914 360 929 395 959 421 c 0
 989 447 1026 460 1070 460 c 0
 1108 460 1138 448 1163 426 c 0
 1188 404 1200 375 1200 337 c 2
 1200 207 l 1
 1228 212 1252 223 1271 239 c 0
 1294 257 1305 279 1305 306 c 1
 1363 306 l 1
 1363 -1 l 1x6bfe80
1289 71 m 1x49ff
 1289 175 l 1
 1262 151 1232 138 1200 135 c 1
 1200 71 l 1
 1289 71 l 1x49ff
1126 332 m 2
 1126 349 1120 363 1108 373 c 0
 1096 383 1082 388 1064 388 c 0
 1041 388 1023 381 1008 368 c 0
 993 355 986 337 986 314 c 0
 986 280 1001 252 1032 231 c 0
 1059 213 1090 204 1126 204 c 1x2bfe
 1126 332 l 2
664 106 m 0
 664 112 663 119 662 125 c 0
 659 139 649 152 633 166 c 0
 617 180 602 187 588 187 c 0
 585 187 583 187 581 186 c 1
 576 174 572 159 572 143 c 0
 572 133 573 122 575 110 c 0
 577 98 584 85 594 71 c 0x49fe
 604 57 615 50 627 50 c 0
 639 50 648 57 655 70 c 0
 660 81 664 92 664 106 c 0
391 263 m 1x1dfe
 391 378 l 1
 291 378 l 1
 291 263 l 1
 391 263 l 1x1dfe
391 133 m 1xa9fe
 391 134 l 1
 391 190 l 1
 239 190 l 2x19fe
 197 190 176 176 176 147 c 0
 176 120 190 98 218 80 c 0
 243 63 270 54 297 54 c 0
 356 54 388 80 391 133 c 1xa9fe
EndSplineSet
Validated: 37
Ligature2: "'akhn' Akhand in Tamil lookup 1-1" uni0B95 uni0BCD uni0BB7
EndChar

StartChar: NameMe.191.1
Encoding: 139 -1 96
Width: 1084
VWidth: 1048
Flags: W
HStem: -264 70<436.564 770.376> -11 69<410.973 491.268 702.979 774.663> 180 65<409.881 491.946> 391 69<450.556 672.113 796.399 922.317>
VStem: 105 70<43.8016 299.76> 265 71<113.556 289.479> 350 46<113.438 165.077> 504 69<69.9817 168.947> 610 72<78.4234 282.415> 797 75<79.9342 286.936> 1014 70<32.0861 287.232>
LayerCount: 2
Fore
SplineSet
1084 176 m 0
 1084 36 1043 -72 960 -149 c 0
 877 -226 760 -264 610 -264 c 0
 448 -264 323 -224 236 -144 c 1
 149 -66 105 43 105 185 c 0
 105 282 137 374 200 460 c 1
 267 427 l 1
 206 342 175 261 175 185 c 0
 175 65 213 -28 289 -94 c 0
 365 -160 471 -194 610 -194 c 0
 737 -194 836 -161 907 -97 c 0
 978 -33 1014 58 1014 176 c 0
 1014 231 1001 279 974 319 c 0
 944 364 903 387 851 387 c 0
 827 387 809 384 796 376 c 1
 847 327 872 258 872 169 c 0
 872 120 864 79 847 48 c 1
 824 8 790 -11 744 -11 c 0
 697 -11 662 10 639 53 c 0
 620 87 610 129 610 180 c 0
 610 256 631 320 673 369 c 1
 637 384 598 391 558 391 c 0
 499 391 447 374 404 341 c 0
 358 306 336 259 336 201 c 0
 336 165 342 136 356 113 c 1
 352 125 350 135 350 144 c 0
 350 173 360 198 380 217 c 0
 400 236 426 245 455 245 c 0
 490 245 519 232 541 207 c 0
 563 182 573 152 573 116 c 0
 573 78 562 48 538 24 c 0
 514 0 483 -11 445 -11 c 0
 390 -11 346 9 312 51 c 0
 281 89 265 137 265 193 c 0
 265 276 293 341 350 390 c 1
 405 436 474 460 558 460 c 0
 630 460 687 445 729 416 c 1
 761 445 801 460 848 460 c 0
 922 460 981 431 1025 373 c 1
 1065 320 1084 254 1084 176 c 0
797 174 m 0
 797 253 776 305 736 331 c 1
 700 291 682 239 682 174 c 0
 682 100 700 63 738 63 c 0
 777 63 797 100 797 174 c 0
504 120 m 256
 504 136 499 150 489 162 c 0
 479 174 467 180 451 180 c 0
 435 180 421 174 411 162 c 0
 401 150 396 136 396 120 c 256
 396 104 401 89 411 77 c 0
 421 65 435 58 451 58 c 0
 467 58 479 65 489 77 c 0
 499 89 504 104 504 120 c 256
EndSplineSet
Validated: 1
EndChar

StartChar: NameMe.192.1
Encoding: 140 -1 97
Width: 1367
VWidth: 1048
Flags: W
HStem: -260 65<547.523 951.697> -11 74<388.634 473.409 679.815 757.864 1010.46 1088.4> 180 65<389.689 470.946> 388 72<425.734 646.365 784.593 977.168 1094.05 1215.73>
VStem: 103 73<73.0766 335.428> 245 70<113.954 286.448> 330 46<113.392 164.971> 483 70<69.667 169.477> 590 72<78.6926 272.829> 776 76<78.7183 271.161> 916 72<84.9039 283.176> 1105 71<78.6956 266.516> 1294 73<69.4877 296.712>
LayerCount: 2
Fore
SplineSet
1367 196 m 0
 1367 44 1301 -74 1171 -156 c 0
 1060 -226 924 -260 759 -260 c 0
 588 -260 443 -227 322 -160 c 0
 177 -79 103 37 103 187 c 0
 103 289 125 381 168 460 c 1
 237 429 l 1
 197 353 176 273 176 190 c 0
 176 60 243 -41 376 -111 c 1
 484 -167 610 -195 755 -195 c 0
 896 -195 1016 -166 1115 -109 c 1
 1234 -39 1294 63 1294 194 c 0
 1294 244 1281 287 1256 324 c 0
 1227 367 1188 388 1140 388 c 0
 1126 388 1111 384 1093 375 c 1
 1148 313 1176 244 1176 169 c 0
 1176 121 1167 80 1149 48 c 0
 1126 8 1093 -11 1047 -11 c 0
 1001 -11 966 10 943 53 c 0
 925 86 916 128 916 179 c 0
 916 250 937 313 979 367 c 1
 950 381 918 388 883 388 c 256
 848 388 811 379 774 361 c 1
 826 306 852 242 852 169 c 0
 852 121 843 80 825 48 c 0
 803 8 770 -11 724 -11 c 0
 678 -11 642 10 618 53 c 0
 599 88 590 130 590 180 c 0
 590 246 613 306 660 359 c 1
 621 380 581 391 538 391 c 0
 479 391 427 374 385 341 c 0
 339 305 315 258 315 201 c 0
 315 166 322 137 336 113 c 1
 332 123 330 133 330 144 c 0
 330 173 340 197 360 216 c 0
 380 235 405 245 434 245 c 0
 469 245 498 232 520 207 c 0
 542 182 553 151 553 116 c 0
 553 79 541 49 517 25 c 0
 493 1 462 -11 425 -11 c 0
 370 -11 326 9 292 51 c 0
 261 90 245 138 245 193 c 0
 245 276 274 341 331 390 c 0
 385 436 454 460 538 460 c 0
 605 460 663 443 714 408 c 1
 766 443 818 461 871 461 c 0
 926 461 979 447 1030 420 c 1
 1065 447 1102 460 1140 460 c 0
 1210 460 1266 432 1309 377 c 0
 1348 326 1367 266 1367 196 c 0
1105 165 m 256
 1105 233 1082 286 1037 326 c 1
 1004 286 988 238 988 182 c 0
 988 155 991 131 999 109 c 0
 1009 79 1025 63 1046 63 c 0
 1086 63 1105 97 1105 165 c 256
776 174 m 0
 776 231 758 279 720 319 c 1
 681 284 662 236 662 174 c 0
 662 100 680 63 718 63 c 0
 757 63 776 100 776 174 c 0
483 120 m 256
 483 136 478 150 468 162 c 0
 458 174 446 180 430 180 c 0
 414 180 401 174 391 162 c 0
 381 150 376 136 376 120 c 256
 376 104 381 89 391 77 c 0
 401 65 414 58 430 58 c 0
 446 58 458 65 468 77 c 0
 478 89 483 104 483 120 c 256
EndSplineSet
Validated: 1
EndChar

StartChar: NameMe.193.1
Encoding: 141 -1 98
Width: 783
VWidth: 1048
Flags: W
HStem: -209 66<346.202 617.059> -1 21G<266 343 457 534> 82 58<644.631 700.464> 200 55<643.236 703.57> 395 69<362.6 437.33 558.588 693.876>
VStem: 102 71<40.4027 333.719> 266 77<-1 375.673> 457 77<-1 369.389> 579 64<140.568 199.477> 717 66<-68.1668 66.997 268.952 371.633>
LayerCount: 2
Fore
SplineSet
784 314 m 0
 784 281 776 256 759 236 c 0
 739 212 709 200 669 200 c 0
 652 200 643 191 643 173 c 0
 643 151 652 140 669 140 c 0
 707 140 736 126 756 98 c 0
 774 73 783 41 783 1 c 0
 783 -63 756 -114 700 -152 c 0
 644 -190 570 -209 478 -209 c 0
 349 -209 252 -168 186 -86 c 0
 130 -16 102 76 102 190 c 0
 102 299 129 390 183 460 c 1
 244 423 l 1
 197 366 173 287 173 187 c 0
 173 91 195 16 239 -41 c 0
 292 -109 371 -143 480 -143 c 0
 552 -143 610 -130 653 -104 c 0
 696 -78 717 -44 717 -1 c 0
 717 54 695 82 652 82 c 0
 629 82 611 92 597 111 c 0
 585 128 579 148 579 173 c 0
 579 196 584 215 596 231 c 0
 608 247 624 255 644 255 c 0
 693 255 718 278 718 322 c 0
 718 342 710 358 695 372 c 0
 677 388 654 395 624 395 c 0
 599 395 577 390 561 378 c 0
 543 366 534 348 534 325 c 2
 534 -1 l 1
 457 -1 l 1
 457 325 l 2
 457 342 451 357 440 370 c 0
 429 383 415 389 398 389 c 0
 382 389 370 382 359 369 c 0
 348 356 343 341 343 325 c 2
 343 -1 l 1
 266 -1 l 1
 266 330 l 2
 266 366 279 397 306 423 c 0
 333 449 364 462 400 462 c 0
 438 462 471 447 496 418 c 1
 522 449 560 464 612 464 c 0
 667 464 710 448 742 416 c 0
 770 387 784 353 784 314 c 0
EndSplineSet
Validated: 1
EndChar

StartChar: ku
Encoding: 142 -1 99
Width: 768
Flags: W
HStem: -210 68<335.124 564.833> -12 65<356.406 500.01> 186 71<332.564 354 423 522 589 681.863> 369 69<423 522 589 717>
VStem: 99 65<42.687 295.071> 243 69<93.0566 177.208> 354 69<257 369> 522 67<75.6372 186 257 369> 703 64<-11.1518 159.549>
LayerCount: 2
Fore
SplineSet
767 94 m 0
 767 4 737.666666667 -69.1666666667 679 -125.5 c 0
 620.333333333 -181.833333333 546 -210 456 -210 c 0
 399.333333333 -210 346.333333333 -197.666666667 297 -173 c 1
 231 -141 180.666666667 -93 146 -29 c 1
 114.666666667 30.3333333333 99 98.6666666667 99 176 c 0
 99 276 132 363.666666667 198 439 c 1
 246 393 l 1
 191.333333333 329.666666667 164 256.666666667 164 174 c 0
 164 84 189.333333333 9.66666666667 240 -49 c 0
 292.666666667 -111 363 -142 451 -142 c 0
 521.666666667 -142 580.666666667 -121 628 -79 c 0
 678 -35 703 21.6666666667 703 91 c 0
 703 115.666666667 698 137 688 155 c 0
 676 175.666666667 658 186 634 186 c 2
 589 186 l 1
 589 133 l 2
 589 85.6666666667 574.5 49.6666666667 545.5 25 c 0
 516.5 0.333333333333 478 -12 430 -12 c 0
 384 -12 342 2.33333333333 304 31 c 0
 263.333333333 62.3333333333 243 100.333333333 243 145 c 0
 243 221 280 258.333333333 354 257 c 1
 354 438 l 1
 717 438 l 1
 717 369 l 1
 589 369 l 1
 589 257 l 1
 647 257 l 2
 687 257 718 239 740 203 c 0
 758 173 767 136.666666667 767 94 c 0
522 257 m 1
 522 369 l 1
 423 369 l 1
 423 257 l 1
 522 257 l 1
522 130 m 1
 522 131 l 1
 522 186 l 1
 373 186 l 2
 357.666666667 186 344 183 332 177 c 1
 318.666666667 169 312 158 312 144 c 0
 312 118 325.333333333 96 352 78 c 0
 376.666666667 61.3333333333 402.666666667 53 430 53 c 0
 488.666666667 53 519.333333333 78.6666666667 522 130 c 1
EndSplineSet
Validated: 33
Ligature2: "'psts' Post Base Substitutions lookup 6-1" uni0B95 uni0BC1
EndChar

StartChar: ngu
Encoding: 143 -1 100
Width: 697
Flags: W
HStem: 0 64<278 448.795 511 624> 206 69<359.992 454.957> 366 72<171 278 347 505>
VStem: 101 70<0 366> 278 69<104 191.938 242 366> 472 75<87.3382 188.714> 626 71<-214 0 64 437>
LayerCount: 2
Fore
SplineSet
697 -214 m 1
 624 -214 l 1
 624 0 l 1
 278 0 l 1
 278 64 l 1
 397 64 l 2
 417 64 434.5 71.6666666667 449.5 87 c 0
 464.5 102.333333333 472 120 472 140 c 0
 472 158.666666667 466 174.333333333 454 187 c 0
 442 199.666666667 426.666666667 206 408 206 c 0
 393.333333333 206 379.5 200.666666667 366.5 190 c 0
 353.5 179.333333333 347 167 347 153 c 2
 347 104 l 1
 278 104 l 1
 278 366 l 1
 171 366 l 1
 171 0 l 1
 101 0 l 1
 101 438 l 1
 505 438 l 1
 505 366 l 1
 347 366 l 1
 347 242 l 1
 365.666666667 264 390.333333333 275 421 275 c 0
 459.666666667 275 490.333333333 263 513 239 c 0
 535.666666667 215 547 184.666666667 547 148 c 0
 547 116 535 88 511 64 c 1
 626 64 l 1
 626 437 l 1
 697 437 l 1
 697 -214 l 1
EndSplineSet
Validated: 1
Ligature2: "'psts' Post Base Substitutions lookup 6-1" uni0B99 uni0BC1
EndChar

StartChar: chu
Encoding: 144 -1 101
Width: 636
Flags: W
HStem: -12 65<213.998 354.536> 1 21G<504 577> 186 71<178.463 209 278 377 444 504 577 636> 369 69<278 377 444 567>
VStem: 103 69<91.7609 178.812> 209 69<257 369> 377 67<76.0286 186 257 369> 504 73<1 186>
LayerCount: 2
Fore
SplineSet
636 186 m 1xbf
 577 186 l 1
 577 1 l 1
 504 1 l 1x7f
 504 186 l 1
 444 186 l 1
 444 133 l 2
 444 85.6666666667 429 49 399 23 c 1
 371 -0.333333333333 333 -12 285 -12 c 0
 239 -12 197.666666667 2.66666666667 161 32 c 0
 122.333333333 62.6666666667 103 100.333333333 103 145 c 0
 103 220.333333333 138.333333333 257.666666667 209 257 c 1
 209 438 l 1
 567 438 l 1
 567 369 l 1
 444 369 l 1
 444 257 l 1
 636 257 l 1
 636 186 l 1xbf
377 257 m 1
 377 369 l 1
 278 369 l 1
 278 257 l 1
 377 257 l 1
377 130 m 1
 377 131 l 1
 377 186 l 1
 228 186 l 2
 190.666666667 186 172 172 172 144 c 0
 172 118 184.666666667 96 210 78 c 0
 232.666666667 61.3333333333 257.666666667 53 285 53 c 0xbf
 343 53 373.666666667 78.6666666667 377 130 c 1
EndSplineSet
Validated: 33
Ligature2: "'psts' Post Base Substitutions lookup 6-1" uni0B9A uni0BC1
EndChar

